# Blender v2.79 (sub 0) OBJ File: 'Gate_TexturingRemodel.blend'
# www.blender.org
mtllib Inner_Rings_cuplink_fat.mtl
o Cylinder.001_Cylinder.009
v 0.265078 3.173593 0.906861
v 0.265078 3.151997 0.979247
v 0.277223 3.169811 0.905733
v 0.277223 3.148216 0.978118
v 0.284730 3.159910 0.902779
v 0.284730 3.138315 0.975165
v 0.284730 3.147673 0.899128
v 0.284730 3.126077 0.971514
v 0.277223 3.137772 0.896174
v 0.277223 3.116177 0.968560
v 0.265078 3.133990 0.895046
v 0.265078 3.112395 0.967432
v 0.252932 3.137772 0.896174
v 0.252932 3.116177 0.968560
v 0.245425 3.147673 0.899128
v 0.245425 3.126077 0.971514
v 0.245425 3.159910 0.902779
v 0.245425 3.138315 0.975165
v 0.252932 3.169811 0.905733
v 0.252932 3.148216 0.978118
v 0.224465 3.121845 0.891422
v 0.224465 3.100249 0.963808
v 0.236611 3.118063 0.890294
v 0.236611 3.096468 0.962680
v 0.244117 3.108163 0.887340
v 0.244117 3.086567 0.959726
v 0.244117 3.095925 0.883689
v 0.244117 3.074329 0.956075
v 0.236611 3.086024 0.880736
v 0.236611 3.064429 0.953122
v 0.224465 3.082242 0.879607
v 0.224465 3.060647 0.951993
v 0.212320 3.086024 0.880736
v 0.212320 3.064429 0.953122
v 0.204813 3.095925 0.883689
v 0.204813 3.074329 0.956075
v 0.204813 3.108163 0.887340
v 0.204813 3.086567 0.959726
v 0.212320 3.118063 0.890294
v 0.212320 3.096468 0.962680
vt 0.000201 0.899562
vt 0.288330 0.899562
vt 0.288333 0.974163
vt 0.000201 0.974160
vt 0.999800 0.288732
vt 0.999800 0.576865
vt 0.925202 0.576864
vt 0.925202 0.288732
vt 0.861174 0.000202
vt 0.861174 0.288333
vt 0.786574 0.288333
vt 0.786576 0.000201
vt 0.711976 0.288333
vt 0.711974 0.000202
vt 0.637378 0.288333
vt 0.637375 0.000201
vt 0.000200 0.601165
vt 0.000200 0.447793
vt 0.288330 0.447793
vt 0.288330 0.601166
vt 0.288330 0.675765
vt 0.000200 0.675765
vt 0.288330 0.750364
vt 0.000200 0.750364
vt 0.924803 0.406121
vt 0.900583 0.476679
vt 0.839516 0.519525
vt 0.764926 0.518295
vt 0.705308 0.473456
vt 0.683427 0.402137
vt 0.707647 0.331580
vt 0.768714 0.288734
vt 0.843304 0.289964
vt 0.902924 0.334803
vt 0.288330 0.824964
vt 0.000200 0.824963
vt 0.900583 0.562773
vt 0.924801 0.633330
vt 0.902924 0.704649
vt 0.843302 0.749487
vt 0.768712 0.750715
vt 0.707647 0.707869
vt 0.683427 0.637312
vt 0.705306 0.565994
vt 0.764928 0.521156
vt 0.839518 0.519925
vt 0.000200 0.373194
vt 0.288334 0.373196
vt 0.508228 0.704648
vt 0.530107 0.633330
vt 0.437933 0.000200
vt 0.437933 0.288333
vt 0.363333 0.288332
vt 0.363333 0.000201
vt 0.288733 0.288332
vt 0.288735 0.000201
vt 0.936173 0.000200
vt 0.936171 0.288331
vt 0.861573 0.288331
vt 0.861573 0.000200
vt 0.000200 0.000200
vt 0.288333 0.000200
vt 0.288333 0.074799
vt 0.000201 0.074800
vt 0.288333 0.149398
vt 0.000201 0.149398
vt 0.288330 0.223998
vt 0.000201 0.223998
vt 0.530107 0.406120
vt 0.505889 0.476677
vt 0.444820 0.519524
vt 0.370232 0.518293
vt 0.310610 0.473455
vt 0.288733 0.402136
vt 0.312953 0.331578
vt 0.374018 0.288732
vt 0.448610 0.289963
vt 0.508228 0.334801
vt 0.288333 0.298596
vt 0.000201 0.298597
vt 0.505887 0.562771
vt 0.448608 0.749485
vt 0.374018 0.750715
vt 0.312953 0.707869
vt 0.288733 0.637311
vt 0.310612 0.565993
vt 0.370232 0.521156
vt 0.444822 0.519925
vn 0.3090 0.9114 0.2719
vn 0.8090 0.5633 0.1680
vn 1.0000 0.0000 0.0000
vn 0.8090 -0.5633 -0.1680
vn 0.3090 -0.9114 -0.2719
vn -0.7833 0.5957 0.1777
vn -0.8090 -0.5633 -0.1680
vn -1.0000 0.0000 0.0000
vn 0.0000 -0.2859 0.9583
vn -0.8090 0.5633 0.1680
vn -0.3090 0.9114 0.2719
vn 0.0000 0.2859 -0.9583
vn 0.8090 -0.5632 -0.1680
vn -0.3090 -0.9114 -0.2719
vn -0.8090 -0.5632 -0.1680
vn 0.7894 -0.5883 -0.1755
usemtl None
s 1
f 1/1/1 2/2/1 4/3/1 3/4/1
f 3/5/2 4/6/2 6/7/2 5/8/2
f 5/9/3 6/10/3 8/11/3 7/12/3
f 7/12/4 8/11/4 10/13/4 9/14/4
f 9/14/5 10/13/5 12/15/5 11/16/5
f 13/17/6 23/18/6 24/19/6 14/20/6
f 13/17/7 14/20/7 16/21/7 15/22/7
f 15/22/8 16/21/8 18/23/8 17/24/8
f 4/25/9 2/26/9 20/27/9 18/28/9 16/29/9 14/30/9 12/31/9 10/32/9 8/33/9 6/34/9
f 17/24/10 18/23/10 20/35/10 19/36/10
f 19/36/11 20/35/11 2/2/11 1/1/11
f 1/37/12 3/38/12 5/39/12 7/40/12 9/41/12 11/42/12 13/43/12 15/44/12 17/45/12 19/46/12
f 21/47/1 22/48/1 24/19/1 23/18/1
f 11/42/12 25/49/12 23/50/12 13/43/12
f 25/51/3 26/52/3 28/53/3 27/54/3
f 27/54/13 28/53/13 30/55/13 29/56/13
f 29/57/5 30/58/5 32/59/5 31/60/5
f 31/61/14 32/62/14 34/63/14 33/64/14
f 33/64/15 34/63/15 36/65/15 35/66/15
f 35/66/8 36/65/8 38/67/8 37/68/8
f 24/69/9 22/70/9 40/71/9 38/72/9 36/73/9 34/74/9 32/75/9 30/76/9 28/77/9 26/78/9
f 37/68/10 38/67/10 40/79/10 39/80/10
f 39/80/11 40/79/11 22/48/11 21/47/11
f 21/81/12 23/50/12 25/49/12 27/82/12 29/83/12 31/84/12 33/85/12 35/86/12 37/87/12 39/88/12
f 14/30/9 24/69/9 26/78/9 12/31/9
f 12/15/16 26/52/16 25/51/16 11/16/16
