# Blender v2.79 (sub 0) OBJ File: 'Gate_TexturingRemodel.blend'
# www.blender.org
mtllib MainRing_Blocker.mtl
o Circle.007_Circle.464
v 0.133684 -0.564489 3.219629
v 0.133684 -0.281732 3.256577
v 0.133684 0.003170 3.268739
v 0.133684 0.288047 3.256024
v 0.133684 0.570732 3.218529
v 0.133683 0.849074 3.156538
v 0.133683 1.120953 3.070525
v 0.133683 1.384302 2.961144
v 0.133682 1.637115 2.829226
v 0.133682 1.877468 2.675776
v 0.133681 2.103533 2.501962
v 0.133681 2.313589 2.309106
v 0.133680 2.506037 2.098677
v 0.133680 2.679412 1.872275
v 0.133679 2.832396 1.631624
v 0.133678 2.963823 1.378556
v 0.133678 3.072694 1.114996
v 0.133677 3.158180 0.842950
v 0.133677 3.219629 0.564489
v 0.133676 3.256577 0.281732
v 0.133675 3.268739 -0.003169
v 0.133675 3.256024 -0.288047
v 0.133674 3.218529 -0.570731
v 0.133673 3.156539 -0.849073
v 0.133673 3.070526 -1.120953
v 0.133672 2.961144 -1.384301
v 0.133672 2.829226 -1.637114
v 0.133671 2.675777 -1.877468
v 0.133671 2.501962 -2.103533
v 0.133670 2.309107 -2.313589
v 0.133670 2.098677 -2.506037
v 0.133669 1.872276 -2.679411
v 0.133669 1.631625 -2.832396
v 0.133669 1.378557 -2.963823
v 0.133669 1.114997 -3.072694
v 0.133669 0.842951 -3.158180
v 0.133669 0.564490 -3.219630
v 0.133669 0.281733 -3.256577
v 0.133669 -0.003168 -3.268739
v 0.133669 -0.288046 -3.256024
v 0.133669 -0.570731 -3.218530
v 0.133669 -0.849072 -3.156539
v 0.133670 -1.120952 -3.070526
v 0.133670 -1.384300 -2.961145
v 0.133670 -1.637113 -2.829227
v 0.133671 -1.877467 -2.675778
v 0.133671 -2.103533 -2.501963
v 0.133672 -2.313588 -2.309107
v 0.133673 -2.506036 -2.098678
v 0.133673 -2.679411 -1.872276
v 0.133674 -2.832395 -1.631626
v 0.133674 -2.963822 -1.378557
v 0.133675 -3.072693 -1.114998
v 0.133676 -3.158180 -0.842952
v 0.133676 -3.219629 -0.564491
v 0.133677 -3.256577 -0.281733
v 0.133678 -3.268739 0.003168
v 0.133678 -3.256024 0.288045
v 0.133679 -3.218529 0.570730
v 0.133680 -3.156539 0.849072
v 0.133680 -3.070526 1.120951
v 0.133681 -2.961144 1.384300
v 0.133681 -2.829227 1.637113
v 0.133682 -2.675777 1.877466
v 0.133682 -2.501963 2.103531
v 0.133683 -2.309108 2.313587
v 0.133683 -2.098678 2.506035
v 0.133683 -1.872277 2.679410
v 0.133684 -1.631626 2.832394
v 0.133684 -1.378558 2.963822
v 0.133684 -1.114998 3.072693
v 0.133684 -0.842952 3.158179
v -0.127418 -0.564489 3.219630
v -0.127418 -0.281732 3.256577
v -0.127418 0.003170 3.268739
v -0.127418 0.288047 3.256024
v -0.127418 0.570732 3.218529
v -0.127419 0.849074 3.156539
v -0.127419 1.120953 3.070526
v -0.127419 1.384302 2.961144
v -0.127420 1.637115 2.829226
v -0.127420 1.877468 2.675777
v -0.127421 2.103533 2.501962
v -0.127421 2.313589 2.309107
v -0.127422 2.506037 2.098677
v -0.127422 2.679412 1.872276
v -0.127423 2.832396 1.631625
v -0.127424 2.963823 1.378557
v -0.127424 3.072694 1.114997
v -0.127425 3.158180 0.842951
v -0.127426 3.219629 0.564490
v -0.127426 3.256577 0.281733
v -0.127427 3.268739 -0.003169
v -0.127428 3.256024 -0.288046
v -0.127428 3.218529 -0.570731
v -0.127429 3.156539 -0.849073
v -0.127429 3.070526 -1.120952
v -0.127430 2.961144 -1.384300
v -0.127431 2.829226 -1.637113
v -0.127431 2.675777 -1.877467
v -0.127432 2.501962 -2.103532
v -0.127432 2.309107 -2.313588
v -0.127432 2.098677 -2.506036
v -0.127433 1.872276 -2.679411
v -0.127433 1.631625 -2.832395
v -0.127433 1.378557 -2.963822
v -0.127433 1.114997 -3.072693
v -0.127433 0.842951 -3.158180
v -0.127433 0.564490 -3.219629
v -0.127433 0.281733 -3.256576
v -0.127433 -0.003169 -3.268739
v -0.127433 -0.288046 -3.256024
v -0.127433 -0.570731 -3.218529
v -0.127433 -0.849072 -3.156539
v -0.127432 -1.120952 -3.070526
v -0.127432 -1.384300 -2.961144
v -0.127432 -1.637113 -2.829227
v -0.127431 -1.877467 -2.675777
v -0.127431 -2.103533 -2.501962
v -0.127430 -2.313588 -2.309106
v -0.127430 -2.506036 -2.098677
v -0.127429 -2.679411 -1.872276
v -0.127428 -2.832395 -1.631625
v -0.127428 -2.963822 -1.378557
v -0.127427 -3.072693 -1.114997
v -0.127426 -3.158180 -0.842951
v -0.127426 -3.219629 -0.564490
v -0.127425 -3.256577 -0.281733
v -0.127424 -3.268739 0.003169
v -0.127424 -3.256024 0.288046
v -0.127423 -3.218529 0.570731
v -0.127423 -3.156539 0.849072
v -0.127422 -3.070526 1.120952
v -0.127421 -2.961144 1.384301
v -0.127421 -2.829227 1.637113
v -0.127420 -2.675777 1.877467
v -0.127420 -2.501963 2.103532
v -0.127419 -2.309108 2.313587
v -0.127419 -2.098678 2.506036
v -0.127419 -1.872277 2.679411
v -0.127419 -1.631626 2.832395
v -0.127418 -1.378558 2.963822
v -0.127418 -1.114998 3.072693
v -0.127418 -0.842953 3.158180
vt 0.797070 0.896279
vt 0.761963 0.921332
vt 0.747939 0.899906
vt 0.781210 0.876165
vt 0.000100 0.478380
vt 0.003849 0.434861
vt 0.029598 0.438111
vt 0.026036 0.479400
vt 0.561348 0.003923
vt 0.603972 0.011509
vt 0.598417 0.036640
vt 0.558048 0.029407
vt 0.829826 0.868242
vt 0.812252 0.849587
vt 0.000099 0.522056
vt 0.026020 0.520844
vt 0.518268 0.000114
vt 0.517228 0.025775
vt 0.859967 0.837430
vt 0.840832 0.820389
vt 0.003852 0.565554
vt 0.029573 0.562133
vt 0.475026 0.000099
vt 0.476246 0.025756
vt 0.887329 0.804100
vt 0.866744 0.788776
vt 0.011289 0.608558
vt 0.036612 0.602957
vt 0.431932 0.003883
vt 0.435406 0.029347
vt 0.911698 0.768451
vt 0.889872 0.754950
vt 0.022379 0.650755
vt 0.047109 0.642996
vt 0.389313 0.011445
vt 0.395017 0.036521
vt 0.932976 0.730862
vt 0.909991 0.719228
vt 0.037081 0.691818
vt 0.061031 0.681944
vt 0.347500 0.022728
vt 0.355390 0.047225
vt 0.951181 0.691445
vt 0.927226 0.681741
vt 0.055300 0.731430
vt 0.078287 0.719507
vt 0.306833 0.037660
vt 0.316840 0.061394
vt 0.965990 0.650473
vt 0.941234 0.642838
vt 0.076903 0.769282
vt 0.098750 0.755401
vt 0.267554 0.056073
vt 0.279606 0.078871
vt 0.977211 0.608298
vt 0.951861 0.602829
vt 0.101725 0.805083
vt 0.122264 0.789350
vt 0.984722 0.565280
vt 0.958983 0.562027
vt 0.129575 0.838561
vt 0.148648 0.821095
vt 0.988477 0.521774
vt 0.962551 0.520747
vt 0.160246 0.869457
vt 0.177700 0.850389
vt 0.988493 0.478122
vt 0.962585 0.479310
vt 0.193509 0.897521
vt 0.209214 0.876998
vt 0.984796 0.434661
vt 0.959081 0.438019
vt 0.229094 0.922540
vt 0.242929 0.900728
vt 0.977502 0.391690
vt 0.952200 0.397202
vt 0.266718 0.944325
vt 0.278578 0.921395
vt 0.966556 0.349531
vt 0.941850 0.357193
vt 0.306088 0.962711
vt 0.315883 0.938842
vt 0.952022 0.308515
vt 0.928087 0.318269
vt 0.346896 0.977559
vt 0.354551 0.952937
vt 0.229983 0.077881
vt 0.243998 0.099562
vt 0.934030 0.268946
vt 0.911062 0.280726
vt 0.388824 0.988757
vt 0.394283 0.963574
vt 0.194432 0.102920
vt 0.210303 0.123310
vt 0.912668 0.231132
vt 0.890844 0.244862
vt 0.431548 0.996223
vt 0.434770 0.970673
vt 0.161184 0.130992
vt 0.178787 0.149934
vt 0.888095 0.195372
vt 0.867585 0.210944
vt 0.474734 0.999901
vt 0.475697 0.974184
vt 0.130484 0.161870
vt 0.149683 0.179236
vt 0.860506 0.161958
vt 0.841477 0.179235
vt 0.518047 0.999766
vt 0.516746 0.974082
vt 0.102529 0.195313
vt 0.123172 0.210964
vt 0.830153 0.131178
vt 0.812758 0.149982
vt 0.561151 0.995825
vt 0.557597 0.970373
vt 0.077569 0.231090
vt 0.099510 0.244893
vt 0.797369 0.103292
vt 0.781720 0.123409
vt 0.603708 0.988110
vt 0.597934 0.963091
vt 0.055813 0.268928
vt 0.078884 0.280771
vt 0.762553 0.078450
vt 0.748709 0.099725
vt 0.645386 0.976689
vt 0.637440 0.952298
vt 0.037434 0.308536
vt 0.061458 0.318325
vt 0.725874 0.056632
vt 0.714053 0.079251
vt 0.685856 0.961662
vt 0.675809 0.938085
vt 0.022577 0.349608
vt 0.047369 0.357267
vt 0.686685 0.037989
vt 0.676745 0.061806
vt 0.724804 0.943160
vt 0.712732 0.920582
vt 0.011355 0.391826
vt 0.036723 0.397298
vt 0.645865 0.022866
vt 0.638064 0.047458
vn 0.0000 0.0010 1.0000
vn 0.0000 -0.0862 0.9963
vn -0.0000 -0.7667 -0.6420
vn -0.0000 -0.7078 -0.7064
vn -0.0000 0.7064 -0.7078
vn -0.0000 0.7654 -0.6435
vn 0.0000 0.0881 0.9961
vn -0.0000 -0.8197 -0.5728
vn -0.0000 0.6420 -0.7667
vn 0.0000 0.1746 0.9846
vn -0.0000 -0.8665 -0.4992
vn -0.0000 0.5728 -0.8197
vn 0.0000 0.2598 0.9657
vn -0.0000 -0.9067 -0.4217
vn -0.0000 0.4992 -0.8665
vn 0.0000 0.3429 0.9394
vn -0.0000 -0.9400 -0.3411
vn -0.0000 0.4217 -0.9067
vn 0.0000 0.4235 0.9059
vn -0.0000 -0.9662 -0.2579
vn -0.0000 0.3411 -0.9400
vn 0.0000 0.5008 0.8655
vn -0.0000 -0.9850 -0.1727
vn -0.0000 0.2579 -0.9662
vn 0.0000 0.5744 0.8186
vn -0.0000 -0.9963 -0.0862
vn -0.0000 0.1727 -0.9850
vn 0.0000 0.6435 0.7654
vn 0.0000 -1.0000 0.0010
vn 0.0000 0.7078 0.7064
vn 0.0000 -0.9961 0.0881
vn 0.0000 0.7667 0.6420
vn 0.0000 -0.9846 0.1746
vn 0.0000 0.8197 0.5728
vn 0.0000 -0.9657 0.2598
vn 0.0000 0.8665 0.4992
vn 0.0000 -0.9394 0.3429
vn 0.0000 0.9067 0.4217
vn 0.0000 -0.9059 0.4235
vn 0.0000 0.9400 0.3411
vn 0.0000 -0.8655 0.5008
vn 0.0000 0.9662 0.2579
vn 0.0000 -0.8186 0.5744
vn -0.0000 0.0862 -0.9963
vn 0.0000 0.9850 0.1727
vn 0.0000 -0.7654 0.6435
vn -0.0000 -0.0010 -1.0000
vn 0.0000 0.9963 0.0862
vn 0.0000 -0.7064 0.7078
vn -0.0000 -0.0881 -0.9961
vn -0.0000 1.0000 -0.0010
vn 0.0000 -0.6420 0.7667
vn -0.0000 -0.1746 -0.9846
vn -0.0000 0.9961 -0.0881
vn 0.0000 -0.5728 0.8197
vn -0.0000 -0.2598 -0.9657
vn -0.0000 0.9846 -0.1746
vn 0.0000 -0.4992 0.8665
vn -0.0000 -0.3429 -0.9394
vn -0.0000 0.9657 -0.2598
vn 0.0000 -0.4217 0.9067
vn -0.0000 -0.4235 -0.9059
vn -0.0000 0.9394 -0.3429
vn 0.0000 -0.3411 0.9400
vn -0.0000 -0.5008 -0.8655
vn -0.0000 0.9059 -0.4235
vn 0.0000 -0.2579 0.9662
vn -0.0000 -0.5744 -0.8186
vn -0.0000 0.8655 -0.5008
vn 0.0000 -0.1727 0.9850
vn -0.0000 -0.6435 -0.7654
vn -0.0000 0.8186 -0.5744
usemtl Material.2160
s 1
f 39/1/1 38/2/2 110/3/2 111/4/1
f 13/5/3 12/6/4 84/7/4 85/8/3
f 66/9/5 65/10/6 137/11/6 138/12/5
f 40/13/7 39/1/1 111/4/1 112/14/7
f 14/15/8 13/5/3 85/8/3 86/16/8
f 67/17/9 66/9/5 138/12/5 139/18/9
f 41/19/10 40/13/7 112/14/7 113/20/10
f 15/21/11 14/15/8 86/16/8 87/22/11
f 68/23/12 67/17/9 139/18/9 140/24/12
f 42/25/13 41/19/10 113/20/10 114/26/13
f 16/27/14 15/21/11 87/22/11 88/28/14
f 69/29/15 68/23/12 140/24/12 141/30/15
f 43/31/16 42/25/13 114/26/13 115/32/16
f 17/33/17 16/27/14 88/28/14 89/34/17
f 70/35/18 69/29/15 141/30/15 142/36/18
f 44/37/19 43/31/16 115/32/16 116/38/19
f 18/39/20 17/33/17 89/34/17 90/40/20
f 71/41/21 70/35/18 142/36/18 143/42/21
f 45/43/22 44/37/19 116/38/19 117/44/22
f 19/45/23 18/39/20 90/40/20 91/46/23
f 72/47/24 71/41/21 143/42/21 144/48/24
f 46/49/25 45/43/22 117/44/22 118/50/25
f 20/51/26 19/45/23 91/46/23 92/52/26
f 1/53/27 72/47/24 144/48/24 73/54/27
f 47/55/28 46/49/25 118/50/25 119/56/28
f 21/57/29 20/51/26 92/52/26 93/58/29
f 48/59/30 47/55/28 119/56/28 120/60/30
f 22/61/31 21/57/29 93/58/29 94/62/31
f 49/63/32 48/59/30 120/60/30 121/64/32
f 23/65/33 22/61/31 94/62/31 95/66/33
f 50/67/34 49/63/32 121/64/32 122/68/34
f 24/69/35 23/65/33 95/66/33 96/70/35
f 51/71/36 50/67/34 122/68/34 123/72/36
f 25/73/37 24/69/35 96/70/35 97/74/37
f 52/75/38 51/71/36 123/72/36 124/76/38
f 26/77/39 25/73/37 97/74/37 98/78/39
f 53/79/40 52/75/38 124/76/38 125/80/40
f 27/81/41 26/77/39 98/78/39 99/82/41
f 54/83/42 53/79/40 125/80/40 126/84/42
f 28/85/43 27/81/41 99/82/41 100/86/43
f 2/87/44 1/53/27 73/54/27 74/88/44
f 55/89/45 54/83/42 126/84/42 127/90/45
f 29/91/46 28/85/43 100/86/43 101/92/46
f 3/93/47 2/87/44 74/88/44 75/94/47
f 56/95/48 55/89/45 127/90/45 128/96/48
f 30/97/49 29/91/46 101/92/46 102/98/49
f 4/99/50 3/93/47 75/94/47 76/100/50
f 57/101/51 56/95/48 128/96/48 129/102/51
f 31/103/52 30/97/49 102/98/49 103/104/52
f 5/105/53 4/99/50 76/100/50 77/106/53
f 58/107/54 57/101/51 129/102/51 130/108/54
f 32/109/55 31/103/52 103/104/52 104/110/55
f 6/111/56 5/105/53 77/106/53 78/112/56
f 59/113/57 58/107/54 130/108/54 131/114/57
f 33/115/58 32/109/55 104/110/55 105/116/58
f 7/117/59 6/111/56 78/112/56 79/118/59
f 60/119/60 59/113/57 131/114/57 132/120/60
f 34/121/61 33/115/58 105/116/58 106/122/61
f 8/123/62 7/117/59 79/118/59 80/124/62
f 61/125/63 60/119/60 132/120/60 133/126/63
f 35/127/64 34/121/61 106/122/61 107/128/64
f 9/129/65 8/123/62 80/124/62 81/130/65
f 62/131/66 61/125/63 133/126/63 134/132/66
f 36/133/67 35/127/64 107/128/64 108/134/67
f 10/135/68 9/129/65 81/130/65 82/136/68
f 63/137/69 62/131/66 134/132/66 135/138/69
f 37/139/70 36/133/67 108/134/67 109/140/70
f 11/141/71 10/135/68 82/136/68 83/142/71
f 64/143/72 63/137/69 135/138/69 136/144/72
f 38/2/2 37/139/70 109/140/70 110/3/2
f 12/6/4 11/141/71 83/142/71 84/7/4
f 65/10/6 64/143/72 136/144/72 137/11/6
