# Blender v2.79 (sub 0) OBJ File: 'Gate_TexturingRemodel.blend'
# www.blender.org
mtllib Sym_blank.mtl
o symbolsFrontNEWTILT.108_CUBezierCurve.171
v -12.723041 3.258555 -0.088233
v -12.741174 3.394154 -0.098198
v -12.743887 3.413019 -0.099700
v -12.746687 3.432487 -0.101200
v -12.749559 3.452470 -0.102633
v -12.752493 3.472881 -0.103934
v -12.755473 3.493635 -0.105038
v -12.758489 3.514644 -0.105880
v -12.761525 3.535821 -0.106396
v -12.764570 3.557080 -0.106519
v -12.767612 3.578334 -0.106186
v -12.770635 3.599495 -0.105331
v -12.773628 3.620478 -0.103890
v -12.777588 3.648306 -0.100634
v -12.781345 3.674812 -0.095782
v -12.784873 3.699790 -0.089530
v -12.788142 3.723029 -0.082074
v -12.791124 3.744320 -0.073607
v -12.793792 3.763453 -0.064328
v -12.796115 3.780219 -0.054429
v -12.798065 3.794409 -0.044108
v -12.799616 3.805814 -0.033559
v -12.800737 3.814225 -0.022979
v -12.801401 3.819431 -0.012562
v -12.801579 3.821225 -0.002503
v -12.801244 3.819441 0.007601
v -12.800410 3.814200 0.018148
v -12.799111 3.805717 0.028924
v -12.797379 3.794211 0.039720
v -12.795246 3.779897 0.050323
v -12.792746 3.762993 0.060523
v -12.789909 3.743716 0.070106
v -12.786771 3.722281 0.078863
v -12.783363 3.698907 0.086582
v -12.779718 3.673809 0.093050
v -12.775869 3.647205 0.098057
v -12.771850 3.619312 0.101391
v -12.768856 3.598493 0.102852
v -12.765878 3.577740 0.103724
v -12.762915 3.557067 0.104073
v -12.759969 3.536489 0.103965
v -12.757042 3.516023 0.103466
v -12.754136 3.495683 0.102643
v -12.751252 3.475485 0.101559
v -12.748392 3.455444 0.100283
v -12.745558 3.435575 0.098880
v -12.742751 3.415894 0.097415
v -12.739973 3.396416 0.095955
v -12.721718 3.258719 0.082625
vt 0.290721 0.584954
vt 0.252298 0.584991
vt 0.249300 0.615957
vt 0.248972 0.620338
vt 0.248642 0.624763
vt 0.248327 0.629232
vt 0.248040 0.633738
vt 0.247796 0.638281
vt 0.247611 0.642855
vt 0.247499 0.647457
vt 0.247474 0.652085
vt 0.247553 0.656734
vt 0.247749 0.661401
vt 0.248077 0.666083
vt 0.248827 0.672356
vt 0.249953 0.678339
vt 0.251408 0.683983
vt 0.253144 0.689239
vt 0.255113 0.694059
vt 0.257268 0.698394
vt 0.259562 0.702196
vt 0.261946 0.705415
vt 0.264374 0.708003
vt 0.266798 0.709910
vt 0.269169 0.711089
vt 0.271442 0.711490
vt 0.273704 0.711087
vt 0.276046 0.709916
vt 0.278426 0.708024
vt 0.280798 0.705459
vt 0.283119 0.702268
vt 0.285345 0.698498
vt 0.287432 0.694195
vt 0.289336 0.689407
vt 0.291013 0.684181
vt 0.292419 0.678564
vt 0.293510 0.672603
vt 0.294242 0.666345
vt 0.294566 0.661626
vt 0.294758 0.656868
vt 0.294833 0.652088
vt 0.294805 0.647307
vt 0.294689 0.642545
vt 0.294500 0.637820
vt 0.294252 0.633153
vt 0.293959 0.628563
vt 0.293637 0.624069
vt 0.293300 0.619691
vt 0.292962 0.615448
vn -0.9902 -0.1394 0.0078
usemtl Material.2403
s 1
f 1/1/1 49/2/1 48/3/1 47/4/1 46/5/1 45/6/1 44/7/1 43/8/1 42/9/1 41/10/1 40/11/1 39/12/1 38/13/1 37/14/1 36/15/1 35/16/1 34/17/1 33/18/1 32/19/1 31/20/1 30/21/1 29/22/1 28/23/1 27/24/1 26/25/1 25/26/1 24/27/1 23/28/1 22/29/1 21/30/1 20/31/1 19/32/1 18/33/1 17/34/1 16/35/1 15/36/1 14/37/1 13/38/1 12/39/1 11/40/1 10/41/1 9/42/1 8/43/1 7/44/1 6/45/1 5/46/1 4/47/1 3/48/1 2/49/1
