# Blender v2.79 (sub 0) OBJ File: 'Gate_TexturingRemodel.blend'
# www.blender.org
mtllib Sym_1.mtl
o symbolsFrontNEWTILT.072_CUBezierCurve.001
v -12.381981 3.258718 0.081930
v -12.363846 3.394336 0.091632
v -12.361133 3.413204 0.093098
v -12.358333 3.432674 0.094560
v -12.355460 3.452660 0.095954
v -12.352527 3.473074 0.097216
v -12.349546 3.493830 0.098280
v -12.346531 3.514840 0.099082
v -12.343494 3.536018 0.099556
v -12.340448 3.557277 0.099638
v -12.337407 3.578530 0.099264
v -12.334384 3.599690 0.098368
v -12.331390 3.620670 0.096886
v -12.327431 3.648492 0.093576
v -12.323672 3.674989 0.088674
v -12.320145 3.699955 0.082374
v -12.316875 3.723179 0.074872
v -12.313892 3.744453 0.066364
v -12.311226 3.763568 0.057047
v -12.308902 3.780315 0.047117
v -12.306952 3.794485 0.036768
v -12.305401 3.805870 0.026197
v -12.304279 3.814260 0.015600
v -12.303616 3.819446 0.005173
v -12.303437 3.821221 -0.004889
v -12.303772 3.819417 -0.014989
v -12.304605 3.814156 -0.025526
v -12.305905 3.805652 -0.036286
v -12.307637 3.794125 -0.047059
v -12.309771 3.779790 -0.057635
v -12.312271 3.762867 -0.067802
v -12.315107 3.743571 -0.077348
v -12.318246 3.722120 -0.086063
v -12.321653 3.698731 -0.093737
v -12.325299 3.673620 -0.100156
v -12.329148 3.647007 -0.105112
v -12.333169 3.619107 -0.108392
v -12.336162 3.598286 -0.109812
v -12.339141 3.577530 -0.110644
v -12.342104 3.556857 -0.110954
v -12.345050 3.536279 -0.110806
v -12.347977 3.515814 -0.110267
v -12.350883 3.495476 -0.109404
v -12.353767 3.475280 -0.108282
v -12.356627 3.455241 -0.106967
v -12.359462 3.435375 -0.105525
v -12.362268 3.415697 -0.104022
v -12.365047 3.396222 -0.102525
v -12.383304 3.258552 -0.088929
v -12.379110 3.284430 0.008479
v -12.379723 3.280078 0.004349
v -12.379586 3.281853 -0.008815
v -12.379278 3.284264 -0.010576
v -12.378917 3.287024 -0.011508
v -12.379450 3.281988 0.006763
v -12.379908 3.278854 0.001432
v -12.379924 3.278771 0.000829
v -12.379952 3.278658 -0.000997
v -12.379955 3.278740 -0.002830
v -12.379951 3.278812 -0.003427
v -12.379817 3.279985 -0.006366
v -12.358057 3.439815 -0.003984
v -12.358097 3.439598 -0.005204
v -12.358034 3.439901 -0.002596
v -12.358260 3.438587 -0.007622
v -12.358552 3.436678 -0.010044
v -12.358914 3.434239 -0.011772
v -12.359318 3.431467 -0.012665
v -12.378734 3.287206 0.009357
v -12.353298 3.472145 0.012930
v -12.352519 3.477346 0.017396
v -12.349165 3.502940 -0.023647
v -12.353878 3.468402 0.007163
v -12.351056 3.489932 -0.027365
v -12.350080 3.496701 -0.026451
v -12.354212 3.466419 0.000562
v -12.354273 3.466359 -0.006338
v -12.352015 3.483180 -0.026316
v -12.354055 3.468226 -0.012977
v -12.353579 3.471868 -0.018818
v -12.352880 3.476991 -0.023388
v -12.358419 3.436809 0.004923
v -12.358171 3.438674 0.002460
v -12.358751 3.434400 0.006701
v -12.359138 3.431644 0.007650
v -12.358050 3.439647 0.000011
v -12.358032 3.439839 -0.001198
v -12.351604 3.483585 0.020201
v -12.350628 3.490354 0.021115
v -12.349669 3.497107 0.020066
v -12.348804 3.503295 0.017138
v -12.348105 3.508418 0.012568
v -12.347629 3.512060 0.006727
v -12.347411 3.513927 0.000087
v -12.347472 3.513867 -0.006812
v -12.347806 3.511885 -0.013413
v -12.348386 3.508141 -0.019180
v -12.344041 3.537472 -0.000148
v -12.344102 3.537412 -0.007047
v -12.343884 3.539279 -0.013686
v -12.343408 3.542921 -0.019527
v -12.342709 3.548044 -0.024097
v -12.341845 3.554232 -0.027025
v -12.340885 3.560985 -0.028075
v -12.343127 3.543197 0.012221
v -12.342348 3.548399 0.016687
v -12.343707 3.539454 0.006453
v -12.341434 3.554637 0.019491
v -12.340457 3.561407 0.020406
v -12.339499 3.568159 0.019356
v -12.338634 3.574348 0.016428
v -12.337458 3.583113 0.006017
v -12.337240 3.584980 -0.000622
v -12.337301 3.584919 -0.007522
v -12.337635 3.582938 -0.014122
v -12.338215 3.579194 -0.019890
v -12.339909 3.567754 -0.027160
v -12.338994 3.573993 -0.024357
v -12.337934 3.579470 0.011858
v -12.333349 3.612159 -0.000833
v -12.333283 3.612555 0.000357
v -12.332449 3.619123 -0.013606
v -12.332836 3.616366 -0.012686
v -12.333168 3.613957 -0.010933
v -12.333465 3.611538 -0.004310
v -12.333364 3.612486 -0.009008
v -12.333410 3.612098 -0.007778
v -12.310749 3.770223 -0.005894
v -12.311010 3.768651 -0.010676
v -12.311169 3.767637 -0.012421
v -12.311382 3.766203 -0.013438
v -12.311786 3.763431 -0.014330
v -12.332689 3.616511 0.003977
v -12.332286 3.619283 0.004843
v -12.333052 3.614073 0.002272
v -12.311049 3.767782 0.000668
v -12.311248 3.766335 0.001736
v -12.310925 3.768735 -0.001053
v -12.311636 3.763579 0.002685
vt 0.441535 0.287518
vt 0.639791 0.287326
vt 0.543988 0.312196
vt 0.540579 0.310834
vt 0.539886 0.310751
vt 0.537759 0.310656
vt 0.535640 0.310787
vt 0.534941 0.310884
vt 0.531556 0.312304
vt 0.528754 0.314520
vt 0.526763 0.317354
vt 0.525745 0.320574
vt 0.527725 0.488174
vt 0.528826 0.491372
vt 0.530889 0.494167
vt 0.533747 0.496331
vt 0.424180 0.707511
vt 0.422461 0.683166
vt 0.421421 0.658613
vt 0.420986 0.633952
vt 0.421082 0.609284
vt 0.421632 0.584710
vt 0.422562 0.560331
vt 0.423797 0.536247
vt 0.425261 0.512560
vt 0.426879 0.489369
vt 0.428576 0.466776
vt 0.430276 0.444883
vt 0.536589 0.497460
vt 0.537992 0.497683
vt 0.539614 0.497755
vt 0.541225 0.497654
vt 0.542640 0.497403
vt 0.545446 0.496230
vt 0.548257 0.494015
vt 0.550261 0.491185
vt 0.551298 0.487968
vt 0.549955 0.320364
vt 0.548874 0.317161
vt 0.546830 0.314363
vt 0.655567 0.447072
vt 0.551660 0.530621
vt 0.543956 0.528455
vt 0.535950 0.528525
vt 0.528291 0.530825
vt 0.521599 0.535169
vt 0.516416 0.541204
vt 0.513162 0.548443
vt 0.512101 0.556298
vt 0.513319 0.564133
vt 0.516716 0.571314
vt 0.522019 0.577258
vt 0.528797 0.581485
vt 0.433709 0.770539
vt 0.428021 0.739793
vt 0.536501 0.583650
vt 0.544506 0.583581
vt 0.552166 0.581281
vt 0.558858 0.576937
vt 0.564041 0.570902
vt 0.567294 0.563663
vt 0.568355 0.555808
vt 0.567138 0.547973
vt 0.563740 0.540793
vt 0.558438 0.534848
vt 0.552483 0.613068
vt 0.544779 0.610902
vt 0.536773 0.610972
vt 0.529114 0.613271
vt 0.522422 0.617615
vt 0.517239 0.623650
vt 0.513986 0.630889
vt 0.512924 0.638744
vt 0.514142 0.646579
vt 0.517540 0.653760
vt 0.522842 0.659704
vt 0.529620 0.663931
vt 0.449724 0.826456
vt 0.441020 0.799508
vt 0.537324 0.666097
vt 0.545330 0.666027
vt 0.552989 0.663728
vt 0.559681 0.659384
vt 0.564864 0.653349
vt 0.568118 0.646109
vt 0.569179 0.638254
vt 0.567961 0.630419
vt 0.564563 0.623238
vt 0.559261 0.617295
vt 0.657304 0.469670
vt 0.547054 0.698014
vt 0.545627 0.697564
vt 0.541603 0.696914
vt 0.537569 0.697635
vt 0.536188 0.698094
vt 0.533966 0.699855
vt 0.531987 0.702685
vt 0.530982 0.705901
vt 0.533487 0.873335
vt 0.534588 0.876534
vt 0.535827 0.878212
vt 0.537824 0.879318
vt 0.506204 0.922407
vt 0.493938 0.909197
vt 0.481930 0.892755
vt 0.470407 0.873322
vt 0.459596 0.851142
vt 0.543441 0.881045
vt 0.548990 0.879220
vt 0.551015 0.878044
vt 0.552194 0.876380
vt 0.553230 0.873163
vt 0.552390 0.705715
vt 0.551322 0.702517
vt 0.549289 0.699721
vt 0.659048 0.492503
vt 0.660721 0.515555
vt 0.662248 0.538807
vt 0.663550 0.562241
vt 0.664551 0.585841
vt 0.665176 0.609587
vt 0.665348 0.633465
vt 0.664988 0.657453
vt 0.664023 0.681536
vt 0.662375 0.705697
vt 0.658569 0.738070
vt 0.652818 0.768952
vt 0.645369 0.798088
vt 0.636465 0.825228
vt 0.626352 0.850118
vt 0.615276 0.872509
vt 0.603479 0.892146
vt 0.591208 0.908779
vt 0.578707 0.922155
vt 0.566221 0.932022
vt 0.553995 0.938126
vt 0.542274 0.940220
vt 0.530599 0.938161
vt 0.518500 0.932143
vn 0.9905 -0.1371 -0.0067
vn 0.9906 -0.1367 -0.0082
vn 0.9906 -0.1369 -0.0072
vn 0.9906 -0.1368 -0.0075
vn 0.9906 -0.1367 -0.0081
vn 0.9906 -0.1366 -0.0085
vn 0.9904 -0.1382 -0.0082
vn 0.9903 -0.1385 -0.0081
vn 0.9902 -0.1393 -0.0080
vn 0.9900 -0.1407 -0.0077
vn 0.9899 -0.1418 -0.0075
usemtl Material.2368
s 1
f 1/1/1 49/2/2 61/3/3 60/4/1 59/5/1 58/6/1 57/7/1 56/8/1 51/9/1 55/10/1 50/11/1 69/12/1 85/13/1 84/14/1 82/15/1 83/16/4 13/17/5 12/18/1 11/19/1 10/20/1 9/21/1 8/22/1 7/23/1 6/24/1 5/25/1 4/26/1 3/27/1 2/28/1
f 13/17/5 83/16/4 86/29/6 87/30/6 64/31/6 62/32/6 63/33/6 65/34/6 66/35/6 67/36/6 68/37/6 54/38/6 53/39/6 52/40/6 61/3/3 49/2/2 48/41/7 79/42/8 77/43/6 76/44/6 73/45/6 70/46/6 71/47/6 88/48/6 89/49/6 90/50/6 91/51/6 92/52/6 93/53/9 15/54/10 14/55/6
f 15/54/10 93/53/9 94/56/11 95/57/11 96/58/11 97/59/11 72/60/11 75/61/11 74/62/11 78/63/11 81/64/11 80/65/11 79/42/8 48/41/7 100/66/11 99/67/11 98/68/11 107/69/11 105/70/11 106/71/11 108/72/11 109/73/11 110/74/11 111/75/11 119/76/11 112/77/11 17/78/11 16/79/11
f 17/78/11 112/77/11 113/80/11 114/81/11 115/82/11 116/83/11 118/84/11 117/85/11 104/86/11 103/87/11 102/88/11 101/89/11 100/66/11 48/41/7 47/90/11 126/91/11 127/92/11 125/93/11 120/94/11 121/95/11 135/96/11 133/97/11 134/98/11 139/99/11 137/100/11 136/101/11 138/102/11 22/103/11 21/104/11 20/105/11 19/106/11 18/107/11
f 22/103/11 138/102/11 128/108/11 129/109/11 130/110/11 131/111/11 132/112/11 122/113/11 123/114/11 124/115/11 126/91/11 47/90/11 46/116/11 45/117/11 44/118/11 43/119/11 42/120/11 41/121/11 40/122/11 39/123/11 38/124/11 37/125/11 36/126/11 35/127/11 34/128/11 33/129/11 32/130/11 31/131/11 30/132/11 29/133/11 28/134/11 27/135/11 26/136/11 25/137/11 24/138/11 23/139/11
