# Blender v2.79 (sub 0) OBJ File: ''
# www.blender.org
mtllib HandRail_Top_med_2.mtl
o BalconyHanrailLong_21_BalconyHanrailLong
v 0.031274 0.033087 -0.101393
v 0.030742 -0.031406 -1.465406
v 0.030742 0.033087 -1.465407
v 0.031274 -0.031406 -0.101393
v -0.031098 0.033087 -0.101393
v -0.031629 0.033087 -1.465406
v -0.031629 -0.031406 -1.465406
v -0.031098 -0.031406 -0.101393
v -0.031097 -0.050098 -0.022697
v 0.031274 -0.050098 -0.022697
v -0.031098 -0.058509 -0.008821
v 0.031274 -0.058509 -0.008821
v -0.031186 -0.066921 0.000000
v 0.031186 -0.066921 -0.000000
v -0.031098 -0.038882 -0.052082
v 0.031274 -0.038882 -0.052082
v -0.031274 0.033087 0.101393
v -0.030742 -0.031406 1.205021
v -0.030742 0.033087 1.205021
v -0.031274 -0.031406 0.101393
v 0.031098 0.033087 0.101393
v 0.031629 0.033087 1.205021
v 0.031629 -0.031406 1.205021
v 0.031098 -0.031406 0.101393
v -0.031274 -0.058509 0.008821
v 0.031097 -0.058509 0.008821
v -0.031274 -0.050098 0.022697
v 0.031097 -0.050098 0.022696
v -0.031274 -0.038882 0.052082
v 0.031098 -0.038882 0.052082
v 0.031274 0.033087 -0.008821
v 0.031274 0.033087 -0.022697
v 0.031274 0.033087 -0.052082
v -0.031274 0.033087 0.008821
v -0.031274 0.033087 0.022697
v -0.031274 0.033087 0.052082
v -0.031098 0.033087 -0.008821
v -0.031097 0.033087 -0.022697
v -0.031098 0.033087 -0.052082
v -0.031186 0.033087 0.000000
v 0.031186 0.033087 -0.000000
v 0.031097 0.033087 0.008821
v 0.031097 0.033087 0.022696
v 0.031098 0.033087 0.052082
vt 0.383467 0.489211
vt 0.422248 0.999991
vt 0.383467 0.999991
vt 0.422247 0.489211
vt 0.503740 0.489211
vt 0.503740 0.999991
vt 0.464959 0.999991
vt 0.464959 0.489211
vt 0.541510 0.540251
vt 0.579015 0.540257
vt 0.541508 0.545447
vt 0.579013 0.545453
vt 0.579028 0.024150
vt 0.616533 0.024150
vt 0.579028 0.048301
vt 0.616533 0.048301
vt 0.541453 0.548750
vt 0.578958 0.548756
vt 0.541523 0.510781
vt 0.579028 0.510788
vt 0.541515 0.529247
vt 0.579020 0.529253
vt 0.578931 0.000006
vt 0.541426 0.000000
vt 0.503740 0.413274
vt 0.464959 0.000000
vt 0.503740 0.000000
vt 0.464959 0.413274
vt 0.383467 0.413274
vt 0.383467 0.000000
vt 0.422247 0.000000
vt 0.422247 0.413274
vt 0.541399 0.552053
vt 0.578904 0.552060
vt 0.541396 0.557249
vt 0.578902 0.557255
vt 0.579028 0.000000
vt 0.616533 0.000000
vt 0.579028 0.024150
vt 0.616533 0.024150
vt 0.541392 0.568253
vt 0.578897 0.568259
vt 0.541384 0.586718
vt 0.578889 0.586725
vt 0.579028 1.000000
vt 0.541523 0.999994
vt 0.383467 0.454546
vt 0.438545 0.454546
vt 0.433487 0.459742
vt 0.383467 0.459742
vt 0.426743 0.470746
vt 0.383467 0.470746
vt 0.503740 0.447939
vt 0.448661 0.447939
vt 0.453719 0.442743
vt 0.503740 0.442743
vt 0.460463 0.431740
vt 0.503740 0.431740
vt 0.503740 0.454546
vt 0.453719 0.459742
vt 0.448661 0.454546
vt 0.503740 0.459742
vt 0.460463 0.470746
vt 0.503740 0.470746
vt 0.503879 0.489219
vt 0.541287 0.999994
vt 0.503782 1.000000
vt 0.541384 0.489212
vt 0.503871 0.470753
vt 0.541376 0.470747
vt 0.503866 0.459749
vt 0.541371 0.459743
vt 0.503864 0.454553
vt 0.541369 0.454547
vt 0.503809 0.451250
vt 0.541314 0.451244
vt 0.503755 0.447947
vt 0.541260 0.447940
vt 0.503752 0.442751
vt 0.541257 0.442745
vt 0.541253 0.431741
vt 0.541245 0.413275
vt 0.503879 0.000006
vt 0.541384 0.000000
vt 0.383467 0.447939
vt 0.433487 0.442743
vt 0.438545 0.447939
vt 0.383467 0.442743
vt 0.426743 0.431740
vt 0.383467 0.431740
vt 0.383467 0.451243
vt 0.443603 0.451243
vt 0.503740 0.451243
vt 0.443603 0.451243
vn 1.0000 -0.0039 -0.0039
vn 1.0000 -0.0039 -0.0040
vn -1.0000 -0.0039 -0.0039
vn 0.0038 -0.8547 -0.5191
vn 0.0039 -0.8547 -0.5191
vn 0.0039 -0.0039 -1.0000
vn 0.0039 -0.7225 -0.6913
vn 0.0039 -0.7226 -0.6913
vn 0.0039 -0.9883 -0.1523
vn 0.0039 -0.9883 -0.1524
vn 0.0039 -1.0000 -0.0039
vn 0.0038 -0.9345 -0.3559
vn 0.0039 -0.9345 -0.3558
vn 0.0038 -0.9345 -0.3558
vn -1.0000 -0.0039 -0.0038
vn 1.0000 -0.0039 -0.0041
vn 0.0039 -0.8582 0.5133
vn 0.0039 -0.0039 1.0000
vn 0.0039 -0.7265 0.6872
vn 0.0039 -0.9895 0.1447
vn 0.0039 -0.9371 0.3490
vn 1.0000 -0.0044 -0.0021
vn 1.0000 -0.0044 0.0006
vn -1.0000 -0.0052 -0.0071
vn -0.9999 -0.0050 -0.0098
vn -0.9999 -0.0051 -0.0099
vn 0.0039 1.0000 -0.0039
vn 1.0000 -0.0044 -0.0020
vn 1.0000 -0.0045 0.0005
vn 1.0000 -0.0039 0.0039
vn -0.9999 -0.0039 -0.0119
usemtl WorldGridMaterial
s 1
f 1/1/1 2/2/2 3/3/2
f 2/2/2 1/1/1 4/4/1
f 5/5/3 6/6/3 7/7/3
f 5/5/3 7/7/3 8/8/3
f 9/9/4 10/10/5 11/11/5
f 12/12/5 11/11/5 10/10/5
f 2/13/6 7/14/6 3/15/6
f 6/16/6 3/15/6 7/14/6
f 11/11/7 12/12/7 13/17/7
f 14/18/8 13/17/7 12/12/7
f 8/19/9 4/20/9 15/21/9
f 16/22/10 15/21/9 4/20/9
f 8/19/11 2/23/11 4/20/11
f 8/19/11 7/24/11 2/23/11
f 15/21/12 16/22/13 9/9/14
f 10/10/13 9/9/14 16/22/13
f 17/25/15 18/26/15 19/27/15
f 18/26/15 17/25/15 20/28/15
f 21/29/2 22/30/16 23/31/16
f 21/29/2 23/31/16 24/32/2
f 25/33/17 26/34/17 27/35/17
f 28/36/17 27/35/17 26/34/17
f 18/37/18 23/38/18 19/39/18
f 22/40/18 19/39/18 23/38/18
f 13/17/19 14/18/19 25/33/19
f 26/34/19 25/33/19 14/18/19
f 29/41/20 30/42/20 20/43/20
f 24/44/20 20/43/20 30/42/20
f 24/44/11 23/45/11 18/46/11
f 18/46/11 20/43/11 24/44/11
f 27/35/21 28/36/21 29/41/21
f 30/42/21 29/41/21 28/36/21
f 31/47/22 12/48/23 10/49/1
f 31/47/22 10/49/1 32/50/1
f 16/51/1 32/50/1 10/49/1
f 32/50/1 16/51/1 33/52/1
f 4/4/1 33/52/1 16/51/1
f 33/52/1 4/4/1 1/1/1
f 34/53/24 25/54/25 27/55/3
f 34/53/24 27/55/3 35/56/3
f 29/57/3 35/56/3 27/55/3
f 35/56/3 29/57/3 36/58/3
f 20/28/15 36/58/3 29/57/3
f 36/58/3 20/28/15 17/25/15
f 37/59/24 9/60/3 11/61/26
f 38/62/3 9/60/3 37/59/24
f 38/62/3 15/63/3 9/60/3
f 38/62/3 39/64/3 15/63/3
f 39/64/3 8/8/3 15/63/3
f 8/8/3 39/64/3 5/5/3
f 5/65/27 3/66/27 6/67/27
f 3/66/27 5/65/27 1/68/27
f 39/69/27 1/68/27 5/65/27
f 1/68/27 39/69/27 33/70/27
f 38/71/27 33/70/27 39/69/27
f 33/70/27 38/71/27 32/72/27
f 37/73/27 32/72/27 38/71/27
f 32/72/27 37/73/27 31/74/27
f 40/75/27 31/74/27 37/73/27
f 31/74/27 40/75/27 41/76/27
f 34/77/27 41/76/27 40/75/27
f 41/76/27 34/77/27 42/78/27
f 35/79/27 42/78/27 34/77/27
f 42/78/27 35/79/27 43/80/27
f 36/58/27 43/80/27 35/79/27
f 43/80/27 36/58/27 44/81/27
f 17/25/27 44/81/27 36/58/27
f 44/81/27 17/25/27 21/82/27
f 19/83/27 21/82/27 17/25/27
f 21/82/27 19/83/27 22/84/27
f 42/85/28 28/86/1 26/87/29
f 43/88/1 28/86/1 42/85/28
f 43/88/1 30/89/1 28/86/1
f 43/88/1 44/90/1 30/89/1
f 44/90/1 24/32/2 30/89/1
f 24/32/2 44/90/1 21/29/2
f 41/91/30 12/48/23 31/47/22
f 41/91/30 14/92/30 12/48/23
f 41/91/30 26/87/29 14/92/30
f 42/85/28 26/87/29 41/91/30
f 37/59/24 11/61/26 40/93/31
f 40/93/31 11/61/26 13/94/31
f 40/93/31 13/94/31 25/54/25
f 40/93/31 25/54/25 34/53/24
