# Blender v2.79 (sub 0) OBJ File: ''
# www.blender.org
mtllib HandRail_Top_med.mtl
o BalconyHanrailLong_21_BalconyHanrailLong
v 0.031274 0.033087 -0.101393
v 0.030742 -0.031406 -1.461251
v 0.030742 0.033087 -1.461251
v 0.031274 -0.031406 -0.101393
v -0.031098 0.033087 -0.101393
v -0.031629 0.033087 -1.461251
v -0.031629 -0.031406 -1.461251
v -0.031098 -0.031406 -0.101393
v -0.031097 -0.050098 -0.022697
v 0.031274 -0.050098 -0.022697
v -0.031098 -0.058509 -0.008821
v 0.031274 -0.058509 -0.008821
v -0.031186 -0.066921 0.000000
v 0.031186 -0.066921 -0.000000
v -0.031098 -0.038882 -0.052082
v 0.031274 -0.038882 -0.052082
v -0.031274 0.033087 0.101393
v -0.030742 -0.031406 1.461251
v -0.030742 0.033087 1.461251
v -0.031274 -0.031406 0.101393
v 0.031098 0.033087 0.101393
v 0.031629 0.033087 1.461251
v 0.031629 -0.031406 1.461251
v 0.031098 -0.031406 0.101393
v -0.031274 -0.058509 0.008821
v 0.031097 -0.058509 0.008821
v -0.031274 -0.050098 0.022697
v 0.031097 -0.050098 0.022696
v -0.031274 -0.038882 0.052082
v 0.031098 -0.038882 0.052082
v 0.031274 0.033087 -0.008821
v 0.031274 0.033087 -0.022697
v 0.031274 0.033087 -0.052082
v -0.031274 0.033087 0.008821
v -0.031274 0.033087 0.022697
v -0.031274 0.033087 0.052082
v -0.031098 0.033087 -0.008821
v -0.031097 0.033087 -0.022697
v -0.031098 0.033087 -0.052082
v -0.031186 0.033087 0.000000
v 0.031186 0.033087 -0.000000
v 0.031097 0.033087 0.008821
v 0.031097 0.033087 0.022696
v 0.031098 0.033087 0.052082
vt 0.503160 0.465302
vt 0.470437 0.000000
vt 0.503160 0.000000
vt 0.470437 0.465302
vt 0.452416 0.534690
vt 0.452416 0.999993
vt 0.419693 0.999993
vt 0.419693 0.534690
vt 0.535024 0.492231
vt 0.566671 0.492236
vt 0.535022 0.496979
vt 0.566670 0.496984
vt 0.566680 0.000000
vt 0.598327 0.000000
vt 0.566680 0.022067
vt 0.598327 0.022067
vt 0.534977 0.499998
vt 0.566624 0.500002
vt 0.535033 0.465304
vt 0.566680 0.465309
vt 0.535027 0.482177
vt 0.566675 0.482182
vt 0.566567 0.000005
vt 0.534920 0.000000
vt 0.452416 0.465303
vt 0.419693 0.000000
vt 0.452416 0.000000
vt 0.419693 0.465303
vt 0.503160 0.534690
vt 0.503160 0.999992
vt 0.470437 0.999992
vt 0.470437 0.534690
vt 0.534931 0.503016
vt 0.566578 0.503021
vt 0.534929 0.507764
vt 0.566576 0.507768
vt 0.566680 0.022067
vt 0.598328 0.022067
vt 0.566680 0.044135
vt 0.598328 0.044135
vt 0.534926 0.517818
vt 0.566573 0.517823
vt 0.534920 0.534691
vt 0.566567 0.534696
vt 0.566680 1.000000
vt 0.535033 0.999995
vt 0.503160 0.496978
vt 0.456684 0.496978
vt 0.460952 0.492230
vt 0.503160 0.492230
vt 0.466643 0.482175
vt 0.503160 0.482175
vt 0.452416 0.496978
vt 0.405940 0.496978
vt 0.410208 0.492230
vt 0.452416 0.492230
vt 0.415899 0.482175
vt 0.452416 0.482175
vt 0.452416 0.503015
vt 0.410208 0.507762
vt 0.405940 0.503015
vt 0.452416 0.507762
vt 0.415899 0.517817
vt 0.452416 0.517817
vt 0.503273 0.534696
vt 0.534807 0.999995
vt 0.503160 1.000000
vt 0.534920 0.534691
vt 0.503267 0.517823
vt 0.534914 0.517818
vt 0.503264 0.507769
vt 0.534911 0.507764
vt 0.503262 0.503021
vt 0.534910 0.503016
vt 0.503217 0.500002
vt 0.534864 0.499998
vt 0.503171 0.496984
vt 0.534818 0.496979
vt 0.503169 0.492236
vt 0.534816 0.492232
vt 0.503166 0.482182
vt 0.534813 0.482177
vt 0.503160 0.465309
vt 0.534807 0.465304
vt 0.503273 0.000005
vt 0.534920 0.000000
vt 0.503160 0.503015
vt 0.460952 0.507762
vt 0.456684 0.503015
vt 0.503160 0.507762
vt 0.466643 0.517817
vt 0.503160 0.517817
vt 0.503160 0.499996
vt 0.452416 0.499996
vt 0.452416 0.499996
vt 0.401672 0.499996
vn 1.0000 -0.0039 -0.0039
vn 1.0000 -0.0039 -0.0040
vn -1.0000 -0.0039 -0.0039
vn 0.0038 -0.8547 -0.5191
vn 0.0039 -0.8547 -0.5191
vn 0.0039 -0.0039 -1.0000
vn 0.0039 -0.7225 -0.6913
vn 0.0039 -0.7226 -0.6913
vn 0.0039 -0.9883 -0.1523
vn 0.0039 -0.9883 -0.1524
vn 0.0039 -1.0000 -0.0039
vn 0.0038 -0.9345 -0.3559
vn 0.0039 -0.9345 -0.3558
vn 0.0038 -0.9345 -0.3558
vn 0.0039 -0.8582 0.5133
vn 0.0039 -0.0039 1.0000
vn 0.0039 -0.7265 0.6872
vn 0.0039 -0.9895 0.1447
vn 0.0039 -0.9371 0.3490
vn 1.0000 -0.0044 -0.0021
vn 1.0000 -0.0044 0.0006
vn -1.0000 -0.0052 -0.0071
vn -0.9999 -0.0050 -0.0098
vn -0.9999 -0.0051 -0.0099
vn 0.0039 1.0000 -0.0039
vn 1.0000 -0.0044 -0.0020
vn 1.0000 -0.0045 0.0005
vn 1.0000 -0.0039 0.0039
vn -0.9999 -0.0039 -0.0119
usemtl WorldGridMaterial
s 1
f 1/1/1 2/2/2 3/3/2
f 2/2/2 1/1/1 4/4/1
f 5/5/3 6/6/3 7/7/3
f 5/5/3 7/7/3 8/8/3
f 9/9/4 10/10/5 11/11/5
f 12/12/5 11/11/5 10/10/5
f 2/13/6 7/14/6 3/15/6
f 6/16/6 3/15/6 7/14/6
f 11/11/7 12/12/7 13/17/7
f 14/18/8 13/17/7 12/12/7
f 8/19/9 4/20/9 15/21/9
f 16/22/10 15/21/9 4/20/9
f 8/19/11 2/23/11 4/20/11
f 8/19/11 7/24/11 2/23/11
f 15/21/12 16/22/13 9/9/14
f 10/10/13 9/9/14 16/22/13
f 17/25/3 18/26/3 19/27/3
f 18/26/3 17/25/3 20/28/3
f 21/29/1 22/30/2 23/31/2
f 21/29/1 23/31/2 24/32/1
f 25/33/15 26/34/15 27/35/15
f 28/36/15 27/35/15 26/34/15
f 18/37/16 23/38/16 19/39/16
f 22/40/16 19/39/16 23/38/16
f 13/17/17 14/18/17 25/33/17
f 26/34/17 25/33/17 14/18/17
f 29/41/18 30/42/18 20/43/18
f 24/44/18 20/43/18 30/42/18
f 24/44/11 23/45/11 18/46/11
f 18/46/11 20/43/11 24/44/11
f 27/35/19 28/36/19 29/41/19
f 30/42/19 29/41/19 28/36/19
f 31/47/20 12/48/21 10/49/1
f 31/47/20 10/49/1 32/50/1
f 16/51/1 32/50/1 10/49/1
f 32/50/1 16/51/1 33/52/1
f 4/4/1 33/52/1 16/51/1
f 33/52/1 4/4/1 1/1/1
f 34/53/22 25/54/23 27/55/3
f 34/53/22 27/55/3 35/56/3
f 29/57/3 35/56/3 27/55/3
f 35/56/3 29/57/3 36/58/3
f 20/28/3 36/58/3 29/57/3
f 36/58/3 20/28/3 17/25/3
f 37/59/22 9/60/3 11/61/24
f 38/62/3 9/60/3 37/59/22
f 38/62/3 15/63/3 9/60/3
f 38/62/3 39/64/3 15/63/3
f 39/64/3 8/8/3 15/63/3
f 8/8/3 39/64/3 5/5/3
f 5/65/25 3/66/25 6/67/25
f 3/66/25 5/65/25 1/68/25
f 39/69/25 1/68/25 5/65/25
f 1/68/25 39/69/25 33/70/25
f 38/71/25 33/70/25 39/69/25
f 33/70/25 38/71/25 32/72/25
f 37/73/25 32/72/25 38/71/25
f 32/72/25 37/73/25 31/74/25
f 40/75/25 31/74/25 37/73/25
f 31/74/25 40/75/25 41/76/25
f 34/77/25 41/76/25 40/75/25
f 41/76/25 34/77/25 42/78/25
f 35/79/25 42/78/25 34/77/25
f 42/78/25 35/79/25 43/80/25
f 36/81/25 43/80/25 35/79/25
f 43/80/25 36/81/25 44/82/25
f 17/83/25 44/82/25 36/81/25
f 44/82/25 17/83/25 21/84/25
f 19/85/25 21/84/25 17/83/25
f 21/84/25 19/85/25 22/86/25
f 42/87/26 28/88/1 26/89/27
f 43/90/1 28/88/1 42/87/26
f 43/90/1 30/91/1 28/88/1
f 43/90/1 44/92/1 30/91/1
f 44/92/1 24/32/1 30/91/1
f 24/32/1 44/92/1 21/29/1
f 41/93/28 12/48/21 31/47/20
f 41/93/28 14/94/28 12/48/21
f 41/93/28 26/89/27 14/94/28
f 42/87/26 26/89/27 41/93/28
f 37/59/22 11/61/24 40/95/29
f 40/95/29 11/61/24 13/96/29
f 40/95/29 13/96/29 25/54/23
f 40/95/29 25/54/23 34/53/22
