# Blender v2.79 (sub 0) OBJ File: ''
# www.blender.org
mtllib HandRail_Center_Top.mtl
o BalconyHanrailCenter_30.001_BalconyHanrailCenter.001
v 0.108878 0.036712 -1.011788
v 0.108878 -0.037740 -1.011788
v -0.035327 0.036712 -1.386789
v -0.035327 -0.037740 -1.386790
v -0.200101 0.036712 -1.754081
v -0.200101 -0.037740 -1.754081
v -0.370683 0.037425 -1.968541
v -0.370683 -0.037118 -1.968541
v 0.226971 0.036712 -0.643489
v 0.226971 -0.037740 -0.643489
v 0.314413 0.036712 -0.296045
v 0.314413 -0.037740 -0.296045
v 0.007115 -0.027734 -0.974235
v -0.137089 0.036712 -1.346349
v -0.137089 -0.027734 -1.346349
v 0.007115 0.036712 -0.974235
v -0.301865 -0.027734 -1.710812
v -0.482220 0.036285 -2.022417
v -0.482220 -0.036813 -2.022417
v -0.301865 0.036712 -1.710812
v 0.125208 -0.027734 -0.608772
v 0.125208 0.036712 -0.608772
v 0.212650 -0.027734 -0.264004
v 0.212650 0.036712 -0.264004
v 0.251898 -0.052630 -0.019460
v 0.251898 0.036712 -0.019460
v 0.248462 -0.038320 -0.070485
v 0.248462 0.036712 -0.070485
v 0.253873 0.036713 0.004618
v 0.253873 -0.063363 0.004618
v 0.239628 -0.028780 -0.156110
v 0.239628 0.036712 -0.156110
v 0.357281 -0.065398 -0.019765
v 0.353846 -0.051087 -0.071187
v 0.357281 0.036712 -0.019765
v 0.353846 0.036712 -0.071187
v 0.359256 -0.076130 0.004499
v 0.359256 0.036713 0.004499
v 0.345012 -0.041547 -0.157476
v 0.345012 0.036712 -0.157476
v 0.108665 0.036713 1.051659
v -0.035541 0.036713 1.426660
v 0.108665 -0.037739 1.051659
v -0.035541 -0.037739 1.426660
v -0.200317 0.036713 1.793951
v -0.368577 0.037426 2.056186
v -0.200317 -0.037739 1.793951
v -0.368577 -0.037117 2.056186
v 0.226758 0.036713 0.683360
v 0.226758 -0.037739 0.683360
v 0.314201 0.036713 0.335916
v 0.314201 -0.037739 0.335916
v 0.006902 -0.027733 1.014105
v -0.137304 -0.027733 1.386219
v -0.137304 0.036713 1.386219
v 0.006902 0.036713 1.014105
v -0.302080 -0.027733 1.750682
v -0.483689 -0.036812 2.112293
v -0.483689 0.036286 2.112293
v -0.302080 0.036713 1.750682
v 0.124995 -0.027733 0.648642
v 0.124995 0.036713 0.648642
v 0.212438 -0.027733 0.303875
v 0.212438 0.036713 0.303874
v 0.251686 -0.052629 0.059331
v 0.248250 -0.038319 0.110356
v 0.251686 0.036713 0.059331
v 0.248250 0.036713 0.110356
v 0.253649 0.036713 0.035237
v 0.253649 -0.063362 0.035237
v 0.239416 -0.028779 0.195981
v 0.239416 0.036713 0.195981
v 0.357069 -0.065397 0.059636
v 0.357069 0.036713 0.059636
v 0.353634 -0.051086 0.111058
v 0.353634 0.036713 0.111058
v 0.359033 -0.076129 0.035356
v 0.359033 0.036713 0.035356
v 0.344799 -0.041546 0.197347
v 0.344799 0.036713 0.197347
v 0.253767 -0.074095 0.019920
v 0.359150 -0.086862 0.019920
v 0.359150 0.036713 0.019920
v 0.253767 0.036713 0.019920
vt 0.737780 0.251127
vt 0.715557 0.251127
vt 0.737780 0.160725
vt 0.715558 0.160725
vt 0.737780 0.072185
vt 0.715558 0.072185
vt 0.737993 0.014752
vt 0.715743 0.014752
vt 0.737780 0.339918
vt 0.715557 0.339918
vt 0.737780 0.423684
vt 0.715557 0.423684
vt 0.751830 0.717197
vt 0.771066 0.810603
vt 0.751830 0.810603
vt 0.771066 0.717197
vt 0.751830 0.902830
vt 0.770939 0.990303
vt 0.749121 0.990303
vt 0.771066 0.902830
vt 0.751830 0.626203
vt 0.771066 0.626203
vt 0.751830 0.541117
vt 0.771066 0.541117
vt 0.267403 0.660170
vt 0.242954 0.576493
vt 0.271708 0.568770
vt 0.296156 0.651802
vt 0.428080 0.984858
vt 0.386803 0.927532
vt 0.415556 0.917103
vt 0.465042 0.999529
vt 0.340736 0.839128
vt 0.369490 0.829380
vt 0.300420 0.748851
vt 0.329173 0.739799
vt 0.744399 0.481483
vt 0.771066 0.481483
vt 0.748671 0.493776
vt 0.771066 0.493776
vt 0.771066 0.475671
vt 0.741196 0.475671
vt 0.751518 0.514501
vt 0.771066 0.514501
vt 0.707302 0.490297
vt 0.711574 0.477898
vt 0.737780 0.490297
vt 0.737780 0.477898
vt 0.704099 0.496148
vt 0.737780 0.496148
vt 0.714421 0.457092
vt 0.737780 0.457092
vt 0.230117 0.509733
vt 0.229234 0.503807
vt 0.259086 0.503795
vt 0.259968 0.509676
vt 0.234281 0.543090
vt 0.231517 0.522229
vt 0.261369 0.522077
vt 0.264133 0.542778
vt 0.465042 0.496269
vt 0.465598 0.490418
vt 0.494659 0.496298
vt 0.495214 0.490492
vt 0.466564 0.478018
vt 0.496180 0.478189
vt 0.469048 0.457211
vt 0.498664 0.457542
vt 0.477649 0.423798
vt 0.506247 0.431526
vt 0.502228 0.340020
vt 0.530827 0.348392
vt 0.535422 0.251212
vt 0.564020 0.260269
vt 0.575954 0.160789
vt 0.604552 0.170542
vt 0.622267 0.072225
vt 0.650865 0.082660
vt 0.663745 0.014771
vt 0.700896 0.000000
vt 0.715834 0.000000
vt 0.737652 0.000000
vt 0.737780 0.748690
vt 0.737780 0.839137
vt 0.715558 0.748690
vt 0.715558 0.839137
vt 0.737780 0.927728
vt 0.737993 0.985207
vt 0.715558 0.927728
vt 0.715743 0.985207
vt 0.737780 0.659863
vt 0.715558 0.659863
vt 0.737780 0.576070
vt 0.715558 0.576070
vt 0.751830 0.242397
vt 0.751830 0.158085
vt 0.771066 0.158085
vt 0.771066 0.242397
vt 0.751830 0.076248
vt 0.749121 0.000000
vt 0.770939 0.000000
vt 0.771066 0.076248
vt 0.751830 0.325945
vt 0.771066 0.325945
vt 0.751830 0.405517
vt 0.771066 0.405517
vt 0.267443 0.340375
vt 0.271759 0.431901
vt 0.243004 0.424179
vt 0.296198 0.348742
vt 0.428082 0.014859
vt 0.415566 0.082819
vt 0.386811 0.072391
vt 0.465042 0.000000
vt 0.369510 0.170782
vt 0.340755 0.161035
vt 0.329204 0.260573
vt 0.300449 0.251522
vt 0.744400 0.462675
vt 0.748671 0.450599
vt 0.771066 0.462675
vt 0.771066 0.450599
vt 0.771066 0.468367
vt 0.741196 0.468367
vt 0.751518 0.430430
vt 0.771066 0.430430
vt 0.707303 0.509443
vt 0.737780 0.509443
vt 0.711574 0.521843
vt 0.737780 0.521843
vt 0.704099 0.503588
vt 0.737780 0.503588
vt 0.714421 0.542652
vt 0.737780 0.542652
vt 0.230175 0.490595
vt 0.259148 0.496415
vt 0.229296 0.496370
vt 0.260026 0.490686
vt 0.258785 0.500028
vt 0.228934 0.500011
vt 0.234336 0.457571
vt 0.261425 0.478491
vt 0.231574 0.478304
vt 0.264187 0.457917
vt 0.465072 0.499987
vt 0.494688 0.499988
vt 0.465105 0.503709
vt 0.494721 0.503682
vt 0.465656 0.509564
vt 0.495272 0.509491
vt 0.466621 0.521963
vt 0.496237 0.521795
vt 0.469102 0.542771
vt 0.498719 0.542442
vt 0.477700 0.576184
vt 0.506299 0.568459
vt 0.502269 0.659965
vt 0.530868 0.651595
vt 0.535452 0.748775
vt 0.564051 0.739721
vt 0.575973 0.839201
vt 0.604572 0.829451
vt 0.622275 0.927769
vt 0.650874 0.917336
vt 0.663747 0.985226
vt 0.700896 1.000000
vt 0.771066 0.472020
vt 0.737993 0.472021
vt 0.737780 0.499866
vt 0.700896 0.499866
vt 0.737652 1.000000
vt 0.715834 1.000000
vn 0.9319 -0.0066 -0.3626
vn 0.9332 0.0077 -0.3594
vn 0.9345 0.0069 -0.3558
vn 0.7802 -0.0049 -0.6255
vn 0.7832 0.0062 -0.6218
vn 0.7860 -0.0024 -0.6183
vn 0.7806 0.0058 -0.6250
vn 0.9510 -0.0040 -0.3091
vn 0.9526 0.0055 -0.3042
vn 0.9534 0.0042 -0.3017
vn 0.9108 -0.0066 -0.4129
vn 0.9122 0.0077 -0.4098
vn 0.9138 0.0069 -0.4062
vn 0.9688 -0.0077 -0.2479
vn 0.9694 0.0086 -0.2452
vn 0.9705 0.0080 -0.2409
vn -0.9319 0.0050 0.3627
vn -0.9311 0.0036 0.3648
vn -0.9338 -0.0034 0.3577
vn -0.8655 0.0069 0.5009
vn -0.8684 0.0026 0.4958
vn -0.8686 -0.0021 0.4956
vn -0.8675 -0.0056 0.4975
vn -0.9515 0.0070 0.3075
vn -0.9505 0.0060 0.3107
vn -0.9527 -0.0058 0.3038
vn -0.9107 0.0053 0.4131
vn -0.9096 0.0039 0.4154
vn -0.9128 -0.0037 0.4084
vn -0.9680 -0.0013 0.2509
vn -0.9684 0.0017 0.2496
vn -0.9703 -0.0018 0.2421
vn -0.9692 -0.0053 0.2464
vn -0.0912 -0.9954 0.0286
vn -0.0919 -0.9955 0.0240
vn -0.0897 -0.9957 0.0213
vn -0.0912 -0.9953 0.0316
vn -0.0677 -0.9960 0.0578
vn -0.0763 -0.9957 0.0516
vn -0.0736 -0.9961 0.0478
vn -0.0247 -0.9990 0.0378
vn -0.0297 -0.9987 0.0412
vn -0.0191 -0.9987 0.0476
vn -0.0864 -0.9953 0.0431
vn -0.0781 -0.9964 0.0339
vn -0.0889 -0.9955 0.0341
vn -0.0816 -0.9961 0.0332
vn -0.9974 0.0033 0.0722
vn -0.9980 -0.0048 0.0635
vn -0.9980 -0.0040 0.0628
vn -0.9975 0.0045 0.0711
vn -0.9969 -0.0035 0.0790
vn -0.9970 -0.0015 0.0775
vn -0.9963 0.0004 0.0862
vn -0.9963 0.0022 0.0857
vn -0.9952 -0.0064 0.0980
vn -0.9942 0.0064 0.1072
vn -0.9952 -0.0060 0.0975
vn -0.9943 0.0069 0.1065
vn 0.9981 0.0026 -0.0619
vn 0.9975 -0.0033 -0.0710
vn 0.9975 -0.0043 -0.0700
vn 0.9980 0.0038 -0.0627
vn 0.9972 0.0041 -0.0750
vn 0.9963 -0.0061 -0.0853
vn 0.9964 -0.0068 -0.0840
vn 0.9970 0.0062 -0.0772
vn 0.9944 -0.0023 -0.1054
vn 0.9952 0.0012 -0.0979
vn 0.9944 -0.0009 -0.1060
vn 0.9952 0.0016 -0.0980
vn -0.1145 -0.9128 -0.3920
vn -0.1114 -0.9106 -0.3980
vn -0.1112 -0.9132 -0.3920
vn -0.1120 -0.9094 -0.4005
vn -0.1170 -0.9884 -0.0966
vn -0.1242 -0.9875 -0.0969
vn -0.1169 -0.9882 -0.0988
vn -0.1248 -0.9874 -0.0975
vn -0.1163 -0.9600 -0.2548
vn -0.1201 -0.9574 -0.2627
vn -0.1137 -0.9599 -0.2564
vn -0.1210 -0.9568 -0.2645
vn -0.9691 0.0061 0.2464
vn -0.9714 -0.0051 0.2375
vn -0.1146 -0.9934 0.0019
vn -0.1115 -0.9937 0.0140
vn -0.1192 -0.9929 -0.0052
vn -0.0959 -0.9953 0.0097
vn -0.1112 -0.9938 0.0011
vn -0.0910 -0.9957 0.0195
vn 0.9755 -0.0024 -0.2200
vn 0.9773 0.0032 -0.2118
vn 0.9756 -0.0028 -0.2197
vn 0.9773 0.0031 -0.2117
vn -0.0051 1.0000 0.0022
vn -0.0052 1.0000 0.0020
vn -0.0005 1.0000 0.0055
vn 0.0005 1.0000 0.0055
vn -0.0050 1.0000 0.0025
vn 0.0012 1.0000 0.0054
vn -0.0045 1.0000 0.0033
vn 0.0029 1.0000 0.0047
vn -0.0034 1.0000 0.0044
vn 0.0044 1.0000 0.0033
vn -0.0024 1.0000 0.0050
vn 0.0048 1.0000 0.0027
vn -0.0020 1.0000 0.0052
vn 0.0052 1.0000 0.0020
vn -0.0017 1.0000 0.0053
vn 0.0054 1.0000 0.0014
vn -0.0008 1.0000 0.0056
vn 0.0028 1.0000 0.0066
vn 0.0063 1.0000 0.0005
vn -0.0129 0.9999 0.0009
vn -0.0188 0.9998 0.0083
vn -0.0190 0.9998 0.0078
vn 0.4322 -0.0050 -0.9018
vn 0.4297 -0.0032 -0.9030
vn 0.4331 -0.0061 -0.9013
vn 0.4351 0.0060 -0.9004
vn 0.9310 -0.0039 0.3651
vn 0.9320 -0.0067 0.3624
vn 0.8390 -0.0039 0.5442
vn 0.8442 -0.0035 0.5360
vn 0.8390 -0.0038 0.5442
vn 0.8448 -0.0033 0.5351
vn 0.9510 -0.0039 0.3091
vn 0.9518 -0.0055 0.3066
vn 0.9510 -0.0041 0.3090
vn 0.9097 -0.0039 0.4153
vn 0.9108 -0.0067 0.4127
vn 0.9678 -0.0039 0.2516
vn 0.9685 -0.0071 0.2488
vn 0.9678 -0.0038 0.2516
vn 0.9678 -0.0039 0.2515
vn -0.9336 -0.0041 -0.3584
vn -0.9337 -0.0039 -0.3581
vn -0.9327 -0.0052 -0.3607
vn -0.9336 -0.0039 -0.3582
vn -0.8961 -0.0040 -0.4439
vn -0.8945 -0.0061 -0.4470
vn -0.8962 0.0025 -0.4435
vn -0.8961 -0.0039 -0.4437
vn -0.9533 -0.0040 -0.3021
vn -0.9533 -0.0039 -0.3020
vn -0.9524 -0.0063 -0.3047
vn -0.9126 -0.0041 -0.4087
vn -0.9127 -0.0039 -0.4085
vn -0.9116 -0.0053 -0.4111
vn -0.9714 -0.0024 -0.2376
vn -0.9697 -0.0039 -0.2441
vn -0.9691 -0.0042 -0.2467
vn -0.9703 -0.0053 -0.2420
vn -0.0928 -0.9954 -0.0252
vn -0.0902 -0.9957 -0.0213
vn -0.0903 -0.9957 -0.0212
vn -0.0914 -0.9953 -0.0315
vn -0.0805 -0.9953 -0.0535
vn -0.0772 -0.9963 -0.0384
vn -0.0868 -0.9954 -0.0394
vn -0.0219 -0.9993 -0.0304
vn -0.0239 -0.9993 -0.0298
vn -0.0212 -0.9994 -0.0288
vn -0.0818 -0.9962 -0.0297
vn -0.0919 -0.9951 -0.0378
vn -0.0884 -0.9957 -0.0263
vn -0.0908 -0.9954 -0.0312
vn -0.9980 -0.0039 -0.0626
vn -0.9980 -0.0046 -0.0634
vn -0.9980 -0.0045 -0.0632
vn -0.9968 -0.0041 -0.0795
vn -0.9969 -0.0039 -0.0790
vn -0.9967 -0.0045 -0.0811
vn -0.9954 -0.0033 -0.0955
vn -0.9954 -0.0044 -0.0961
vn -0.9954 -0.0039 -0.0958
vn 0.9975 -0.0040 0.0704
vn 0.9975 -0.0044 0.0700
vn 0.9976 -0.0047 0.0694
vn 0.9975 -0.0039 0.0704
vn 0.9962 -0.0040 0.0868
vn 0.9964 -0.0060 0.0849
vn 0.9962 -0.0039 0.0868
vn 0.9945 -0.0035 0.1043
vn 0.9947 -0.0040 0.1031
vn 0.9946 -0.0038 0.1034
vn 0.9946 -0.0039 0.1035
vn -0.1156 -0.9113 0.3952
vn -0.1144 -0.9106 0.3971
vn -0.1149 -0.9117 0.3944
vn -0.1155 -0.9105 0.3970
vn -0.1052 -0.8172 0.5667
vn -0.1038 -0.8172 0.5669
vn -0.1030 -0.8193 0.5641
vn -0.1034 -0.8171 0.5671
vn -0.1215 -0.9875 0.1009
vn -0.1192 -0.9877 0.1011
vn -0.1207 -0.9876 0.1007
vn -0.1214 -0.9874 0.1015
vn -0.1220 -0.9573 0.2622
vn -0.1199 -0.9570 0.2642
vn -0.1210 -0.9575 0.2618
vn -0.1219 -0.9569 0.2636
vn -0.1043 -0.8154 -0.5694
vn -0.1036 -0.8170 -0.5673
vn -0.1045 -0.8166 -0.5677
vn -0.1037 -0.8145 -0.5708
vn -0.9716 -0.0038 -0.2365
vn -0.9716 -0.0039 -0.2366
vn -0.1265 -0.9920 -0.0002
vn -0.1158 -0.9933 -0.0005
vn -0.1041 -0.9946 -0.0045
vn -0.0903 -0.9959 -0.0104
vn -0.0987 -0.9951 -0.0101
vn -0.1135 -0.9935 -0.0052
vn 0.9757 -0.0035 0.2192
vn 0.9756 -0.0032 0.2194
vn 0.9758 -0.0039 0.2187
vn -0.0055 1.0000 0.0009
vn -0.0015 1.0000 0.0053
vn -0.0055 1.0000 0.0010
vn -0.0013 1.0000 0.0054
vn -0.0055 1.0000 0.0008
vn -0.0018 1.0000 0.0053
vn -0.0056 1.0000 0.0003
vn -0.0022 1.0000 0.0051
vn -0.0056 1.0000 -0.0002
vn -0.0053 1.0000 -0.0017
vn -0.0033 1.0000 0.0045
vn -0.0050 1.0000 -0.0025
vn -0.0031 1.0000 0.0046
vn -0.0049 1.0000 -0.0026
vn -0.0029 1.0000 0.0047
vn -0.0048 1.0000 -0.0027
vn -0.0027 1.0000 0.0049
vn -0.0039 1.0000 -0.0029
vn -0.0078 1.0000 0.0045
vn -0.0108 0.9999 -0.0108
vn -0.0113 0.9999 0.0008
vn -1.0000 -0.0051 -0.0070
vn -1.0000 -0.0039 -0.0044
vn -1.0000 -0.0049 -0.0066
vn -1.0000 -0.0034 -0.0034
vn -1.0000 0.0004 -0.0018
vn -1.0000 -0.0039 -0.0036
vn 0.9999 -0.0058 0.0096
vn 0.9999 -0.0061 0.0084
vn 0.9999 -0.0040 0.0123
vn 0.9999 -0.0030 0.0125
vn 0.9999 0.0018 0.0127
vn 0.9999 -0.0040 0.0115
vn 0.4336 -0.0031 0.9011
vn 0.4327 -0.0002 0.9015
vn 0.4328 -0.0021 0.9015
vn 0.4410 0.0058 0.8975
usemtl WorldGridMaterial.003
s 1
f 1/1/1 2/2/2 3/3/3
f 4/4/1 3/3/3 2/2/2
f 5/5/4 6/6/5 7/7/6
f 8/8/7 7/7/6 6/6/5
f 9/9/8 10/10/9 1/1/10
f 2/2/8 1/1/10 10/10/9
f 3/3/11 4/4/12 5/5/13
f 6/6/11 5/5/13 4/4/12
f 11/11/14 12/12/15 9/9/16
f 10/10/14 9/9/16 12/12/15
f 13/13/17 14/14/18 15/15/19
f 13/13/17 16/16/19 14/14/18
f 17/17/20 18/18/21 19/19/22
f 17/17/20 20/20/23 18/18/21
f 21/21/24 16/16/25 13/13/26
f 21/21/24 22/22/26 16/16/25
f 15/15/27 20/20/28 17/17/29
f 15/15/27 14/14/29 20/20/28
f 23/23/30 22/22/31 21/21/32
f 23/23/30 24/24/33 22/22/31
f 10/25/34 12/26/35 23/27/36
f 23/27/36 21/28/37 10/25/34
f 8/29/38 6/30/39 17/31/40
f 17/31/41 19/32/42 8/29/43
f 6/30/39 4/33/44 15/34/45
f 15/34/45 17/31/40 6/30/39
f 4/33/44 2/35/46 13/36/47
f 13/36/47 15/34/45 4/33/44
f 2/35/46 10/25/34 21/28/37
f 21/28/37 13/36/47 2/35/46
f 25/37/48 26/38/49 27/39/50
f 27/39/50 26/38/49 28/40/51
f 29/41/52 25/37/53 30/42/54
f 25/37/53 29/41/52 26/38/55
f 31/43/56 27/39/57 28/40/58
f 28/40/58 32/44/59 31/43/56
f 33/45/60 34/46/61 35/47/62
f 34/46/61 36/48/63 35/47/62
f 37/49/64 33/45/65 38/50/66
f 33/45/65 35/47/67 38/50/66
f 36/48/68 34/46/69 39/51/70
f 39/51/70 40/52/71 36/48/68
f 33/53/72 37/54/73 30/55/74
f 30/55/74 25/56/75 33/53/72
f 39/57/76 34/58/77 27/59/78
f 27/59/78 31/60/79 39/57/76
f 34/58/80 33/53/81 25/56/82
f 25/56/82 27/59/83 34/58/80
f 23/23/30 31/43/84 32/44/85
f 32/44/85 24/24/33 23/23/30
f 12/26/86 39/57/87 31/60/88
f 31/60/89 23/27/90 12/26/91
f 12/12/92 11/11/93 40/52/94
f 40/52/94 39/51/95 12/12/92
f 38/61/96 35/62/97 29/63/98
f 26/64/99 29/63/98 35/62/97
f 35/62/97 36/65/100 26/64/99
f 28/66/101 26/64/99 36/65/100
f 28/66/101 36/65/100 40/67/102
f 32/68/103 28/66/101 40/67/102
f 32/68/103 40/67/102 11/69/104
f 11/69/104 24/70/105 32/68/103
f 9/71/106 24/70/105 11/69/104
f 24/70/105 9/71/106 22/72/107
f 1/73/108 22/72/107 9/71/106
f 22/72/107 1/73/108 16/74/109
f 3/75/110 16/74/109 1/73/108
f 16/74/109 3/75/110 14/76/111
f 5/77/112 14/76/111 3/75/110
f 14/76/111 5/77/112 20/78/113
f 7/79/114 20/78/113 5/77/112
f 20/78/115 7/79/116 18/80/117
f 7/7/118 8/8/119 19/81/120 18/82/121
usemtl WorldGridMaterial.002
f 41/83/122 42/84/123 43/85/122
f 44/86/122 43/85/122 42/84/123
f 45/87/124 46/88/125 47/89/126
f 48/90/127 47/89/126 46/88/125
f 49/91/128 41/83/129 50/92/130
f 43/85/128 50/92/130 41/83/129
f 42/84/131 45/87/132 44/86/131
f 47/89/131 44/86/131 45/87/132
f 51/93/133 49/91/134 52/94/135
f 50/92/136 52/94/135 49/91/134
f 53/95/137 54/96/138 55/97/139
f 53/95/137 55/97/139 56/98/140
f 57/99/141 58/100/142 59/101/143
f 57/99/141 59/101/143 60/102/144
f 61/103/145 53/95/146 56/98/147
f 61/103/145 56/98/147 62/104/146
f 54/96/148 57/99/149 60/102/150
f 54/96/148 60/102/150 55/97/149
f 63/105/151 61/103/152 62/104/153
f 63/105/151 62/104/153 64/106/154
f 50/107/155 63/108/156 52/109/157
f 63/108/156 50/107/155 61/110/158
f 48/111/159 57/112/160 47/113/161
f 57/112/162 48/111/163 58/114/164
f 47/113/161 54/115/165 44/116/166
f 54/115/165 47/113/161 57/112/160
f 44/116/166 53/117/167 43/118/168
f 53/117/167 44/116/166 54/115/165
f 43/118/168 61/110/158 50/107/155
f 61/110/158 43/118/168 53/117/167
f 65/119/169 66/120/170 67/121/171
f 66/120/170 68/122/169 67/121/171
f 69/123/172 70/124/173 65/119/174
f 65/119/174 67/121/173 69/123/172
f 71/125/175 68/122/176 66/120/177
f 68/122/176 71/125/175 72/126/177
f 73/127/178 74/128/179 75/129/180
f 75/129/180 74/128/179 76/130/181
f 77/131/182 78/132/183 73/127/183
f 73/127/183 78/132/183 74/128/184
f 76/130/185 79/133/186 75/129/187
f 79/133/186 76/130/185 80/134/188
f 73/135/189 70/136/190 77/137/191
f 70/136/190 73/135/189 65/138/192
f 77/137/193 81/139/194 82/140/195
f 81/139/194 77/137/193 70/136/196
f 79/141/197 66/142/198 75/143/199
f 66/142/198 79/141/197 71/144/200
f 75/143/201 65/138/202 73/135/203
f 65/138/202 75/143/201 66/142/204
f 82/140/205 30/55/206 37/54/207
f 30/55/206 82/140/205 81/139/208
f 63/105/151 72/126/209 71/125/210
f 72/126/209 63/105/151 64/106/154
f 52/109/211 71/144/212 79/141/213
f 71/144/214 52/109/215 63/108/216
f 52/94/217 80/134/218 51/93/219
f 80/134/218 52/94/217 79/133/219
f 38/61/96 29/63/98 83/145/220
f 84/146/221 83/145/220 29/63/98
f 83/145/220 84/146/221 78/147/222
f 69/148/223 78/147/222 84/146/221
f 78/147/222 69/148/223 74/149/224
f 67/150/225 74/149/224 69/148/223
f 74/149/224 67/150/225 76/151/226
f 68/152/227 76/151/226 67/150/225
f 68/152/227 80/153/228 76/151/226
f 72/154/227 80/153/228 68/152/227
f 72/154/227 51/155/229 80/153/228
f 51/155/229 72/154/227 64/156/230
f 49/157/231 51/155/229 64/156/230
f 64/156/230 62/158/232 49/157/231
f 41/159/233 49/157/231 62/158/232
f 62/158/232 56/160/234 41/159/233
f 42/161/235 41/159/233 56/160/234
f 56/160/234 55/162/236 42/161/235
f 45/163/237 42/161/235 55/162/236
f 55/162/236 60/164/238 45/163/237
f 46/165/239 45/163/237 60/164/238
f 60/164/238 59/166/240 46/165/239
f 70/124/241 69/123/242 84/167/243
f 84/167/243 81/168/244 70/124/241
f 81/168/244 84/167/243 30/42/245
f 30/42/245 84/167/243 29/41/246
f 77/131/247 83/169/248 78/132/249
f 82/170/250 83/169/248 77/131/247
f 83/169/248 82/170/250 37/49/251
f 37/49/251 38/50/252 83/169/248
f 46/88/253 59/171/254 58/172/255 48/90/256
