# Blender v2.79 (sub 0) OBJ File: 'Stairs_SpBackup190221.blend'
# www.blender.org
mtllib StairsFinal_SP_lights.mtl
o Plane
v 0.212508 0.680266 1.937410
v 0.212508 0.597243 1.937410
v -0.568730 0.680266 0.567917
v -0.568730 0.597243 0.567917
vn 0.8686 0.0000 -0.4955
usemtl None
s off
f 1//1 2//1 4//1 3//1
o Plane.001
v -0.221929 1.114395 2.174057
v -0.221929 1.031373 2.174057
v -0.866635 1.114395 0.735239
v -0.866635 1.031373 0.735239
vn 0.9126 0.0000 -0.4089
usemtl None
s off
f 5//2 6//2 8//2 7//2
o Plane.002
v -0.704990 1.554969 2.379162
v -0.704990 1.476607 2.379162
v -1.180844 1.554969 0.876030
v -1.180844 1.476607 0.876030
vn 0.9534 0.0000 -0.3018
usemtl None
s off
f 9//3 10//3 12//3 11//3
o Plane.003
v -1.201124 1.992859 2.521017
v -1.201124 1.919539 2.521017
v -1.505257 1.992859 0.973972
v -1.505257 1.919539 0.973972
vn 0.9812 0.0000 -0.1929
usemtl None
s off
f 13//4 14//4 16//4 15//4
o Plane.004
v -1.702545 2.440492 2.614540
v -1.702545 2.367172 2.614540
v -1.833752 2.440492 1.043353
v -1.833752 2.367172 1.043353
vn 0.9965 0.0000 -0.0832
usemtl None
s off
f 17//5 18//5 20//5 19//5
o Plane.005
v -2.214163 2.882075 2.647974
v -2.214163 2.808754 2.647974
v -2.170410 2.882075 1.071926
v -2.170410 2.808754 1.071926
vn 0.9996 0.0000 0.0278
usemtl None
s off
f 21//6 22//6 24//6 23//6
o Plane.006
v -2.717485 3.324506 2.620474
v -2.717485 3.251185 2.620474
v -2.509116 3.324506 1.057648
v -2.509116 3.251185 1.057648
vn 0.9912 0.0000 0.1322
usemtl None
s off
f 25//7 26//7 28//7 27//7
o Plane.007
v -3.235360 3.768466 2.540011
v -3.235360 3.695146 2.540011
v -2.843727 3.768466 1.012769
v -2.843727 3.695146 1.012769
vn 0.9687 0.0000 0.2484
usemtl None
s off
f 29//8 30//8 32//8 31//8
o Plane.008
v -3.727357 4.194637 2.399459
v -3.727357 4.121317 2.399459
v -3.174271 4.194637 0.922997
v -3.174271 4.121317 0.922997
vn 0.9365 0.0000 0.3508
usemtl None
s off
f 33//9 34//9 36//9 35//9
o Plane.009
v -4.202545 4.641575 2.210355
v -4.202545 4.568255 2.210355
v -3.488487 4.641575 0.804664
v -3.488487 4.568255 0.804664
vn 0.8916 0.0000 0.4529
usemtl None
s off
f 37//10 38//10 40//10 39//10
o Plane.010
v -4.662599 5.080336 1.966475
v -4.662599 5.007015 1.966475
v -3.792500 5.080336 0.651647
v -3.792500 5.007015 0.651647
vn 0.8339 0.0000 0.5519
usemtl None
s off
f 41//11 42//11 44//11 43//11
o Plane.011
v -5.083296 5.527494 1.680343
v -5.083296 5.454174 1.680343
v -4.080203 5.527494 0.463935
v -4.080203 5.454174 0.463935
vn 0.7715 0.0000 0.6362
usemtl None
s off
f 45//12 46//12 48//12 47//12
o Plane.012
v -5.467878 5.973194 1.350803
v -5.467878 5.899874 1.350803
v -4.343420 5.973194 0.245616
v -4.343420 5.899874 0.245616
vn 0.7010 0.0000 0.7132
usemtl None
s off
f 49//13 50//13 52//13 51//13
o Plane.013
v -5.818818 6.414139 0.980846
v -5.818818 6.340819 0.980846
v -4.582887 6.414139 0.001907
v -4.582887 6.340819 0.001907
vn 0.6209 0.0000 0.7839
usemtl None
s off
f 53//14 54//14 56//14 55//14
