# Blender v2.79 (sub 0) OBJ File: 'StairsFinal_SP.blend'
# www.blender.org
mtllib StairsFinal_SP_FrontPanels.mtl
o StairsFinal_SP_FrontPanels.001_GateRoom_newstairshalfcircle_9.003_GateRoom_newstairshalfci.015
v -4.563552 6.422935 0.003889
v -4.563553 6.325560 0.003889
v -5.816863 6.422939 1.008963
v -5.816864 6.325564 1.008963
v -4.323521 5.979243 0.245089
v -4.323521 5.881869 0.245089
v -5.466192 5.979248 1.374365
v -5.466192 5.881873 1.374365
v -4.059603 5.535553 0.460461
v -4.059604 5.438178 0.460461
v -5.078404 5.535554 1.702639
v -5.078405 5.438180 1.702639
v -3.773241 5.095332 0.645943
v -3.773242 4.997958 0.645943
v -4.652862 5.095335 1.990275
v -4.652863 4.997961 1.990275
v -3.470275 4.657086 0.799748
v -3.470276 4.559712 0.799748
v -4.197372 4.559711 2.232330
v -4.197371 4.657089 2.232330
v -3.151827 4.214531 0.918972
v -3.151827 4.117157 0.918972
v -3.721486 4.117157 2.421121
v -3.721486 4.214530 2.421120
v -2.825075 3.774789 1.001802
v -2.825075 3.677414 1.001802
v -3.224120 3.774790 2.557991
v -3.224121 3.677416 2.557991
v -2.491608 3.335046 1.047915
v -2.491609 3.237672 1.047914
v -2.715886 3.335047 2.638719
v -2.715887 3.237673 2.638722
v -2.154994 2.893569 1.056751
v -2.154995 2.796195 1.056751
v -2.202384 2.893569 2.662592
v -2.202384 2.796195 2.662591
v -1.820570 2.450434 1.027668
v -1.820571 2.353060 1.027667
v -1.688336 2.353059 2.628753
v -1.688336 2.450433 2.628753
v -1.490141 2.008988 0.961639
v -1.490141 1.911614 0.961638
v -1.181033 2.008986 2.538158
v -1.181034 1.911613 2.538158
v -1.167939 1.567543 0.858826
v -1.167940 1.470169 0.858826
v -0.683535 1.470167 2.390594
v -0.683535 1.567541 2.390594
v -0.857949 1.122635 0.721153
v -0.857949 1.025260 0.721153
v -0.198207 1.122632 2.185974
v -0.198207 1.025257 2.185974
v -0.563022 0.686752 0.549355
v -0.563023 0.589378 0.549355
v 0.240879 0.686750 1.940293
v 0.240878 0.589375 1.940293
vt 0.999995 0.000000
vt 0.000005 0.000000
vt 0.000000 1.000000
vt 1.000000 1.000000
vt 0.000000 0.999999
vt 0.000005 0.000000
vt 0.999995 0.000000
vt 1.000000 1.000000
vt 0.000000 1.000000
vt 0.000010 0.000000
vt 1.000000 0.000000
vt 1.000000 1.000000
vt 0.000005 0.000000
vt 1.000000 0.000000
vt 0.999995 0.999999
vt 0.000000 1.000000
vt 0.000029 0.000000
vt 0.999995 0.000000
vt 1.000000 1.000000
vt 0.000000 1.000000
vt 0.999995 1.000000
vt 0.000000 1.000000
vt 0.000010 0.000000
vt 1.000000 0.000000
vt 1.000000 1.000000
vt 0.000000 1.000000
vt 0.000012 0.000000
vt 1.000000 0.000000
vt 1.000000 0.000000
vt 1.000000 1.000000
vt 0.000002 0.999999
vt 0.000000 0.000002
vt 0.000000 1.000000
vt 0.000000 0.000000
vt 1.000000 0.000000
vt 1.000000 1.000000
vt 0.000000 0.000000
vt 0.998124 0.000000
vt 0.998124 1.000000
vt 0.000000 1.000000
vt 1.000000 0.000001
vt 0.999993 1.000000
vt 0.000002 1.000000
vt 0.000000 0.000000
vt 0.999999 1.000000
vt 0.000001 1.000000
vt 0.000000 0.000000
vt 1.000000 0.000000
vt 0.999999 0.000000
vt 1.000000 1.000000
vt 0.000001 1.000000
vt 0.000000 0.000000
vt 1.000125 0.012997
vt 1.000125 0.996106
vt -0.000722 0.996055
vt -0.000722 0.013001
vn 0.6286 0.0009 0.7777
vn 0.6164 -0.0010 0.7875
vn 0.6242 -0.0041 0.7813
vn 0.6240 -0.0040 0.7814
vn 0.6945 0.0068 0.7195
vn 0.7057 0.0043 0.7085
vn 0.6945 -0.0043 0.7195
vn 0.7657 -0.0000 0.6432
vn 0.7757 -0.0002 0.6312
vn 0.7657 0.0001 0.6432
vn 0.7756 -0.0002 0.6312
vn 0.8389 0.0040 0.5442
vn 0.8303 -0.0040 0.5573
vn 0.8302 0.0070 0.5574
vn 0.8935 -0.0015 0.4491
vn 0.8863 -0.0057 0.4631
vn 0.8911 -0.0039 0.4538
vn 0.8911 -0.0039 0.4537
vn 0.9346 -0.0039 0.3558
vn 0.9364 -0.0015 0.3509
vn 0.9308 -0.0056 0.3656
vn 0.9696 0.0036 0.2446
vn 0.9657 -0.0036 0.2597
vn 0.9656 0.0063 0.2598
vn 0.9885 0.0025 0.1513
vn 0.9908 -0.0010 0.1357
vn 0.9885 0.0010 0.1512
vn 0.9907 -0.0025 0.1358
vn 0.9992 0.0010 0.0412
vn 0.9997 -0.0017 0.0255
vn 0.9991 0.0017 0.0413
vn 0.9997 -0.0010 0.0256
vn 0.9963 -0.0034 -0.0862
vn 0.9975 -0.0044 -0.0706
vn 0.9966 -0.0039 -0.0825
vn 0.9835 -0.0032 -0.1809
vn 0.9797 -0.0035 -0.2002
vn 0.9798 -0.0039 -0.2000
vn 0.9805 0.0033 -0.1962
vn 0.9515 -0.0036 -0.3077
vn 0.9515 -0.0039 -0.3075
vn 0.9523 0.0010 -0.3052
vn 0.9569 -0.0009 -0.2903
vn 0.9165 -0.0000 -0.4000
vn 0.9102 0.0028 -0.4142
vn 0.9166 0.0045 -0.3998
vn 0.9102 0.0000 -0.4142
vn 0.8638 0.0042 -0.5037
vn 0.8716 0.0028 -0.4901
vn 0.8638 0.0008 -0.5038
vn 0.8716 -0.0008 -0.4902
usemtl Material.002
s 1
f 2/1/1 1/2/2 3/3/3 4/4/4
f 8/5/5 6/6/6 5/7/7 7/8/6
f 9/9/8 11/10/9 12/11/10 10/12/11
f 14/13/12 13/14/13 15/15/12 16/16/14
f 18/17/15 17/18/16 20/19/17 19/20/18
f 24/21/19 23/22/19 22/23/20 21/24/21
f 26/25/22 25/26/23 27/27/22 28/28/24
f 32/29/25 30/30/26 29/31/27 31/32/28
f 33/33/29 35/34/30 36/35/31 34/36/32
f 38/37/33 37/38/34 40/39/35 39/40/35
f 41/41/36 43/42/37 44/43/38 42/44/39
f 48/45/40 47/46/41 46/47/42 45/48/43
f 49/49/44 51/50/45 52/51/46 50/52/47
f 55/53/48 56/54/49 54/55/50 53/56/51
