# Blender v2.79 (sub 0) OBJ File: ''
# www.blender.org
mtllib TuckLightNEWMERGED050121.mtl
o BezierCircle.000_CUBezierCircle.000
v 0.561241 0.534421 -2.202349
v -0.499656 0.534298 -2.202344
v 2.742125 0.525715 1.835756
v -2.747648 0.525446 1.835766
v 0.823324 0.024447 -2.632949
v -0.721761 0.024300 -2.632942
v 3.148518 0.022253 1.340756
v -3.153993 0.021944 1.340768
v 0.616277 -1.072613 -2.502365
v -0.521374 -1.072752 -2.502359
v 3.003909 -1.074703 1.340756
v -3.009277 -1.074998 1.340767
v 0.561241 0.764825 -2.202537
v -0.499656 0.764701 -2.202531
v 2.742126 0.769578 1.835756
v -2.747673 0.769309 1.835766
v 0.373800 0.764747 -1.401765
v -0.316432 0.764657 -1.401760
v 1.710631 0.763392 1.821672
v -1.712406 0.763203 1.821679
v 5.073348 -1.074703 2.272880
v 4.558893 0.769579 2.272839
v 4.071915 0.769579 1.835757
v 4.558893 0.525716 2.272839
v 4.071915 -1.074703 1.340756
v 4.071915 0.022253 1.340756
v 5.073347 0.022253 2.272879
v 4.071915 0.525716 1.835757
v 2.742120 0.769576 9.726593
v 1.926980 0.763390 9.674208
v 5.073342 -1.074705 9.775747
v 4.558887 0.769577 9.775706
v 4.071908 0.769577 9.726595
v 4.558887 0.525714 9.775706
v 5.073342 0.022252 9.775747
v -5.078712 -1.075201 2.272899
v -4.564438 0.769131 2.272856
v -4.077461 0.769179 1.835772
v -4.564415 0.525268 2.272856
v -4.077283 -1.075103 1.340772
v -4.077390 0.021854 1.340772
v -5.078819 0.021756 2.272899
v -4.077437 0.525316 1.835772
v -2.747652 0.769307 9.726603
v -1.932511 0.763201 9.674215
v -5.078693 -1.075203 9.775766
v -4.564420 0.769129 9.775723
v -4.077441 0.769177 9.726610
v -4.564396 0.525266 9.775723
v -5.078800 0.021754 9.775766
vn -0.6124 0.7055 -0.3567
vn 0.0000 -0.1182 -0.9930
vn -0.0001 0.6451 -0.7641
vn 0.6100 0.7148 -0.3421
vn -0.8350 -0.1626 -0.5257
vn 0.8445 -0.1657 -0.5093
vn 0.8799 -0.0002 -0.4752
vn -0.0000 -0.0008 -1.0000
vn -0.8737 -0.0002 -0.4864
vn 0.0000 0.0000 -1.0000
vn -0.0036 1.0000 0.0004
vn -0.0021 1.0000 0.0008
vn -0.0025 1.0000 0.0009
vn -0.0053 1.0000 0.0009
vn 0.0013 1.0000 0.0006
vn 0.0023 1.0000 0.0010
vn 0.0035 1.0000 0.0004
vn 0.0051 1.0000 0.0009
vn 0.6813 0.0000 -0.7320
vn 0.6680 -0.0000 -0.7442
vn 0.5526 0.5777 -0.6008
vn 0.0000 0.7011 -0.7131
vn -0.0000 1.0000 0.0000
vn 0.6994 0.7147 0.0000
vn -0.0033 1.0000 0.0000
vn 1.0000 0.0000 0.0000
vn -0.0067 1.0000 0.0001
vn -0.6813 -0.0001 -0.7320
vn -0.6680 -0.0001 -0.7442
vn -0.5527 0.5776 -0.6008
vn -0.0001 0.7011 -0.7131
vn -0.0001 1.0000 0.0000
vn -0.6995 0.7146 0.0000
vn 0.0032 1.0000 0.0000
vn -1.0000 -0.0001 0.0000
vn 0.0066 1.0000 0.0001
usemtl None
s 1
f 4//1 2//1 6//1 8//1
f 6//2 5//2 9//2 10//2
f 2//3 1//3 5//3 6//3
f 1//4 3//4 7//4 5//4
f 8//5 6//5 10//5 12//5
f 5//6 7//6 11//6 9//6
f 3//7 1//7 13//7 15//7
f 1//8 2//8 14//8 13//8
f 2//9 4//9 16//9 14//9
f 11//10 7//10 26//10 25//10
f 15//11 13//12 17//13 19//14
f 13//12 14//15 18//16 17//13
f 14//15 16//17 20//18 18//16
f 25//19 26//19 27//19 21//19
f 28//20 23//20 22//20 24//20
f 26//21 28//21 24//21 27//21
f 7//22 3//22 28//22 26//22
f 3//10 15//10 23//10 28//10
f 22//23 23//23 33//23 32//23
f 27//24 24//24 34//24 35//24
f 23//23 15//11 29//25 33//23
f 21//26 27//26 35//26 31//26
f 15//11 19//14 30//27 29//25
f 24//26 22//26 32//26 34//26
f 12//10 40//10 41//10 8//10
f 40//28 36//28 42//28 41//28
f 43//29 39//29 37//29 38//29
f 41//30 42//30 39//30 43//30
f 8//31 41//31 43//31 4//31
f 4//10 43//10 38//10 16//10
f 37//32 47//32 48//32 38//32
f 42//33 50//33 49//33 39//33
f 38//32 48//32 44//34 16//17
f 36//35 46//35 50//35 42//35
f 16//17 44//34 45//36 20//18
f 39//35 49//35 47//35 37//35
o BezierCircle.001_CUBezierCircle.001
v 0.059950 13.585654 1.416453
v 0.060156 12.618443 1.462095
v 0.059743 11.569920 1.444945
v 0.072509 10.452251 1.363994
v 0.085854 9.277596 1.218229
v 0.075209 8.058125 1.006640
v 0.084233 6.805992 0.728214
v 0.072034 5.572743 0.393002
v 0.077495 4.408278 0.016000
v 0.081578 3.322288 -0.396387
v 0.096576 2.324473 -0.837746
v 0.234381 1.424526 -1.301672
v 0.390471 0.632144 -1.781755
v 0.003200 13.585651 1.416453
v 0.002982 12.618430 1.462096
v 0.003541 11.569899 1.444948
v -0.009205 10.452222 1.363997
v -0.022528 9.277560 1.218234
v -0.011907 8.058073 1.006645
v -0.020915 6.805932 0.728221
v -0.008727 5.572674 0.393010
v -0.014176 4.408198 0.016008
v -0.018249 3.322200 -0.396376
v -0.033219 2.324377 -0.837735
v -0.170959 1.424424 -1.301660
v -0.327023 0.632035 -1.781742
v -0.446261 -0.043090 -2.271574
v 0.489176 14.328351 2.439336
v 0.613371 12.954669 2.846030
v 0.749884 11.945051 3.041937
v 0.897168 10.855303 3.237616
v 1.053672 9.695124 3.372984
v 1.217847 8.475770 3.439202
v 1.388144 7.209439 3.458178
v 1.557592 5.947867 3.426123
v 1.719295 4.742746 3.355727
v 1.871815 3.604169 3.226998
v 2.013713 2.544568 3.096812
v 2.143551 1.572012 2.878564
v 2.259889 0.701431 2.711118
v -0.422774 14.327750 2.439354
v -0.547361 12.954127 2.846046
v -0.684308 11.944575 3.041951
v -0.832059 10.854897 3.237628
v -0.989060 9.694794 3.372993
v -1.153757 8.475521 3.439209
v -1.324594 7.209270 3.458183
v -1.494581 5.947779 3.426126
v -1.656798 4.742735 3.355726
v -1.809803 3.604231 3.226995
v -1.952151 2.544698 3.096808
v -2.082401 1.572206 2.878557
v -2.199108 0.701680 2.711109
v -2.300831 -0.057102 2.564224
v 0.005520 14.521128 1.318536
v 0.057462 14.521132 1.318536
v -0.276658 15.565302 1.916919
v 0.341045 15.565904 1.916901
v 0.059950 13.585654 1.416453
v 0.060156 12.618443 1.462095
v 0.059743 11.569920 1.444945
v 0.072509 10.452251 1.363994
v 0.085854 9.277596 1.218229
v 0.075209 8.058125 1.006639
v 0.084233 6.805992 0.728214
v 0.072034 5.572743 0.393002
v 0.077495 4.408278 0.015999
v 0.081578 3.322288 -0.396387
v 0.096576 2.324473 -0.837746
v 0.234381 1.424526 -1.301672
v 0.390471 0.632144 -1.781755
v 0.509732 -0.042978 -2.271587
v 0.003200 13.585651 1.416453
v 0.002982 12.618430 1.462096
v 0.003541 11.569899 1.444948
v -0.009205 10.452223 1.363997
v -0.022528 9.277560 1.218233
v -0.011907 8.058073 1.006645
v -0.020915 6.805932 0.728221
v -0.008727 5.572674 0.393010
v -0.014176 4.408198 0.016008
v -0.018249 3.322200 -0.396376
v -0.033219 2.324377 -0.837735
v -0.170959 1.424424 -1.301660
v -0.327023 0.632035 -1.781742
v -0.446261 -0.043090 -2.271574
v 2.259889 0.701431 2.711118
v 2.361289 -0.057400 2.564234
v -2.300831 -0.057102 2.564224
v 0.005520 14.521128 1.318536
v 0.057462 14.521132 1.318536
v -0.276658 15.565302 1.916919
v 0.341045 15.565904 1.916901
vn 0.8735 0.2941 -0.3879
vn 0.8703 0.2877 -0.3999
vn 0.8686 0.2845 -0.4057
vn -0.8821 0.2947 -0.3675
vn -0.8868 0.2947 -0.3560
vn -0.8795 0.2946 -0.3736
vn -0.9302 -0.0277 -0.3659
vn -0.9251 0.0061 -0.3798
vn -0.9255 0.0035 -0.3787
vn -0.9306 -0.0321 -0.3647
vn 0.9244 0.0057 -0.3813
vn 0.9294 -0.0280 -0.3679
vn 0.9297 -0.0323 -0.3669
vn 0.9249 0.0031 -0.3802
vn -0.9159 0.0376 -0.3996
vn -0.9166 0.0363 -0.3982
vn 0.9155 0.0373 -0.4006
vn 0.9161 0.0360 -0.3993
vn -0.9090 0.0586 -0.4127
vn -0.9095 0.0565 -0.4119
vn 0.9087 0.0584 -0.4134
vn 0.9092 0.0563 -0.4126
vn -0.9311 -0.0399 -0.3627
vn -0.9026 0.0766 -0.4237
vn -0.9033 0.0750 -0.4224
vn 0.9024 0.0764 -0.4241
vn 0.9031 0.0748 -0.4228
vn -0.8949 0.0984 -0.4353
vn -0.8959 0.0951 -0.4339
vn 0.8948 0.0983 -0.4355
vn 0.8958 0.0949 -0.4341
vn -0.8887 0.1167 -0.4434
vn -0.8893 0.1150 -0.4425
vn 0.8887 0.1165 -0.4434
vn 0.8893 0.1148 -0.4426
vn -0.8835 0.1374 -0.4478
vn -0.8843 0.1337 -0.4473
vn 0.8836 0.1372 -0.4477
vn 0.8844 0.1335 -0.4472
vn -0.8790 0.1620 -0.4484
vn -0.8796 0.1582 -0.4486
vn 0.8792 0.1617 -0.4482
vn 0.8798 0.1580 -0.4484
vn -0.8768 0.1830 -0.4447
vn -0.8770 0.1798 -0.4456
vn 0.8770 0.1827 -0.4445
vn 0.8772 0.1795 -0.4453
vn -0.8694 0.2450 -0.4291
vn -0.8716 0.2296 -0.4331
vn 0.8696 0.2448 -0.4288
vn 0.8718 0.2293 -0.4328
vn -0.8700 0.2880 -0.4002
vn -0.8683 0.2848 -0.4061
vn 0.9301 -0.0398 -0.3651
vn -0.0004 0.3080 -0.9514
vn -0.0000 -0.0471 -0.9989
vn -0.0004 0.3550 -0.9349
vn -0.0000 0.0164 -0.9999
vn -0.0004 0.4045 -0.9145
vn -0.0001 0.0722 -0.9974
vn -0.0002 0.4582 -0.8888
vn -0.0001 0.1231 -0.9924
vn -0.0001 0.5182 -0.8553
vn -0.0001 0.1710 -0.9853
vn -0.0001 0.5873 -0.8094
vn -0.0002 0.2171 -0.9762
vn -0.0003 0.2623 -0.9650
vn -0.0000 -1.0000 -0.0029
vn 0.8871 0.2944 -0.3556
vn -0.0005 0.4971 -0.8677
vn -0.0000 -0.1041 -0.9946
usemtl None
s 1
f 63//37 62//38 89//39 90//37
f 76//40 77//41 104//41 103//42
f 64//43 65//44 92//45 91//46
f 52//47 51//48 78//49 79//50
f 65//44 66//51 93//52 92//45
f 53//53 52//47 79//50 80//54
f 66//51 67//55 94//56 93//52
f 54//57 53//53 80//54 81//58
f 64//43 91//46 107//59 105//59
f 67//55 68//60 95//61 94//56
f 55//62 54//57 81//58 82//63
f 68//60 69//64 96//65 95//61
f 56//66 55//62 82//63 83//67
f 69//64 70//68 97//69 96//65
f 57//70 56//66 83//67 84//71
f 70//68 71//72 98//73 97//69
f 58//74 57//70 84//71 85//75
f 71//72 72//76 99//77 98//73
f 59//78 58//74 85//75 86//79
f 72//76 73//80 100//81 99//77
f 60//82 59//78 86//79 87//83
f 73//80 74//84 101//85 100//81
f 61//86 60//82 87//83 88//87
f 74//84 75//88 102//89 101//85
f 62//38 61//86 88//87 89//39
f 75//88 76//40 103//42 102//89
f 78//49 51//48 106//90 108//90
f 116//91 117//91 131//91 130//91
f 109//92 110//92 124//92 123//92
f 117//93 118//93 132//93 131//93
f 110//94 111//94 125//94 124//94
f 118//95 119//95 133//95 132//95
f 111//96 112//96 126//96 125//96
f 119//97 120//97 134//97 133//97
f 112//98 113//98 127//98 126//98
f 120//99 121//99 135//99 134//99
f 113//100 114//100 128//100 127//100
f 121//101 122//101 136//101 135//101
f 114//102 115//102 129//102 128//102
f 115//103 116//103 130//103 129//103
f 136//104 122//104 138//104 139//104
f 122//105 121//105 137//105 138//105
f 141//106 140//106 142//106 143//106
f 109//107 123//107 140//107 141//107
o BezierCircle.002_CUBezierCircle.002
v -1.666863 0.701996 2.115655
v -1.592311 1.545586 2.332486
v -1.506757 2.277069 2.517115
v -1.411276 3.092728 2.680869
v -1.306925 3.983510 2.821187
v -1.194763 4.940366 2.935508
v -1.075847 5.954243 3.021271
v -0.951235 7.016094 3.075916
v -0.825999 8.082690 3.096423
v -0.705266 9.563345 3.111348
v -0.590172 10.541729 3.030597
v -0.481860 11.460994 2.921581
v -0.381467 12.311514 2.786541
v -0.290167 13.469340 2.536026
v -0.181241 15.159063 1.947545
v -1.191504 9.098367 3.040091
v -1.804657 4.158864 2.839964
v -2.058915 2.091311 2.490834
v -1.937478 3.080677 2.683541
v -2.256119 0.177008 1.999169
v -0.890574 11.515644 2.864969
v -0.751985 12.613182 2.670338
v 1.667848 1.545739 2.332489
v 1.582231 2.277211 2.517118
v 1.486678 3.092859 2.680872
v 1.382251 3.983629 2.821190
v 1.270006 4.940472 2.935511
v 1.151003 5.954336 3.021274
v 1.026300 7.016174 3.075918
v 0.900973 8.082754 3.096424
v 0.780151 9.563394 3.111349
v 0.664974 10.541767 3.030598
v 0.556583 11.461019 2.921582
v 0.456119 12.311528 2.786541
v 0.364720 13.469344 2.536027
v 0.255706 15.159054 1.947545
v 1.584083 6.537555 3.031229
v 1.114911 10.345897 3.022633
v 1.876421 4.158445 2.839958
v 1.734572 5.314606 2.956917
v 2.324383 0.176066 1.999157
v 0.703481 13.627567 2.442325
v 0.560628 15.000877 2.037098
v 0.831169 12.613987 2.670343
v -0.394346 14.677053 2.926659
v -0.514672 13.373202 3.341055
v -0.646980 12.411246 3.579671
v -0.789725 11.368402 3.787959
v -0.941408 10.255489 3.962260
v -1.100523 9.066422 4.003725
v -1.265571 7.843941 4.047961
v -1.429798 6.623985 4.046023
v -1.586517 5.456292 3.999062
v -1.734337 4.351433 3.909905
v -1.871862 3.319985 3.781384
v -1.997697 2.372525 3.616329
v -2.110449 1.519630 3.417571
v -2.208701 0.535689 3.183107
v -0.250793 15.846146 2.453411
v -1.741610 6.549756 4.074980
v -1.510229 6.537633 3.031232
v -1.198432 10.356559 3.987802
v -1.037715 10.345427 3.022631
v -1.558927 7.828607 4.077072
v -1.351312 7.816169 3.059714
v -1.375220 9.110125 4.030993
v -2.080069 4.167547 3.932843
v -1.661792 5.314859 2.956922
v -1.915839 5.325709 4.025921
v -2.372352 2.093230 3.626455
v -2.232754 3.086360 3.798703
v -2.599047 0.169190 3.174399
v -2.167623 1.201797 2.265024
v -2.497316 1.199245 3.419049
v -0.722167 13.625073 3.339901
v -0.623410 13.626613 2.442319
v -0.465710 14.999804 2.037092
v -0.562707 14.989634 2.907626
v -0.406653 15.922071 2.418043
v -0.348101 15.825973 1.666026
v -1.029287 11.523274 3.806023
v -0.869972 12.616561 3.588785
v 1.742472 0.702156 2.115659
v 0.468729 14.677057 2.926659
v 0.589184 13.373218 3.341055
v 0.721586 12.411276 3.579671
v 0.864435 11.368445 3.787958
v 1.016226 10.255547 3.962259
v 1.175458 9.066496 4.003724
v 1.340627 7.844031 4.047958
v 1.504973 6.624091 4.046020
v 1.661808 5.456413 3.999058
v 1.809736 4.351569 3.909901
v 1.947361 3.320134 3.781379
v 2.073289 2.372689 3.616324
v 2.186125 1.519805 3.417565
v 2.284472 0.535873 3.183100
v 0.325059 15.846136 2.453412
v 1.815320 6.549679 4.074979
v 1.275984 10.357031 3.987794
v 1.633926 7.828714 4.077068
v 1.426288 7.816277 3.059711
v 1.267606 9.098658 3.040091
v 1.451513 9.110417 4.030987
v 2.151376 4.167129 3.932845
v 1.988314 5.325456 4.025920
v 2.441570 2.092516 3.626460
v 2.128863 2.090597 2.490824
v 2.008296 3.080102 2.683532
v 2.302972 3.085786 3.798707
v 2.666330 0.168245 3.174407
v 2.236788 1.200956 2.265014
v 2.565635 1.198404 3.419056
v 0.803025 13.626026 3.339888
v 0.644947 14.990707 2.907612
v 0.489967 15.923298 2.418026
v 0.430283 15.827211 1.666034
v 1.108018 11.523916 3.806013
v 0.968796 11.516287 2.864972
v 0.949809 12.617366 3.588773
vn -0.0360 0.2529 -0.9668
vn -0.0332 0.2503 -0.9676
vn -0.0394 0.2533 -0.9666
vn 0.1610 -0.0171 -0.9868
vn -0.0367 0.2494 -0.9677
vn 0.0696 -0.1184 -0.9905
vn -0.0144 0.1954 -0.9806
vn 0.1142 -0.1616 -0.9802
vn 0.0030 0.1487 -0.9889
vn 0.1366 -0.2055 -0.9691
vn 0.0193 0.1065 -0.9941
vn 0.1449 -0.2615 -0.9543
vn 0.0605 -0.4009 -0.9141
vn 0.0364 0.0670 -0.9971
vn 0.0552 0.0288 -0.9981
vn 0.0741 -0.0086 -0.9972
vn 0.0369 0.2530 -0.9668
vn 0.0403 0.2534 -0.9665
vn 0.0351 0.2488 -0.9679
vn -0.1605 -0.0170 -0.9869
vn 0.0375 0.2495 -0.9677
vn -0.0690 -0.1183 -0.9906
vn 0.0148 0.1954 -0.9806
vn -0.1130 -0.1614 -0.9804
vn -0.0029 0.1487 -0.9889
vn -0.1348 -0.2053 -0.9694
vn -0.0193 0.1065 -0.9941
vn -0.1424 -0.2606 -0.9549
vn 0.1100 -0.3206 -0.9408
vn -0.0366 0.0669 -0.9971
vn 0.0004 -0.3886 -0.9214
vn -0.0553 0.0288 -0.9981
vn -0.0740 -0.0086 -0.9972
vn -0.0629 -0.4014 -0.9137
vn -0.1169 -0.3199 -0.9402
vn -0.9768 0.1253 -0.1735
vn -0.9647 0.1397 -0.2232
vn -0.9555 0.1597 -0.2480
vn -0.9455 0.1884 -0.2655
vn -0.9458 0.1897 -0.2638
vn -0.9872 0.1071 -0.1179
vn -0.9692 0.1319 -0.2080
vn -0.9817 0.1103 -0.1553
vn -0.9735 0.1255 -0.1912
vn -0.9602 0.1489 -0.2365
vn -0.9507 0.1726 -0.2577
vn -0.9894 0.1048 -0.1004
vn -0.9492 0.1558 -0.2734
vn -0.9498 0.1540 -0.2723
vn -0.9907 0.0814 -0.1091
vn -0.9847 0.1082 -0.1366
vn 0.2325 0.2023 0.9513
vn 0.1391 -0.1410 0.9802
vn 0.1865 0.1665 0.9682
vn 0.1694 -0.1912 0.9668
vn 0.6459 -0.7374 0.1975
vn 0.1537 0.1313 0.9794
vn 0.2101 -0.2484 0.9456
vn 0.2116 -0.2486 0.9452
vn 0.2071 -0.2459 0.9469
vn 0.1042 0.0202 0.9943
vn 0.1062 0.0198 0.9941
vn 0.0979 0.0224 0.9949
vn 0.2085 -0.2459 0.9466
vn 0.0998 0.0220 0.9948
vn 0.0977 -0.0152 0.9951
vn 0.1038 -0.0542 0.9931
vn 0.3319 0.2535 0.9086
vn 0.2883 0.3646 0.8854
vn 0.1175 -0.0958 0.9884
vn 0.9769 0.1243 -0.1737
vn 0.9649 0.1388 -0.2230
vn 0.9558 0.1588 -0.2476
vn 0.9459 0.1874 -0.2650
vn 0.9457 0.1893 -0.2644
vn 0.9873 0.1060 -0.1187
vn 0.9693 0.1310 -0.2080
vn 0.9817 0.1093 -0.1557
vn 0.9736 0.1246 -0.1913
vn 0.9604 0.1480 -0.2362
vn 0.9510 0.1716 -0.2572
vn 0.9890 0.1145 -0.0938
vn 0.9496 0.1548 -0.2728
vn 0.9502 0.1546 -0.2707
vn 0.9917 0.0776 -0.1026
vn 0.9847 0.1072 -0.1372
vn -0.0015 0.9919 -0.1267
vn -0.2281 0.2032 0.9522
vn -0.1414 -0.1412 0.9798
vn -0.1838 0.1671 0.9687
vn -0.1727 -0.1915 0.9662
vn -0.6521 -0.7312 0.2002
vn -0.1521 0.1317 0.9796
vn -0.2148 -0.2487 0.9445
vn -0.2119 -0.2459 0.9458
vn -0.2167 -0.2490 0.9440
vn -0.1035 0.0203 0.9944
vn -0.0978 0.0225 0.9950
vn -0.1054 0.0199 0.9942
vn -0.2137 -0.2460 0.9454
vn -0.0996 0.0221 0.9948
vn -0.0980 -0.0152 0.9951
vn -0.1045 -0.0543 0.9930
vn -0.0003 0.4196 0.9077
vn -0.3235 0.2553 0.9111
vn -0.2788 0.3670 0.8875
vn -0.1189 -0.0959 0.9883
usemtl None
s 1
f 144//108 163//108 216//109 145//110
f 152//111 159//111 206//111 153//111
f 145//110 216//109 161//112 146//112
f 153//113 206//113 164//113 154//113
f 146//114 161//114 162//114 147//114
f 154//115 164//115 165//115 155//115
f 147//116 162//116 160//116 148//116
f 155//117 165//117 219//117 156//117
f 148//118 160//118 211//118 149//118
f 156//119 219//119 220//119 157//119
f 186//120 179//120 260//120
f 149//121 211//121 204//121 150//121
f 150//122 204//122 208//122 151//122
f 151//123 208//123 159//123 152//123
f 226//124 166//125 255//126 184//124
f 173//127 174//127 181//127 246//127
f 166//125 167//128 251//128 255//126
f 174//129 175//129 262//129 181//129
f 167//130 168//130 252//130 251//130
f 175//131 176//131 187//131 262//131
f 168//132 169//132 182//132 252//132
f 176//133 177//133 185//133 187//133
f 169//134 170//134 183//134 182//134
f 177//135 178//135 186//135 185//135
f 179//136 186//136 178//136
f 170//137 171//137 180//137 183//137
f 179//138 158//138 223//138 260//138
f 171//139 172//139 245//139 180//139
f 172//140 173//140 246//140 245//140
f 223//141 158//141 220//141
f 158//142 157//142 220//142
f 205//143 206//143 159//143 209//143
f 203//144 204//144 211//144 212//144
f 210//145 160//145 162//145 214//145
f 213//146 161//146 216//147 217//146
f 218//148 219//148 165//148 225//148
f 207//149 208//149 204//149 203//149
f 224//150 164//150 206//150 205//150
f 209//151 159//151 208//151 207//151
f 212//152 211//152 160//152 210//152
f 214//153 162//153 161//153 213//153
f 222//154 223//154 220//154 221//154
f 217//155 216//156 163//155 215//155
f 221//157 220//157 219//157 218//157
f 225//158 165//158 164//158 224//158
f 189//159 218//159 225//159 190//159
f 197//160 210//160 214//160 198//160
f 190//161 225//161 224//161 191//161
f 198//162 214//162 213//162 199//162
f 201//163 215//163 163//163 144//163
f 191//164 224//164 205//164 192//164
f 199//165 213//165 217//166 200//167
f 192//168 205//168 209//169 193//170
f 200//167 217//166 215//171 201//171
f 193//170 209//169 207//172 194//172
f 194//173 207//173 203//173 195//173
f 195//174 203//174 212//174 196//174
f 188//175 221//175 218//175 189//175
f 202//176 222//176 221//176 188//176
f 196//177 212//177 210//177 197//177
f 243//178 247//178 246//178 181//178
f 242//179 249//179 183//179 180//179
f 248//180 253//180 252//180 182//180
f 250//181 256//181 255//182 251//181
f 257//183 263//183 187//183 185//183
f 244//184 242//184 180//184 245//184
f 261//185 243//185 181//185 262//185
f 247//186 244//186 245//186 246//186
f 249//187 248//187 182//187 183//187
f 253//188 250//188 251//188 252//188
f 259//189 258//189 186//189 260//189
f 256//190 254//190 184//190 255//191
f 258//192 257//192 185//192 186//192
f 263//193 261//193 262//193 187//193
f 223//194 222//194 259//194 260//194
f 228//195 229//195 263//195 257//195
f 236//196 237//196 253//196 248//196
f 229//197 230//197 261//197 263//197
f 237//198 238//198 250//198 253//198
f 240//199 226//199 184//199 254//199
f 230//200 231//200 243//200 261//200
f 238//201 239//202 256//203 250//201
f 231//204 232//205 247//206 243//204
f 239//202 240//207 254//207 256//203
f 232//205 233//208 244//208 247//206
f 233//209 234//209 242//209 244//209
f 234//210 235//210 249//210 242//210
f 202//211 241//211 259//211 222//211
f 227//212 228//212 257//212 258//212
f 241//213 227//213 258//213 259//213
f 235//214 236//214 248//214 249//214
