# Blender v2.79 (sub 0) OBJ File: 'Gate_TexturingRemodel.blend'
# www.blender.org
mtllib 13.mtl
o symbolsFrontNEWTILT.158_CUBezierCurve.223
v 10.161293 -1.551668 -2.863891
v 10.179427 -1.612035 -2.988516
v 10.182140 -1.620167 -3.005604
v 10.184940 -1.628602 -3.023214
v 10.187813 -1.637352 -3.041236
v 10.190745 -1.646431 -3.059563
v 10.193727 -1.655852 -3.078089
v 10.196741 -1.665627 -3.096704
v 10.199778 -1.675770 -3.115302
v 10.202823 -1.686292 -3.133774
v 10.205864 -1.697207 -3.152014
v 10.208887 -1.708529 -3.169913
v 10.211882 -1.720268 -3.187364
v 10.215840 -1.737002 -3.209836
v 10.219598 -1.754456 -3.230365
v 10.223125 -1.772360 -3.248870
v 10.226395 -1.790437 -3.265268
v 10.229377 -1.808414 -3.279473
v 10.232043 -1.826018 -3.291403
v 10.234367 -1.842973 -3.300973
v 10.236319 -1.859006 -3.308102
v 10.237868 -1.873845 -3.312705
v 10.238990 -1.887213 -3.314699
v 10.239654 -1.898837 -3.313998
v 10.239832 -1.908445 -3.310523
v 10.239496 -1.916304 -3.303926
v 10.238664 -1.922817 -3.294113
v 10.237364 -1.927908 -3.281379
v 10.235631 -1.931504 -3.266016
v 10.233499 -1.933530 -3.248318
v 10.230998 -1.933911 -3.228580
v 10.228162 -1.932572 -3.207093
v 10.225024 -1.929438 -3.184152
v 10.221616 -1.924436 -3.160050
v 10.217972 -1.917488 -3.135080
v 10.214123 -1.908523 -3.109537
v 10.210102 -1.897463 -3.083714
v 10.207109 -1.888319 -3.064954
v 10.204130 -1.878698 -3.046545
v 10.201168 -1.868664 -3.028466
v 10.198222 -1.858281 -3.010700
v 10.195295 -1.847616 -2.993225
v 10.192389 -1.836733 -2.976022
v 10.189506 -1.825696 -2.959071
v 10.186646 -1.814570 -2.942353
v 10.183811 -1.803420 -2.925848
v 10.181004 -1.792311 -2.909536
v 10.178226 -1.781308 -2.893398
v 10.159971 -1.699604 -2.778671
vt 0.703697 0.223635
vt 0.696851 0.211751
vt 0.705888 0.205298
vt 0.707184 0.204414
vt 0.708493 0.203523
vt 0.709818 0.202628
vt 0.711160 0.201734
vt 0.712521 0.200849
vt 0.713902 0.199975
vt 0.715304 0.199119
vt 0.716730 0.198285
vt 0.718181 0.197480
vt 0.719659 0.196708
vt 0.721165 0.195974
vt 0.723238 0.195086
vt 0.725288 0.194366
vt 0.727293 0.193809
vt 0.729227 0.193407
vt 0.731069 0.193155
vt 0.732794 0.193048
vt 0.734378 0.193079
vt 0.735799 0.193241
vt 0.737032 0.193530
vt 0.738054 0.193939
vt 0.738842 0.194461
vt 0.739371 0.195092
vt 0.739650 0.195863
vt 0.739707 0.196796
vt 0.739547 0.197870
vt 0.739177 0.199061
vt 0.738605 0.200348
vt 0.737837 0.201709
vt 0.736879 0.203122
vt 0.735739 0.204565
vt 0.734422 0.206016
vt 0.732937 0.207453
vt 0.731289 0.208854
vt 0.729485 0.210197
vt 0.728084 0.211140
vt 0.726648 0.212048
vt 0.725184 0.212925
vt 0.723701 0.213769
vt 0.722208 0.214583
vt 0.720714 0.215368
vt 0.719227 0.216124
vt 0.717755 0.216853
vt 0.716309 0.217555
vt 0.714895 0.218233
vt 0.713524 0.218885
vn 0.9903 0.0627 0.1240
usemtl Material.2439
s 1
f 1/1/1 49/2/1 48/3/1 47/4/1 46/5/1 45/6/1 44/7/1 43/8/1 42/9/1 41/10/1 40/11/1 39/12/1 38/13/1 37/14/1 36/15/1 35/16/1 34/17/1 33/18/1 32/19/1 31/20/1 30/21/1 29/22/1 28/23/1 27/24/1 26/25/1 25/26/1 24/27/1 23/28/1 22/29/1 21/30/1 20/31/1 19/32/1 18/33/1 17/34/1 16/35/1 15/36/1 14/37/1 13/38/1 12/39/1 11/40/1 10/41/1 9/42/1 8/43/1 7/44/1 6/45/1 5/46/1 4/47/1 3/48/1 2/49/1
