# Blender v2.79 (sub 0) OBJ File: 'Gate_TexturingRemodel.blend'
# www.blender.org
mtllib 14.mtl
o symbolsFrontNEWTILT.159_CUBezierCurve.224
v 10.161293 -1.873655 -2.664387
v 10.179426 -1.948082 -2.781160
v 10.182139 -1.958143 -2.797189
v 10.184938 -1.968565 -2.813701
v 10.187812 -1.979349 -2.830585
v 10.190745 -1.990494 -2.847735
v 10.193726 -2.002002 -2.865041
v 10.196740 -2.013871 -2.882396
v 10.199777 -2.026104 -2.899690
v 10.202823 -2.038700 -2.916816
v 10.205863 -2.051659 -2.933665
v 10.208887 -2.064982 -2.950128
v 10.211880 -2.078669 -2.966099
v 10.215839 -2.097898 -2.986476
v 10.219597 -2.117618 -3.004841
v 10.223125 -2.137548 -3.021142
v 10.226394 -2.157407 -3.035330
v 10.229376 -2.176912 -3.047352
v 10.232043 -2.195781 -3.057157
v 10.234366 -2.213733 -3.064695
v 10.236318 -2.230485 -3.069914
v 10.237867 -2.245757 -3.072763
v 10.238989 -2.259267 -3.073191
v 10.239653 -2.270731 -3.071147
v 10.239831 -2.279871 -3.066579
v 10.239495 -2.286910 -3.059114
v 10.238663 -2.292240 -3.048612
v 10.237363 -2.295819 -3.035373
v 10.235631 -2.297607 -3.019696
v 10.233498 -2.297565 -3.001883
v 10.230997 -2.295651 -2.982233
v 10.228162 -2.291827 -2.961048
v 10.225023 -2.286051 -2.938626
v 10.221616 -2.278284 -2.915267
v 10.217971 -2.268485 -2.891273
v 10.214122 -2.256615 -2.866944
v 10.210102 -2.242632 -2.842579
v 10.207108 -2.231372 -2.825007
v 10.204130 -2.219678 -2.807839
v 10.201167 -2.207613 -2.791048
v 10.198221 -2.195239 -2.774607
v 10.195294 -2.182617 -2.758489
v 10.192389 -2.169810 -2.742666
v 10.189505 -2.156880 -2.727111
v 10.186645 -2.143888 -2.711798
v 10.183810 -2.130898 -2.696698
v 10.181004 -2.117970 -2.681787
v 10.178226 -2.105167 -2.667035
v 10.159971 -2.010698 -2.562568
vt 0.687670 0.197769
vt 0.679491 0.186760
vt 0.687718 0.179301
vt 0.688902 0.178273
vt 0.690099 0.177236
vt 0.691311 0.176193
vt 0.692540 0.175150
vt 0.693789 0.174112
vt 0.695059 0.173084
vt 0.696353 0.172071
vt 0.697673 0.171078
vt 0.699020 0.170109
vt 0.700399 0.169170
vt 0.701809 0.168267
vt 0.703765 0.167144
vt 0.705718 0.166191
vt 0.707644 0.165405
vt 0.709519 0.164781
vt 0.711319 0.164318
vt 0.713019 0.164011
vt 0.714597 0.163857
vt 0.716026 0.163854
vt 0.717285 0.163997
vt 0.718347 0.164285
vt 0.719190 0.164712
vt 0.719790 0.165277
vt 0.720156 0.166011
vt 0.720320 0.166931
vt 0.720286 0.168016
vt 0.720057 0.169242
vt 0.719639 0.170586
vt 0.719033 0.172027
vt 0.718246 0.173542
vt 0.717281 0.175108
vt 0.716142 0.176702
vt 0.714834 0.178302
vt 0.713360 0.179885
vt 0.711724 0.181428
vt 0.710442 0.182527
vt 0.709121 0.183596
vt 0.707768 0.184636
vt 0.706393 0.185648
vt 0.705005 0.186629
vt 0.703612 0.187582
vt 0.702223 0.188506
vt 0.700846 0.189401
vt 0.699491 0.190266
vt 0.698166 0.191103
vt 0.696879 0.191910
vn 0.9903 0.0766 0.1159
usemtl Material.2439
s 1
f 1/1/1 49/2/1 48/3/1 47/4/1 46/5/1 45/6/1 44/7/1 43/8/1 42/9/1 41/10/1 40/11/1 39/12/1 38/13/1 37/14/1 36/15/1 35/16/1 34/17/1 33/18/1 32/19/1 31/20/1 30/21/1 29/22/1 28/23/1 27/24/1 26/25/1 25/26/1 24/27/1 23/28/1 22/29/1 21/30/1 20/31/1 19/32/1 18/33/1 17/34/1 16/35/1 15/36/1 14/37/1 13/38/1 12/39/1 11/40/1 10/41/1 9/42/1 8/43/1 7/44/1 6/45/1 5/46/1 4/47/1 3/48/1 2/49/1
