# Blender v2.79 (sub 0) OBJ File: 'Gate_TexturingRemodel.blend'
# www.blender.org
mtllib 15.mtl
o symbolsFrontNEWTILT.160_CUBezierCurve.225
v 10.161293 -2.170303 -2.428852
v 10.179426 -2.257784 -2.536196
v 10.182139 -2.269637 -2.550948
v 10.184939 -2.281906 -2.566138
v 10.187812 -2.294576 -2.581656
v 10.190745 -2.307637 -2.597397
v 10.193726 -2.321076 -2.613249
v 10.196740 -2.334881 -2.629108
v 10.199777 -2.349039 -2.644866
v 10.202822 -2.363537 -2.660414
v 10.205863 -2.378365 -2.675645
v 10.208886 -2.393509 -2.690450
v 10.211880 -2.408957 -2.704724
v 10.215839 -2.430422 -2.722730
v 10.219597 -2.452140 -2.738682
v 10.223125 -2.473829 -2.752559
v 10.226394 -2.495200 -2.764345
v 10.229376 -2.515968 -2.774022
v 10.232043 -2.535848 -2.781570
v 10.234366 -2.554554 -2.786973
v 10.236318 -2.571799 -2.790212
v 10.237867 -2.587299 -2.791269
v 10.238989 -2.600767 -2.790126
v 10.239653 -2.611917 -2.786764
v 10.239831 -2.620464 -2.781167
v 10.239495 -2.626589 -2.772935
v 10.238663 -2.630663 -2.761885
v 10.237364 -2.632681 -2.748319
v 10.235631 -2.632638 -2.732542
v 10.233498 -2.630527 -2.714853
v 10.230997 -2.626346 -2.695559
v 10.228161 -2.620088 -2.674961
v 10.225023 -2.611748 -2.653360
v 10.221615 -2.601322 -2.631062
v 10.217971 -2.588803 -2.608367
v 10.214122 -2.574189 -2.585580
v 10.210101 -2.557472 -2.563004
v 10.207108 -2.544248 -2.546858
v 10.204130 -2.530641 -2.531164
v 10.201167 -2.516708 -2.515887
v 10.198221 -2.502508 -2.500994
v 10.195294 -2.488100 -2.486449
v 10.192389 -2.473543 -2.472220
v 10.189505 -2.458894 -2.458271
v 10.186645 -2.444213 -2.444570
v 10.183810 -2.429558 -2.431081
v 10.181004 -2.414986 -2.417771
v 10.178226 -2.400558 -2.404605
v 10.159971 -2.294599 -2.311812
vt 0.668749 0.173938
vt 0.659347 0.163953
vt 0.666652 0.155590
vt 0.667709 0.154432
vt 0.668778 0.153262
vt 0.669860 0.152086
vt 0.670960 0.150907
vt 0.672080 0.149731
vt 0.673222 0.148563
vt 0.674390 0.147406
vt 0.675585 0.146266
vt 0.676811 0.145148
vt 0.678071 0.144056
vt 0.679367 0.142994
vt 0.681180 0.141652
vt 0.683009 0.140479
vt 0.684830 0.139474
vt 0.686620 0.138637
vt 0.688354 0.137968
vt 0.690008 0.137466
vt 0.691556 0.137130
vt 0.692976 0.136960
vt 0.694243 0.136957
vt 0.695332 0.137119
vt 0.696219 0.137446
vt 0.696879 0.137938
vt 0.697329 0.138624
vt 0.697599 0.139519
vt 0.697690 0.140600
vt 0.697605 0.141844
vt 0.697345 0.143228
vt 0.696912 0.144730
vt 0.696306 0.146326
vt 0.695529 0.147993
vt 0.694583 0.149708
vt 0.693469 0.151449
vt 0.692189 0.153193
vt 0.690743 0.154916
vt 0.689597 0.156156
vt 0.688409 0.157371
vt 0.687186 0.158561
vt 0.685938 0.159725
vt 0.684673 0.160862
vt 0.683401 0.161970
vt 0.682128 0.163049
vt 0.680865 0.164097
vt 0.679619 0.165114
vt 0.678400 0.166099
vt 0.677215 0.167050
vn 0.9903 0.0896 0.1062
usemtl Material.2439
s 1
f 1/1/1 49/2/1 48/3/1 47/4/1 46/5/1 45/6/1 44/7/1 43/8/1 42/9/1 41/10/1 40/11/1 39/12/1 38/13/1 37/14/1 36/15/1 35/16/1 34/17/1 33/18/1 32/19/1 31/20/1 30/21/1 29/22/1 28/23/1 27/24/1 26/25/1 25/26/1 24/27/1 23/28/1 22/29/1 21/30/1 20/31/1 19/32/1 18/33/1 17/34/1 16/35/1 15/36/1 14/37/1 13/38/1 12/39/1 11/40/1 10/41/1 9/42/1 8/43/1 7/44/1 6/45/1 5/46/1 4/47/1 3/48/1 2/49/1
