# Blender v2.79 (sub 0) OBJ File: 'Gate_TexturingRemodel.blend'
# www.blender.org
mtllib 16.mtl
o symbolsFrontNEWTILT.161_CUBezierCurve.226
v 10.161293 -2.437603 -2.160471
v 10.179426 -2.536953 -2.256933
v 10.182139 -2.550439 -2.270210
v 10.184939 -2.564388 -2.283872
v 10.187812 -2.578775 -2.297815
v 10.190744 -2.593575 -2.311932
v 10.193726 -2.608763 -2.326118
v 10.196740 -2.624316 -2.340267
v 10.199777 -2.640207 -2.354274
v 10.202822 -2.656413 -2.368034
v 10.205863 -2.672908 -2.381440
v 10.208886 -2.689668 -2.394388
v 10.211881 -2.706669 -2.406771
v 10.215839 -2.730079 -2.422165
v 10.219597 -2.753503 -2.435486
v 10.223125 -2.776655 -2.446752
v 10.226394 -2.799251 -2.455978
v 10.229376 -2.821002 -2.463178
v 10.232043 -2.841624 -2.468368
v 10.234366 -2.860831 -2.471562
v 10.236318 -2.878335 -2.472777
v 10.237867 -2.893852 -2.472027
v 10.238989 -2.907097 -2.469328
v 10.239653 -2.917781 -2.464695
v 10.239831 -2.925620 -2.458143
v 10.239495 -2.930748 -2.449255
v 10.238663 -2.933513 -2.437808
v 10.237363 -2.933942 -2.424099
v 10.235631 -2.932067 -2.408433
v 10.233498 -2.927917 -2.391110
v 10.230997 -2.921524 -2.372432
v 10.228162 -2.912917 -2.352699
v 10.225023 -2.902126 -2.332212
v 10.221615 -2.889182 -2.311275
v 10.217971 -2.874113 -2.290188
v 10.214122 -2.856952 -2.269251
v 10.210101 -2.837728 -2.248768
v 10.207108 -2.822718 -2.234266
v 10.204130 -2.807381 -2.220258
v 10.201167 -2.791769 -2.206702
v 10.198221 -2.775936 -2.193558
v 10.195294 -2.759938 -2.180785
v 10.192389 -2.743827 -2.168342
v 10.189505 -2.727658 -2.156188
v 10.186645 -2.711485 -2.144284
v 10.183810 -2.695362 -2.132587
v 10.181004 -2.679344 -2.121059
v 10.178226 -2.663485 -2.109657
v 10.159971 -2.547470 -2.029793
vt 0.647189 0.152465
vt 0.636692 0.143639
vt 0.642977 0.134484
vt 0.643892 0.133211
vt 0.644817 0.131926
vt 0.645756 0.130631
vt 0.646712 0.129333
vt 0.647687 0.128035
vt 0.648686 0.126742
vt 0.649711 0.125458
vt 0.650767 0.124187
vt 0.651855 0.122934
vt 0.652979 0.121703
vt 0.654143 0.120498
vt 0.655787 0.118955
vt 0.657468 0.117577
vt 0.659161 0.116367
vt 0.660841 0.115328
vt 0.662486 0.114462
vt 0.664070 0.113771
vt 0.665569 0.113258
vt 0.666960 0.112925
vt 0.668217 0.112774
vt 0.669318 0.112809
vt 0.670237 0.113031
vt 0.670950 0.113442
vt 0.671476 0.114072
vt 0.671848 0.114929
vt 0.672064 0.115992
vt 0.672125 0.117238
vt 0.672027 0.118643
vt 0.671771 0.120185
vt 0.671354 0.121840
vt 0.670776 0.123586
vt 0.670036 0.125400
vt 0.669131 0.127259
vt 0.668062 0.129139
vt 0.666826 0.131018
vt 0.665832 0.132383
vt 0.664793 0.133728
vt 0.663717 0.135052
vt 0.662612 0.136353
vt 0.661488 0.137628
vt 0.660352 0.138877
vt 0.659213 0.140096
vt 0.658080 0.141284
vt 0.656961 0.142439
vt 0.655864 0.143559
vt 0.654799 0.144641
vn 0.9903 0.1013 0.0951
usemtl Material.2439
s 1
f 1/1/1 49/2/1 48/3/1 47/4/1 46/5/1 45/6/1 44/7/1 43/8/1 42/9/1 41/10/1 40/11/1 39/12/1 38/13/1 37/14/1 36/15/1 35/16/1 34/17/1 33/18/1 32/19/1 31/20/1 30/21/1 29/22/1 28/23/1 27/24/1 26/25/1 25/26/1 24/27/1 23/28/1 22/29/1 21/30/1 20/31/1 19/32/1 18/33/1 17/34/1 16/35/1 15/36/1 14/37/1 13/38/1 12/39/1 11/40/1 10/41/1 9/42/1 8/43/1 7/44/1 6/45/1 5/46/1 4/47/1 3/48/1 2/49/1
