# Blender v2.79 (sub 0) OBJ File: 'Gate_TexturingRemodel.blend'
# www.blender.org
mtllib 17.mtl
o symbolsFrontNEWTILT.162_CUBezierCurve.227
v 10.161293 -3.029525 -1.196463
v 10.179427 -3.155876 -1.253128
v 10.182139 -3.173090 -1.260992
v 10.184939 -3.190870 -1.269060
v 10.187812 -3.209158 -1.277241
v 10.190745 -3.227894 -1.285445
v 10.193726 -3.247018 -1.293580
v 10.196741 -3.266472 -1.301557
v 10.199778 -3.286196 -1.309284
v 10.202823 -3.306130 -1.316671
v 10.205863 -3.326216 -1.323627
v 10.208887 -3.346394 -1.330061
v 10.211881 -3.366605 -1.335884
v 10.215839 -3.393867 -1.342342
v 10.219598 -3.420435 -1.346849
v 10.223125 -3.446044 -1.349517
v 10.226395 -3.470432 -1.350458
v 10.229377 -3.493335 -1.349784
v 10.232044 -3.514488 -1.347608
v 10.234367 -3.533629 -1.344041
v 10.236319 -3.550493 -1.339195
v 10.237868 -3.564818 -1.333183
v 10.238989 -3.576341 -1.326118
v 10.239654 -3.584795 -1.318110
v 10.239831 -3.589921 -1.309271
v 10.239496 -3.591700 -1.299166
v 10.238664 -3.590383 -1.287463
v 10.237364 -3.586098 -1.274435
v 10.235632 -3.578977 -1.260355
v 10.233499 -3.569153 -1.245495
v 10.230998 -3.556757 -1.230130
v 10.228162 -3.541920 -1.214531
v 10.225024 -3.524773 -1.198971
v 10.221617 -3.505449 -1.183724
v 10.217972 -3.484076 -1.169062
v 10.214123 -3.460789 -1.155257
v 10.210103 -3.435719 -1.142584
v 10.207109 -3.416655 -1.134091
v 10.204131 -3.397451 -1.126174
v 10.201168 -3.378145 -1.118774
v 10.198222 -3.358771 -1.111838
v 10.195295 -3.339369 -1.105307
v 10.192389 -3.319973 -1.099125
v 10.189506 -3.300623 -1.093234
v 10.186646 -3.281354 -1.087579
v 10.183811 -3.262203 -1.082102
v 10.181005 -3.243208 -1.076748
v 10.178226 -3.224406 -1.071458
v 10.159972 -3.088072 -1.036089
vt 0.569748 0.104914
vt 0.556864 0.100211
vt 0.559639 0.089459
vt 0.560064 0.087949
vt 0.560494 0.086425
vt 0.560933 0.084887
vt 0.561387 0.083341
vt 0.561860 0.081787
vt 0.562356 0.080230
vt 0.562881 0.078673
vt 0.563437 0.077118
vt 0.564031 0.075568
vt 0.564667 0.074027
vt 0.565349 0.072496
vt 0.566366 0.070484
vt 0.567474 0.068615
vt 0.568651 0.066899
vt 0.569875 0.065348
vt 0.571124 0.063971
vt 0.572376 0.062780
vt 0.573609 0.061785
vt 0.574802 0.060997
vt 0.575933 0.060425
vt 0.576978 0.060081
vt 0.577918 0.059976
vt 0.578729 0.060118
vt 0.579438 0.060530
vt 0.580081 0.061208
vt 0.580648 0.062133
vt 0.581131 0.063283
vt 0.581520 0.064637
vt 0.581806 0.066173
vt 0.581981 0.067871
vt 0.582035 0.069710
vt 0.581959 0.071668
vt 0.581745 0.073723
vt 0.581383 0.075856
vt 0.580865 0.078044
vt 0.580398 0.079667
vt 0.579881 0.081286
vt 0.579323 0.082899
vt 0.578730 0.084499
vt 0.578110 0.086082
vt 0.577469 0.087644
vt 0.576816 0.089179
vt 0.576158 0.090683
vt 0.575501 0.092151
vt 0.574853 0.093578
vt 0.574222 0.094960
vn 0.9903 0.1277 0.0547
usemtl Material.2439
s 1
f 1/1/1 49/2/1 48/3/1 47/4/1 46/5/1 45/6/1 44/7/1 43/8/1 42/9/1 41/10/1 40/11/1 39/12/1 38/13/1 37/14/1 36/15/1 35/16/1 34/17/1 33/18/1 32/19/1 31/20/1 30/21/1 29/22/1 28/23/1 27/24/1 26/25/1 25/26/1 24/27/1 23/28/1 22/29/1 21/30/1 20/31/1 19/32/1 18/33/1 17/34/1 16/35/1 15/36/1 14/37/1 13/38/1 12/39/1 11/40/1 10/41/1 9/42/1 8/43/1 7/44/1 6/45/1 5/46/1 4/47/1 3/48/1 2/49/1
