# Blender v2.79 (sub 0) OBJ File: 'Gate_TexturingRemodel.blend'
# www.blender.org
mtllib 18.mtl
o symbolsFrontNEWTILT.163_CUBezierCurve.228
v 10.161294 -3.147943 -0.836665
v 10.179427 -3.280018 -0.878278
v 10.182140 -3.298028 -0.884090
v 10.184940 -3.316624 -0.890039
v 10.187813 -3.335738 -0.896042
v 10.190746 -3.355300 -0.902015
v 10.193727 -3.375239 -0.907875
v 10.196741 -3.395487 -0.913540
v 10.199778 -3.415975 -0.918925
v 10.202824 -3.436633 -0.923948
v 10.205864 -3.457390 -0.928525
v 10.208888 -3.478179 -0.932573
v 10.211881 -3.498929 -0.936010
v 10.215840 -3.526757 -0.939259
v 10.219598 -3.553668 -0.940651
v 10.223125 -3.579414 -0.940328
v 10.226395 -3.603746 -0.938432
v 10.229377 -3.626415 -0.935104
v 10.232044 -3.647173 -0.930486
v 10.234367 -3.665771 -0.924721
v 10.236319 -3.681957 -0.917951
v 10.237869 -3.695488 -0.910316
v 10.238991 -3.706113 -0.901961
v 10.239655 -3.713581 -0.893025
v 10.239832 -3.717646 -0.883652
v 10.239497 -3.718240 -0.873408
v 10.238665 -3.715572 -0.861937
v 10.237365 -3.709804 -0.849495
v 10.235632 -3.701097 -0.836337
v 10.233500 -3.689614 -0.822718
v 10.230999 -3.675518 -0.808896
v 10.228163 -3.658970 -0.795125
v 10.225025 -3.640133 -0.781661
v 10.221617 -3.619169 -0.768759
v 10.217973 -3.596239 -0.756678
v 10.214124 -3.571507 -0.745670
v 10.210103 -3.545135 -0.735994
v 10.207110 -3.525214 -0.729771
v 10.204132 -3.505221 -0.724137
v 10.201168 -3.485186 -0.719029
v 10.198222 -3.465138 -0.714389
v 10.195296 -3.445108 -0.710154
v 10.192390 -3.425127 -0.706265
v 10.189507 -3.405223 -0.702661
v 10.186646 -3.385428 -0.699281
v 10.183812 -3.365771 -0.696065
v 10.181005 -3.346283 -0.692951
v 10.178227 -3.326993 -0.689880
v 10.159972 -3.187475 -0.670578
vt 0.540844 0.095401
vt 0.527502 0.092226
vt 0.529010 0.081224
vt 0.529256 0.079675
vt 0.529506 0.078111
vt 0.529764 0.076533
vt 0.530036 0.074944
vt 0.530325 0.073347
vt 0.530637 0.071743
vt 0.530977 0.070135
vt 0.531349 0.068526
vt 0.531760 0.066917
vt 0.532212 0.065312
vt 0.532711 0.063713
vt 0.533488 0.061596
vt 0.534372 0.059611
vt 0.535341 0.057771
vt 0.536377 0.056088
vt 0.537458 0.054576
vt 0.538563 0.053247
vt 0.539673 0.052116
vt 0.540766 0.051194
vt 0.541822 0.050495
vt 0.542821 0.050032
vt 0.543742 0.049818
vt 0.544564 0.049866
vt 0.545316 0.050192
vt 0.546034 0.050792
vt 0.546704 0.051644
vt 0.547317 0.052730
vt 0.547861 0.054030
vt 0.548323 0.055523
vt 0.548694 0.057189
vt 0.548961 0.059009
vt 0.549113 0.060962
vt 0.549139 0.063028
vt 0.549028 0.065189
vt 0.548767 0.067422
vt 0.548491 0.069088
vt 0.548166 0.070757
vt 0.547799 0.072423
vt 0.547395 0.074081
vt 0.546963 0.075726
vt 0.546508 0.077351
vt 0.546038 0.078952
vt 0.545559 0.080522
vt 0.545077 0.082056
vt 0.544599 0.083549
vt 0.544133 0.084995
vn 0.9903 0.1332 0.0395
usemtl Material.2439
s 1
f 1/1/1 49/2/1 48/3/1 47/4/1 46/5/1 45/6/1 44/7/1 43/8/1 42/9/1 41/10/1 40/11/1 39/12/1 38/13/1 37/14/1 36/15/1 35/16/1 34/17/1 33/18/1 32/19/1 31/20/1 30/21/1 29/22/1 28/23/1 27/24/1 26/25/1 25/26/1 24/27/1 23/28/1 22/29/1 21/30/1 20/31/1 19/32/1 18/33/1 17/34/1 16/35/1 15/36/1 14/37/1 13/38/1 12/39/1 11/40/1 10/41/1 9/42/1 8/43/1 7/44/1 6/45/1 5/46/1 4/47/1 3/48/1 2/49/1
