# Blender v2.79 (sub 0) OBJ File: 'Gate_TexturingRemodel.blend'
# www.blender.org
mtllib 2.mtl
o symbolsFrontNEWTILT.147_CUBezierCurve.212
v 10.161302 3.244266 -0.290436
v 10.179436 3.382607 -0.296504
v 10.182149 3.401519 -0.297203
v 10.184949 3.421029 -0.297973
v 10.187821 3.441044 -0.298869
v 10.190755 3.461468 -0.299947
v 10.193736 3.482209 -0.301260
v 10.196751 3.503174 -0.302862
v 10.199787 3.524268 -0.304809
v 10.202832 3.545398 -0.307154
v 10.205873 3.566468 -0.309953
v 10.208898 3.587388 -0.313259
v 10.211890 3.608062 -0.317126
v 10.215850 3.635323 -0.323591
v 10.219607 3.661088 -0.331486
v 10.223135 3.685170 -0.340596
v 10.226404 3.707386 -0.350700
v 10.229387 3.727551 -0.361581
v 10.232054 3.745477 -0.373019
v 10.234377 3.760981 -0.384797
v 10.236328 3.773877 -0.396696
v 10.237879 3.783980 -0.408497
v 10.238999 3.791106 -0.419983
v 10.239664 3.795067 -0.430934
v 10.239841 3.795681 -0.441132
v 10.239507 3.792736 -0.450961
v 10.238673 3.786306 -0.460828
v 10.237374 3.776630 -0.470547
v 10.235641 3.763948 -0.479934
v 10.233508 3.748500 -0.488804
v 10.231008 3.730526 -0.496972
v 10.228172 3.710267 -0.504252
v 10.225034 3.687960 -0.510462
v 10.221625 3.663848 -0.515414
v 10.217981 3.638169 -0.518925
v 10.214132 3.611164 -0.520810
v 10.210112 3.583072 -0.520883
v 10.207119 3.562225 -0.519917
v 10.204140 3.541510 -0.518374
v 10.201177 3.520936 -0.516321
v 10.198231 3.500510 -0.513825
v 10.195304 3.480240 -0.510953
v 10.192398 3.460134 -0.507774
v 10.189514 3.440198 -0.504353
v 10.186654 3.420440 -0.500759
v 10.183820 3.400868 -0.497058
v 10.181013 3.381491 -0.493318
v 10.178235 3.362314 -0.489607
v 10.159981 3.224610 -0.460027
vt 0.496964 0.608906
vt 0.510588 0.607327
vt 0.512934 0.618181
vt 0.513231 0.619721
vt 0.513532 0.621276
vt 0.513829 0.622847
vt 0.514117 0.624433
vt 0.514392 0.626033
vt 0.514647 0.627647
vt 0.514878 0.629274
vt 0.515078 0.630914
vt 0.515243 0.632566
vt 0.515367 0.634228
vt 0.515444 0.635902
vt 0.515438 0.638157
vt 0.515287 0.640324
vt 0.515005 0.642386
vt 0.514608 0.644321
vt 0.514109 0.646112
vt 0.513525 0.647738
vt 0.512869 0.649181
vt 0.512157 0.650421
vt 0.511404 0.651439
vt 0.510623 0.652216
vt 0.509831 0.652732
vt 0.509042 0.652968
vt 0.508224 0.652919
vt 0.507345 0.652601
vt 0.506423 0.652029
vt 0.505475 0.651218
vt 0.504520 0.650183
vt 0.503575 0.648938
vt 0.502657 0.647499
vt 0.501783 0.645881
vt 0.500972 0.644097
vt 0.500241 0.642164
vt 0.499607 0.640096
vt 0.499088 0.637908
vt 0.498778 0.636248
vt 0.498513 0.634569
vt 0.498288 0.632878
vt 0.498100 0.631182
vt 0.497943 0.629488
vt 0.497815 0.627805
vt 0.497709 0.626141
vt 0.497623 0.624501
vt 0.497551 0.622894
vt 0.497489 0.621328
vt 0.497433 0.619810
vn 0.9903 -0.1387 0.0084
usemtl Material.2439
s 1
f 1/1/1 49/2/1 48/3/1 47/4/1 46/5/1 45/6/1 44/7/1 43/8/1 42/9/1 41/10/1 40/11/1 39/12/1 38/13/1 37/14/1 36/15/1 35/16/1 34/17/1 33/18/1 32/19/1 31/20/1 30/21/1 29/22/1 28/23/1 27/24/1 26/25/1 25/26/1 24/27/1 23/28/1 22/29/1 21/30/1 20/31/1 19/32/1 18/33/1 17/34/1 16/35/1 15/36/1 14/37/1 13/38/1 12/39/1 11/40/1 10/41/1 9/42/1 8/43/1 7/44/1 6/45/1 5/46/1 4/47/1 3/48/1 2/49/1
