# Blender v2.79 (sub 0) OBJ File: 'Gate_TexturingRemodel.blend'
# www.blender.org
mtllib 23.mtl
o symbolsFrontNEWTILT.168_CUBezierCurve.233
v 10.161298 -2.768816 1.715586
v 10.179432 -2.889720 1.783097
v 10.182144 -2.906306 1.792208
v 10.184944 -2.923396 1.801653
v 10.187817 -2.940879 1.811437
v 10.190750 -2.958647 1.821565
v 10.193730 -2.976593 1.832047
v 10.196746 -2.994609 1.842888
v 10.199782 -3.012585 1.854095
v 10.202827 -3.030415 1.865674
v 10.205869 -3.047989 1.877631
v 10.208892 -3.065199 1.889974
v 10.211885 -3.081938 1.902709
v 10.215845 -3.103398 1.920720
v 10.219603 -3.122879 1.939339
v 10.223130 -3.140312 1.958288
v 10.226399 -3.155630 1.977288
v 10.229383 -3.168766 1.996061
v 10.232049 -3.179652 2.014328
v 10.234372 -3.188221 2.031812
v 10.236323 -3.194405 2.048232
v 10.237874 -3.198137 2.063313
v 10.238995 -3.199350 2.076775
v 10.239659 -3.197976 2.088339
v 10.239837 -3.193947 2.097728
v 10.239502 -3.186904 2.105189
v 10.238669 -3.176730 2.111121
v 10.237370 -3.163721 2.115463
v 10.235637 -3.148175 2.118161
v 10.233504 -3.130389 2.119154
v 10.231004 -3.110662 2.118386
v 10.228168 -3.089290 2.115800
v 10.225030 -3.066569 2.111338
v 10.221622 -3.042799 2.104942
v 10.217978 -3.018276 2.096555
v 10.214128 -2.993297 2.086119
v 10.210108 -2.968161 2.073577
v 10.207115 -2.949964 2.063358
v 10.204137 -2.932145 2.052682
v 10.201174 -2.914681 2.041614
v 10.198227 -2.897548 2.030216
v 10.195301 -2.880723 2.018553
v 10.192394 -2.864182 2.006688
v 10.189510 -2.847902 1.994684
v 10.186650 -2.831859 1.982605
v 10.183817 -2.816030 1.970514
v 10.181009 -2.800392 1.958475
v 10.178232 -2.784920 1.946552
v 10.159977 -2.675138 1.858316
vt 0.335814 0.125858
vt 0.324348 0.133383
vt 0.317381 0.124737
vt 0.316424 0.123495
vt 0.315457 0.122239
vt 0.314487 0.120969
vt 0.313517 0.119681
vt 0.312553 0.118374
vt 0.311601 0.117046
vt 0.310665 0.115696
vt 0.309750 0.114321
vt 0.308861 0.112919
vt 0.308004 0.111488
vt 0.307184 0.110028
vt 0.306177 0.108010
vt 0.305340 0.106005
vt 0.304666 0.104036
vt 0.304153 0.102128
vt 0.303795 0.100305
vt 0.303587 0.098589
vt 0.303526 0.097005
vt 0.303605 0.095578
vt 0.303822 0.094330
vt 0.304170 0.093286
vt 0.304647 0.092469
vt 0.305246 0.091904
vt 0.305999 0.091580
vt 0.306927 0.091470
vt 0.308008 0.091567
vt 0.309219 0.091867
vt 0.310537 0.092363
vt 0.311940 0.093051
vt 0.313406 0.093925
vt 0.314913 0.094979
vt 0.316439 0.096209
vt 0.317960 0.097608
vt 0.319454 0.099172
vt 0.320900 0.100895
vt 0.321922 0.102238
vt 0.322913 0.103620
vt 0.323873 0.105030
vt 0.324802 0.106462
vt 0.325702 0.107905
vt 0.326572 0.109351
vt 0.327413 0.110791
vt 0.328226 0.112218
vt 0.329012 0.113621
vt 0.329770 0.114993
vt 0.330501 0.116324
vn 0.9903 0.1202 -0.0698
usemtl Material.2439
s 1
f 1/1/1 49/2/1 48/3/1 47/4/1 46/5/1 45/6/1 44/7/1 43/8/1 42/9/1 41/10/1 40/11/1 39/12/1 38/13/1 37/14/1 36/15/1 35/16/1 34/17/1 33/18/1 32/19/1 31/20/1 30/21/1 29/22/1 28/23/1 27/24/1 26/25/1 25/26/1 24/27/1 23/28/1 22/29/1 21/30/1 20/31/1 19/32/1 18/33/1 17/34/1 16/35/1 15/36/1 14/37/1 13/38/1 12/39/1 11/40/1 10/41/1 9/42/1 8/43/1 7/44/1 6/45/1 5/46/1 4/47/1 3/48/1 2/49/1
