# Blender v2.79 (sub 0) OBJ File: 'Gate_TexturingRemodel.blend'
# www.blender.org
mtllib 25.mtl
o symbolsFrontNEWTILT.170_CUBezierCurve.235
v 10.161301 -1.704349 2.775752
v 10.179435 -1.782093 2.890343
v 10.182148 -1.792827 2.905930
v 10.184948 -1.803859 2.922039
v 10.187820 -1.815092 2.938628
v 10.190754 -1.826425 2.955655
v 10.193734 -1.837757 2.973076
v 10.196750 -1.848991 2.990849
v 10.199785 -1.860026 3.008932
v 10.202831 -1.870763 3.027281
v 10.205872 -1.881101 3.045853
v 10.208896 -1.890941 3.064607
v 10.211889 -1.900184 3.083500
v 10.215849 -1.911278 3.109227
v 10.219605 -1.920331 3.134608
v 10.223134 -1.927405 3.159366
v 10.226403 -1.932566 3.183219
v 10.229385 -1.935880 3.205891
v 10.232053 -1.937410 3.227100
v 10.234377 -1.937221 3.246570
v 10.236327 -1.935377 3.264019
v 10.237878 -1.931944 3.279171
v 10.238999 -1.926987 3.291745
v 10.239663 -1.920568 3.301462
v 10.239841 -1.912755 3.308045
v 10.239506 -1.903112 3.311552
v 10.238673 -1.891358 3.312287
v 10.237373 -1.877784 3.310329
v 10.235641 -1.862681 3.305762
v 10.233508 -1.846341 3.298667
v 10.231008 -1.829057 3.289127
v 10.228172 -1.811119 3.277224
v 10.225034 -1.792817 3.263040
v 10.221625 -1.774446 3.246657
v 10.217981 -1.756295 3.228156
v 10.214132 -1.738657 3.207619
v 10.210112 -1.721823 3.185130
v 10.207119 -1.710148 3.167831
v 10.204140 -1.699016 3.150294
v 10.201178 -1.688377 3.132565
v 10.198232 -1.678182 3.114690
v 10.195305 -1.668381 3.096717
v 10.192398 -1.658924 3.078690
v 10.189514 -1.649763 3.060656
v 10.186654 -1.640849 3.042662
v 10.183820 -1.632129 3.024754
v 10.181013 -1.623557 3.006977
v 10.178236 -1.615083 2.989378
v 10.159980 -1.556578 2.861258
vt 0.250648 0.211370
vt 0.243779 0.223241
vt 0.233672 0.218641
vt 0.232259 0.217960
vt 0.230832 0.217272
vt 0.229395 0.216572
vt 0.227950 0.215857
vt 0.226503 0.215121
vt 0.225056 0.214362
vt 0.223613 0.213576
vt 0.222178 0.212757
vt 0.220755 0.211903
vt 0.219347 0.211010
vt 0.217959 0.210072
vt 0.216153 0.208721
vt 0.214505 0.207305
vt 0.213020 0.205848
vt 0.211705 0.204374
vt 0.210566 0.202905
vt 0.209611 0.201465
vt 0.208845 0.200077
vt 0.208275 0.198766
vt 0.207909 0.197553
vt 0.207752 0.196464
vt 0.207811 0.195520
vt 0.208092 0.194746
vt 0.208621 0.194119
vt 0.209401 0.193604
vt 0.210410 0.193206
vt 0.211626 0.192930
vt 0.213027 0.192782
vt 0.214590 0.192767
vt 0.216292 0.192890
vt 0.218112 0.193156
vt 0.220027 0.193570
vt 0.222014 0.194138
vt 0.224051 0.194865
vt 0.226117 0.195755
vt 0.227633 0.196497
vt 0.229139 0.197287
vt 0.230629 0.198117
vt 0.232102 0.198979
vt 0.233554 0.199865
vt 0.234980 0.200766
vt 0.236379 0.201676
vt 0.237746 0.202586
vt 0.239077 0.203487
vt 0.240370 0.204373
vt 0.241621 0.205235
vn 0.9903 0.0761 -0.1163
usemtl Material.2439
s 1
f 1/1/1 49/2/1 48/3/1 47/4/1 46/5/1 45/6/1 44/7/1 43/8/1 42/9/1 41/10/1 40/11/1 39/12/1 38/13/1 37/14/1 36/15/1 35/16/1 34/17/1 33/18/1 32/19/1 31/20/1 30/21/1 29/22/1 28/23/1 27/24/1 26/25/1 25/26/1 24/27/1 23/28/1 22/29/1 21/30/1 20/31/1 19/32/1 18/33/1 17/34/1 16/35/1 15/36/1 14/37/1 13/38/1 12/39/1 11/40/1 10/41/1 9/42/1 8/43/1 7/44/1 6/45/1 5/46/1 4/47/1 3/48/1 2/49/1
