# Blender v2.79 (sub 0) OBJ File: 'Gate_TexturingRemodel.blend'
# www.blender.org
mtllib 26.mtl
o symbolsFrontNEWTILT.171_CUBezierCurve.236
v 10.161302 -1.370580 2.954847
v 10.179436 -1.434495 3.077689
v 10.182149 -1.443346 3.094416
v 10.184949 -1.452434 3.111698
v 10.187821 -1.461665 3.129479
v 10.190755 -1.470944 3.147706
v 10.193735 -1.480178 3.166325
v 10.196750 -1.489273 3.185282
v 10.199787 -1.498133 3.204523
v 10.202832 -1.506667 3.223994
v 10.205873 -1.514779 3.243642
v 10.208897 -1.522376 3.263412
v 10.211890 -1.529363 3.283249
v 10.215849 -1.537396 3.310091
v 10.219607 -1.543440 3.336351
v 10.223135 -1.547593 3.361763
v 10.226404 -1.549950 3.386054
v 10.229387 -1.550609 3.408957
v 10.232054 -1.549666 3.430201
v 10.234377 -1.547218 3.449517
v 10.236328 -1.543362 3.466634
v 10.237879 -1.538193 3.481285
v 10.239000 -1.531809 3.493199
v 10.239664 -1.524306 3.502105
v 10.239842 -1.515781 3.507735
v 10.239507 -1.505796 3.510099
v 10.238674 -1.494036 3.509465
v 10.237375 -1.480781 3.505944
v 10.235642 -1.466311 3.499655
v 10.233509 -1.450905 3.490711
v 10.231009 -1.434845 3.479229
v 10.228173 -1.418410 3.465324
v 10.225035 -1.401879 3.449111
v 10.221627 -1.385534 3.430706
v 10.217982 -1.369654 3.410223
v 10.214133 -1.354519 3.387778
v 10.210113 -1.340410 3.363486
v 10.207120 -1.330822 3.344949
v 10.204142 -1.321802 3.326238
v 10.201179 -1.313292 3.307394
v 10.198232 -1.305242 3.288456
v 10.195306 -1.297593 3.269466
v 10.192399 -1.290293 3.250464
v 10.189515 -1.283288 3.231489
v 10.186655 -1.276522 3.212581
v 10.183822 -1.269941 3.193781
v 10.181014 -1.263491 3.175129
v 10.178237 -1.257116 3.156666
v 10.159982 -1.213881 3.022620
vt 0.236261 0.238182
vt 0.230816 0.250770
vt 0.220243 0.247375
vt 0.218761 0.246863
vt 0.217264 0.246346
vt 0.215755 0.245817
vt 0.214237 0.245274
vt 0.212714 0.244712
vt 0.211189 0.244126
vt 0.209665 0.243512
vt 0.208144 0.242866
vt 0.206632 0.242183
vt 0.205130 0.241459
vt 0.203642 0.240689
vt 0.201692 0.239556
vt 0.199890 0.238341
vt 0.198246 0.237067
vt 0.196769 0.235755
vt 0.195467 0.234428
vt 0.194351 0.233109
vt 0.193429 0.231819
vt 0.192711 0.230583
vt 0.192207 0.229421
vt 0.191924 0.228357
vt 0.191873 0.227413
vt 0.192063 0.226612
vt 0.192515 0.225927
vt 0.193230 0.225325
vt 0.194186 0.224813
vt 0.195362 0.224398
vt 0.196736 0.224088
vt 0.198287 0.223892
vt 0.199992 0.223816
vt 0.201830 0.223869
vt 0.203780 0.224058
vt 0.205820 0.224391
vt 0.207928 0.224877
vt 0.210083 0.225521
vt 0.211675 0.226082
vt 0.213262 0.226692
vt 0.214839 0.227343
vt 0.216402 0.228028
vt 0.217946 0.228740
vt 0.219468 0.229470
vt 0.220963 0.230211
vt 0.222426 0.230956
vt 0.223853 0.231697
vt 0.225240 0.232426
vt 0.226583 0.233137
vn 0.9903 0.0621 -0.1243
usemtl Material.2439
s 1
f 1/1/1 49/2/1 48/3/1 47/4/1 46/5/1 45/6/1 44/7/1 43/8/1 42/9/1 41/10/1 40/11/1 39/12/1 38/13/1 37/14/1 36/15/1 35/16/1 34/17/1 33/18/1 32/19/1 31/20/1 30/21/1 29/22/1 28/23/1 27/24/1 26/25/1 25/26/1 24/27/1 23/28/1 22/29/1 21/30/1 20/31/1 19/32/1 18/33/1 17/34/1 16/35/1 15/36/1 14/37/1 13/38/1 12/39/1 11/40/1 10/41/1 9/42/1 8/43/1 7/44/1 6/45/1 5/46/1 4/47/1 3/48/1 2/49/1
