# Blender v2.79 (sub 0) OBJ File: 'Gate_TexturingRemodel.blend'
# www.blender.org
mtllib 29.mtl
o symbolsFrontNEWTILT.174_CUBezierCurve.239
v 10.161306 0.478617 3.221888
v 10.179440 0.492720 3.359644
v 10.182154 0.494516 3.378483
v 10.184954 0.496419 3.397915
v 10.187826 0.498478 3.417844
v 10.190760 0.500741 3.438171
v 10.193740 0.503258 3.458801
v 10.196755 0.506077 3.479636
v 10.199792 0.509247 3.500582
v 10.202837 0.512816 3.521539
v 10.205877 0.516835 3.542412
v 10.208901 0.521352 3.563103
v 10.211895 0.526415 3.583518
v 10.215855 0.534454 3.610357
v 10.219612 0.543834 3.635618
v 10.223141 0.554328 3.659131
v 10.226409 0.565707 3.680722
v 10.229392 0.577742 3.700219
v 10.232059 0.590203 3.717450
v 10.234383 0.602863 3.732243
v 10.236334 0.615491 3.744425
v 10.237884 0.627860 3.753825
v 10.239006 0.639741 3.760271
v 10.239670 0.650903 3.763590
v 10.239847 0.661120 3.763609
v 10.239512 0.670761 3.760098
v 10.238680 0.680238 3.753105
v 10.237380 0.689378 3.742880
v 10.235647 0.698011 3.729674
v 10.233515 0.705968 3.713736
v 10.231014 0.713077 3.695318
v 10.228178 0.719167 3.674669
v 10.225040 0.724069 3.652040
v 10.221632 0.727612 3.627680
v 10.217987 0.729623 3.601840
v 10.214139 0.729935 3.574771
v 10.210118 0.728374 3.546723
v 10.207125 0.726198 3.525966
v 10.204146 0.723453 3.505376
v 10.201183 0.720207 3.484957
v 10.198237 0.716527 3.464711
v 10.195311 0.712482 3.444642
v 10.192405 0.708139 3.424755
v 10.189521 0.703565 3.405051
v 10.186661 0.698828 3.385536
v 10.183826 0.693996 3.366213
v 10.181019 0.689135 3.347085
v 10.178242 0.684315 3.328156
v 10.159986 0.646779 3.192404
vt 0.214809 0.386734
vt 0.217177 0.400243
vt 0.206478 0.403216
vt 0.204958 0.403603
vt 0.203423 0.403993
vt 0.201872 0.404381
vt 0.200305 0.404761
vt 0.198724 0.405128
vt 0.197127 0.405477
vt 0.195516 0.405801
vt 0.193891 0.406097
vt 0.192252 0.406357
vt 0.190599 0.406578
vt 0.188933 0.406752
vt 0.186682 0.406878
vt 0.184509 0.406853
vt 0.182435 0.406691
vt 0.180479 0.406407
vt 0.178663 0.406013
vt 0.177005 0.405524
vt 0.175527 0.404954
vt 0.174248 0.404315
vt 0.173187 0.403622
vt 0.172367 0.402888
vt 0.171805 0.402128
vt 0.171524 0.401354
vt 0.171525 0.400534
vt 0.171792 0.399638
vt 0.172309 0.398684
vt 0.173064 0.397691
vt 0.174041 0.396677
vt 0.175229 0.395661
vt 0.176612 0.394661
vt 0.178177 0.393695
vt 0.179910 0.392781
vt 0.181798 0.391939
vt 0.183825 0.391186
vt 0.185980 0.390541
vt 0.187618 0.390134
vt 0.189279 0.389772
vt 0.190955 0.389449
vt 0.192637 0.389163
vt 0.194318 0.388908
vt 0.195991 0.388682
vt 0.197647 0.388480
vt 0.199279 0.388298
vt 0.200878 0.388133
vt 0.202438 0.387980
vt 0.203950 0.387836
vn 0.9903 -0.0165 -0.1380
usemtl Material.2439
s 1
f 1/1/1 49/2/1 48/3/1 47/4/1 46/5/1 45/6/1 44/7/1 43/8/1 42/9/1 41/10/1 40/11/1 39/12/1 38/13/1 37/14/1 36/15/1 35/16/1 34/17/1 33/18/1 32/19/1 31/20/1 30/21/1 29/22/1 28/23/1 27/24/1 26/25/1 25/26/1 24/27/1 23/28/1 22/29/1 21/30/1 20/31/1 19/32/1 18/33/1 17/34/1 16/35/1 15/36/1 14/37/1 13/38/1 12/39/1 11/40/1 10/41/1 9/42/1 8/43/1 7/44/1 6/45/1 5/46/1 4/47/1 3/48/1 2/49/1
