# Blender v2.79 (sub 0) OBJ File: 'Gate_TexturingRemodel.blend'
# www.blender.org
mtllib 30.mtl
o symbolsFrontNEWTILT.175_CUBezierCurve.240
v 10.161307 0.849421 3.144540
v 10.179441 0.879420 3.279727
v 10.182155 0.883392 3.298230
v 10.184954 0.887538 3.317310
v 10.187827 0.891897 3.336864
v 10.190760 0.896504 3.356792
v 10.193741 0.901399 3.376990
v 10.196756 0.906617 3.397358
v 10.199793 0.912197 3.417793
v 10.202838 0.918176 3.438195
v 10.205878 0.924591 3.458460
v 10.208902 0.931479 3.478487
v 10.211896 0.938878 3.498175
v 10.215856 0.949978 3.523900
v 10.219613 0.962228 3.547901
v 10.223141 0.975381 3.570037
v 10.226410 0.989189 3.590161
v 10.229393 1.003406 3.608129
v 10.232059 1.017784 3.623797
v 10.234384 1.032075 3.637021
v 10.236335 1.046032 3.647654
v 10.237885 1.059409 3.655555
v 10.239006 1.071957 3.660578
v 10.239671 1.083430 3.662577
v 10.239848 1.093580 3.661411
v 10.239513 1.102748 3.656804
v 10.238680 1.111349 3.648758
v 10.237381 1.119240 3.637541
v 10.235649 1.126282 3.623422
v 10.233515 1.132334 3.606668
v 10.231015 1.137257 3.587549
v 10.228179 1.140909 3.566333
v 10.225041 1.143150 3.543288
v 10.221633 1.143841 3.518681
v 10.217988 1.142839 3.492783
v 10.214140 1.140006 3.465860
v 10.210119 1.135200 3.438183
v 10.207126 1.130629 3.417819
v 10.204147 1.125512 3.397688
v 10.201184 1.119918 3.377783
v 10.198238 1.113912 3.358101
v 10.195312 1.107565 3.338638
v 10.192405 1.100942 3.319389
v 10.189521 1.094112 3.300349
v 10.186661 1.087141 3.281517
v 10.183827 1.080098 3.262885
v 10.181020 1.073050 3.244451
v 10.178243 1.066065 3.226209
v 10.159986 1.013023 3.095733
vt 0.221022 0.416521
vt 0.224943 0.429664
vt 0.214661 0.433859
vt 0.213197 0.434420
vt 0.211717 0.434986
vt 0.210222 0.435551
vt 0.208710 0.436110
vt 0.207182 0.436659
vt 0.205636 0.437190
vt 0.204074 0.437700
vt 0.202494 0.438182
vt 0.200896 0.438631
vt 0.199280 0.439042
vt 0.197646 0.439409
vt 0.195424 0.439794
vt 0.193263 0.440022
vt 0.191184 0.440102
vt 0.189209 0.440047
vt 0.187359 0.439867
vt 0.185656 0.439574
vt 0.184121 0.439179
vt 0.182777 0.438693
vt 0.181643 0.438127
vt 0.180743 0.437494
vt 0.180097 0.436804
vt 0.179727 0.436068
vt 0.179633 0.435253
vt 0.179794 0.434332
vt 0.180197 0.433325
vt 0.180831 0.432251
vt 0.181685 0.431131
vt 0.182746 0.429983
vt 0.184004 0.428829
vt 0.185446 0.427688
vt 0.187062 0.426580
vt 0.188839 0.425524
vt 0.190765 0.424541
vt 0.192830 0.423650
vt 0.194411 0.423056
vt 0.196018 0.422503
vt 0.197645 0.421988
vt 0.199283 0.421508
vt 0.200923 0.421060
vt 0.202558 0.420641
vt 0.204179 0.420248
vt 0.205779 0.419878
vt 0.207348 0.419529
vt 0.208880 0.419196
vt 0.210365 0.418877
vn 0.9903 -0.0324 -0.1351
usemtl Material.2439
s 1
f 1/1/1 49/2/1 48/3/1 47/4/1 46/5/1 45/6/1 44/7/1 43/8/1 42/9/1 41/10/1 40/11/1 39/12/1 38/13/1 37/14/1 36/15/1 35/16/1 34/17/1 33/18/1 32/19/1 31/20/1 30/21/1 29/22/1 28/23/1 27/24/1 26/25/1 25/26/1 24/27/1 23/28/1 22/29/1 21/30/1 20/31/1 19/32/1 18/33/1 17/34/1 16/35/1 15/36/1 14/37/1 13/38/1 12/39/1 11/40/1 10/41/1 9/42/1 8/43/1 7/44/1 6/45/1 5/46/1 4/47/1 3/48/1 2/49/1
