# Blender v2.79 (sub 0) OBJ File: 'Gate_TexturingRemodel.blend'
# www.blender.org
mtllib 31.mtl
o symbolsFrontNEWTILT.176_CUBezierCurve.241
v 10.161307 1.208737 3.024666
v 10.179442 1.254227 3.155456
v 10.182156 1.260320 3.173373
v 10.184955 1.266653 3.191843
v 10.187827 1.273252 3.210760
v 10.190761 1.280142 3.230017
v 10.193742 1.287349 3.249511
v 10.196756 1.294896 3.269135
v 10.199793 1.302811 3.288784
v 10.202839 1.311118 3.308353
v 10.205879 1.319842 3.327737
v 10.208903 1.329009 3.346829
v 10.211897 1.338643 3.365525
v 10.215857 1.352655 3.389787
v 10.219614 1.367608 3.412205
v 10.223142 1.383242 3.432663
v 10.226411 1.399293 3.451048
v 10.229394 1.415500 3.467244
v 10.232060 1.431599 3.481137
v 10.234385 1.447329 3.492612
v 10.236335 1.462426 3.501553
v 10.237886 1.476630 3.507848
v 10.239007 1.489676 3.511380
v 10.239672 1.501303 3.512034
v 10.239849 1.511250 3.509698
v 10.239514 1.519821 3.504057
v 10.238681 1.527429 3.495068
v 10.237382 1.533965 3.483010
v 10.235649 1.539320 3.468169
v 10.233516 1.543386 3.450825
v 10.231016 1.546056 3.431264
v 10.228180 1.547221 3.409768
v 10.225041 1.546772 3.386618
v 10.221634 1.544601 3.362098
v 10.217989 1.540599 3.336491
v 10.214141 1.534660 3.310080
v 10.210120 1.526673 3.283147
v 10.207127 1.519769 3.263452
v 10.204148 1.512349 3.244051
v 10.201185 1.504482 3.224930
v 10.198239 1.496232 3.206078
v 10.195312 1.487668 3.187483
v 10.192406 1.478856 3.169133
v 10.189522 1.469861 3.151015
v 10.186662 1.460751 3.133119
v 10.183827 1.451593 3.115431
v 10.181021 1.442452 3.097939
v 10.178244 1.433397 3.080633
v 10.159987 1.365566 2.957196
vt 0.230652 0.445386
vt 0.236072 0.457985
vt 0.226347 0.463345
vt 0.224958 0.464072
vt 0.223553 0.464806
vt 0.222134 0.465541
vt 0.220697 0.466272
vt 0.219243 0.466994
vt 0.217770 0.467702
vt 0.216277 0.468389
vt 0.214764 0.469051
vt 0.213229 0.469683
vt 0.211672 0.470278
vt 0.210091 0.470833
vt 0.207929 0.471474
vt 0.205809 0.471950
vt 0.203753 0.472272
vt 0.201785 0.472446
vt 0.199927 0.472482
vt 0.198201 0.472388
vt 0.196631 0.472174
vt 0.195239 0.471848
vt 0.194048 0.471418
vt 0.193080 0.470893
vt 0.192358 0.470283
vt 0.191905 0.469595
vt 0.191718 0.468796
vt 0.191770 0.467863
vt 0.192054 0.466816
vt 0.192559 0.465675
vt 0.193277 0.464464
vt 0.194198 0.463201
vt 0.195313 0.461909
vt 0.196613 0.460608
vt 0.198089 0.459319
vt 0.199731 0.458064
vt 0.201531 0.456864
vt 0.203478 0.455739
vt 0.204979 0.454966
vt 0.206511 0.454230
vt 0.208067 0.453530
vt 0.209638 0.452863
vt 0.211215 0.452228
vt 0.212791 0.451622
vt 0.214356 0.451043
vt 0.215901 0.450490
vt 0.217420 0.449961
vt 0.218902 0.449452
vt 0.220341 0.448963
vn 0.9903 -0.0478 -0.1305
usemtl Material.2439
s 1
f 1/1/1 49/2/1 48/3/1 47/4/1 46/5/1 45/6/1 44/7/1 43/8/1 42/9/1 41/10/1 40/11/1 39/12/1 38/13/1 37/14/1 36/15/1 35/16/1 34/17/1 33/18/1 32/19/1 31/20/1 30/21/1 29/22/1 28/23/1 27/24/1 26/25/1 25/26/1 24/27/1 23/28/1 22/29/1 21/30/1 20/31/1 19/32/1 18/33/1 17/34/1 16/35/1 15/36/1 14/37/1 13/38/1 12/39/1 11/40/1 10/41/1 9/42/1 8/43/1 7/44/1 6/45/1 5/46/1 4/47/1 3/48/1 2/49/1
