# Blender v2.79 (sub 0) OBJ File: 'Gate_TexturingRemodel.blend'
# www.blender.org
mtllib 32.mtl
o symbolsFrontNEWTILT.177_CUBezierCurve.242
v 10.161308 1.551706 2.863889
v 10.179442 1.612073 2.988514
v 10.182156 1.620204 3.005602
v 10.184955 1.628639 3.023212
v 10.187828 1.637390 3.041234
v 10.190762 1.646468 3.059561
v 10.193742 1.655889 3.078087
v 10.196756 1.665664 3.096702
v 10.199794 1.675807 3.115299
v 10.202839 1.686329 3.133772
v 10.205880 1.697245 3.152012
v 10.208903 1.708566 3.169910
v 10.211897 1.720306 3.187362
v 10.215857 1.737039 3.209833
v 10.219614 1.754494 3.230363
v 10.223143 1.772397 3.248868
v 10.226412 1.790474 3.265265
v 10.229394 1.808451 3.279470
v 10.232061 1.826055 3.291400
v 10.234385 1.843010 3.300971
v 10.236336 1.859043 3.308099
v 10.237886 1.873882 3.312702
v 10.239007 1.887250 3.314696
v 10.239672 1.898874 3.313997
v 10.239849 1.908482 3.310521
v 10.239514 1.916340 3.303923
v 10.238682 1.922854 3.294111
v 10.237382 1.927945 3.281377
v 10.235649 1.931541 3.266014
v 10.233517 1.933567 3.248316
v 10.231016 1.933948 3.228578
v 10.228181 1.932609 3.207091
v 10.225042 1.929475 3.184149
v 10.221634 1.924473 3.160048
v 10.217990 1.917525 3.135079
v 10.214141 1.908560 3.109535
v 10.210120 1.897501 3.083712
v 10.207128 1.888356 3.064952
v 10.204148 1.878735 3.046542
v 10.201185 1.868701 3.028464
v 10.198239 1.858318 3.010698
v 10.195312 1.847653 2.993223
v 10.192407 1.836770 2.976020
v 10.189522 1.825733 2.959069
v 10.186663 1.814607 2.942351
v 10.183828 1.803457 2.925846
v 10.181021 1.792348 2.909534
v 10.178244 1.781345 2.893396
v 10.159987 1.699642 2.778668
vt 0.243568 0.472938
vt 0.250414 0.484822
vt 0.241376 0.491275
vt 0.240081 0.492159
vt 0.238772 0.493050
vt 0.237447 0.493945
vt 0.236105 0.494838
vt 0.234744 0.495724
vt 0.233363 0.496598
vt 0.231961 0.497454
vt 0.230534 0.498287
vt 0.229083 0.499093
vt 0.227605 0.499865
vt 0.226100 0.500599
vt 0.224027 0.501487
vt 0.221976 0.502207
vt 0.219972 0.502764
vt 0.218037 0.503166
vt 0.216196 0.503417
vt 0.214471 0.503525
vt 0.212887 0.503494
vt 0.211466 0.503332
vt 0.210233 0.503043
vt 0.209211 0.502634
vt 0.208423 0.502112
vt 0.207893 0.501481
vt 0.207614 0.500710
vt 0.207558 0.499776
vt 0.207718 0.498703
vt 0.208088 0.497512
vt 0.208660 0.496225
vt 0.209428 0.494864
vt 0.210386 0.493451
vt 0.211526 0.492008
vt 0.212842 0.490557
vt 0.214328 0.489120
vt 0.215976 0.487719
vt 0.217780 0.486376
vt 0.219180 0.485433
vt 0.220617 0.484525
vt 0.222081 0.483648
vt 0.223564 0.482804
vt 0.225057 0.481990
vt 0.226551 0.481205
vt 0.228038 0.480449
vt 0.229509 0.479720
vt 0.230956 0.479017
vt 0.232370 0.478340
vt 0.233741 0.477688
vn 0.9903 -0.0627 -0.1240
usemtl Material.2439
s 1
f 1/1/1 49/2/1 48/3/1 47/4/1 46/5/1 45/6/1 44/7/1 43/8/1 42/9/1 41/10/1 40/11/1 39/12/1 38/13/1 37/14/1 36/15/1 35/16/1 34/17/1 33/18/1 32/19/1 31/20/1 30/21/1 29/22/1 28/23/1 27/24/1 26/25/1 25/26/1 24/27/1 23/28/1 22/29/1 21/30/1 20/31/1 19/32/1 18/33/1 17/34/1 16/35/1 15/36/1 14/37/1 13/38/1 12/39/1 11/40/1 10/41/1 9/42/1 8/43/1 7/44/1 6/45/1 5/46/1 4/47/1 3/48/1 2/49/1
