# Blender v2.79 (sub 0) OBJ File: 'Gate_TexturingRemodel.blend'
# www.blender.org
mtllib 36.mtl
o symbolsFrontNEWTILT.181_CUBezierCurve.246
v 10.161302 3.029529 1.196480
v 10.179436 3.155879 1.253145
v 10.182149 3.173093 1.261008
v 10.184948 3.190873 1.269076
v 10.187821 3.209161 1.277258
v 10.190754 3.227896 1.285462
v 10.193735 3.247021 1.293597
v 10.196750 3.266475 1.301574
v 10.199787 3.286199 1.309301
v 10.202832 3.306133 1.316688
v 10.205873 3.326219 1.323644
v 10.208897 3.346397 1.330078
v 10.211890 3.366607 1.335900
v 10.215849 3.393870 1.342358
v 10.219606 3.420438 1.346866
v 10.223135 3.446048 1.349534
v 10.226404 3.470435 1.350475
v 10.229386 3.493338 1.349800
v 10.232054 3.514491 1.347624
v 10.234377 3.533632 1.344057
v 10.236327 3.550496 1.339212
v 10.237878 3.564821 1.333200
v 10.238999 3.576344 1.326134
v 10.239663 3.584799 1.318126
v 10.239841 3.589925 1.309288
v 10.239506 3.591703 1.299183
v 10.238672 3.590386 1.287480
v 10.237373 3.586101 1.274452
v 10.235641 3.578980 1.260371
v 10.233507 3.569156 1.245512
v 10.231008 3.556760 1.230147
v 10.228171 3.541923 1.214548
v 10.225034 3.524776 1.198988
v 10.221625 3.505452 1.183740
v 10.217980 3.484080 1.169078
v 10.214131 3.460792 1.155274
v 10.210112 3.435722 1.142601
v 10.207118 3.416658 1.134108
v 10.204140 3.397455 1.126190
v 10.201177 3.378148 1.118791
v 10.198231 3.358774 1.111855
v 10.195304 3.339372 1.105324
v 10.192397 3.319977 1.099141
v 10.189513 3.300626 1.093251
v 10.186653 3.281357 1.087596
v 10.183820 3.262206 1.082119
v 10.181012 3.243211 1.076764
v 10.178235 3.224409 1.071474
v 10.159980 3.088076 1.036106
vt 0.377516 0.591656
vt 0.390399 0.596359
vt 0.387624 0.607112
vt 0.387199 0.608621
vt 0.386770 0.610146
vt 0.386330 0.611683
vt 0.385876 0.613230
vt 0.385403 0.614783
vt 0.384907 0.616340
vt 0.384383 0.617897
vt 0.383826 0.619452
vt 0.383232 0.621002
vt 0.382596 0.622544
vt 0.381915 0.624074
vt 0.380897 0.626086
vt 0.379789 0.627956
vt 0.378612 0.629671
vt 0.377388 0.631222
vt 0.376139 0.632599
vt 0.374887 0.633790
vt 0.373654 0.634785
vt 0.372461 0.635573
vt 0.371331 0.636145
vt 0.370285 0.636489
vt 0.369346 0.636595
vt 0.368534 0.636452
vt 0.367825 0.636040
vt 0.367182 0.635362
vt 0.366615 0.634437
vt 0.366132 0.633287
vt 0.365743 0.631933
vt 0.365457 0.630397
vt 0.365282 0.628699
vt 0.365228 0.626860
vt 0.365304 0.624903
vt 0.365518 0.622847
vt 0.365880 0.620714
vt 0.366398 0.618526
vt 0.366866 0.616904
vt 0.367382 0.615284
vt 0.367940 0.613672
vt 0.368533 0.612072
vt 0.369154 0.610488
vt 0.369794 0.608927
vt 0.370447 0.607391
vt 0.371106 0.605888
vt 0.371762 0.604420
vt 0.372410 0.602992
vt 0.373041 0.601611
vn 0.9903 -0.1277 -0.0547
usemtl Material.2439
s 1
f 1/1/1 49/2/1 48/3/1 47/4/1 46/5/1 45/6/1 44/7/1 43/8/1 42/9/1 41/10/1 40/11/1 39/12/1 38/13/1 37/14/1 36/15/1 35/16/1 34/17/1 33/18/1 32/19/1 31/20/1 30/21/1 29/22/1 28/23/1 27/24/1 26/25/1 25/26/1 24/27/1 23/28/1 22/29/1 21/30/1 20/31/1 19/32/1 18/33/1 17/34/1 16/35/1 15/36/1 14/37/1 13/38/1 12/39/1 11/40/1 10/41/1 9/42/1 8/43/1 7/44/1 6/45/1 5/46/1 4/47/1 3/48/1 2/49/1
