# Blender v2.79 (sub 0) OBJ File: 'Gate_TexturingRemodel.blend'
# www.blender.org
mtllib 4.mtl
o symbolsFrontNEWTILT.149_CUBezierCurve.214
v 10.161303 3.089838 -1.030785
v 10.179436 3.223051 -1.068594
v 10.182149 3.241291 -1.073635
v 10.184949 3.260098 -1.078884
v 10.187821 3.279366 -1.084372
v 10.190755 3.298992 -1.090130
v 10.193736 3.318871 -1.096191
v 10.196751 3.338901 -1.102585
v 10.199787 3.358977 -1.109344
v 10.202832 3.378997 -1.116499
v 10.205873 3.398854 -1.124081
v 10.208897 3.418447 -1.132122
v 10.211890 3.437672 -1.140653
v 10.215850 3.462707 -1.153231
v 10.219607 3.485956 -1.166855
v 10.223135 3.507290 -1.181273
v 10.226404 3.526577 -1.196228
v 10.229387 3.543688 -1.211465
v 10.232054 3.558493 -1.226730
v 10.234377 3.570863 -1.241766
v 10.236328 3.580667 -1.256318
v 10.237879 3.587777 -1.270131
v 10.238999 3.592061 -1.282950
v 10.239664 3.593391 -1.294520
v 10.239841 3.591636 -1.304585
v 10.239506 3.586504 -1.313470
v 10.238673 3.577972 -1.321587
v 10.237374 3.566315 -1.328813
v 10.235641 3.551810 -1.335022
v 10.233508 3.534733 -1.340091
v 10.231008 3.515360 -1.343893
v 10.228172 3.493967 -1.346305
v 10.225034 3.470830 -1.347203
v 10.221625 3.446226 -1.346462
v 10.217981 3.420430 -1.343956
v 10.214132 3.393718 -1.339562
v 10.210112 3.366366 -1.333155
v 10.207119 3.346303 -1.327407
v 10.204140 3.326503 -1.321129
v 10.201177 3.306957 -1.314386
v 10.198231 3.287657 -1.307247
v 10.195304 3.268596 -1.299778
v 10.192398 3.249765 -1.292048
v 10.189514 3.231155 -1.284122
v 10.186654 3.212759 -1.276068
v 10.183820 3.194568 -1.267953
v 10.181013 3.176575 -1.259845
v 10.178235 3.158772 -1.251812
v 10.159980 3.031600 -1.191272
vt 0.556438 0.596501
vt 0.569331 0.591822
vt 0.574116 0.601843
vt 0.574761 0.603272
vt 0.575412 0.604716
vt 0.576064 0.606176
vt 0.576710 0.607653
vt 0.577346 0.609147
vt 0.577967 0.610659
vt 0.578566 0.612189
vt 0.579139 0.613738
vt 0.579681 0.615307
vt 0.580185 0.616896
vt 0.580646 0.618507
vt 0.581160 0.620702
vt 0.581513 0.622846
vt 0.581714 0.624917
vt 0.581774 0.626892
vt 0.581702 0.628749
vt 0.581508 0.630466
vt 0.581203 0.632022
vt 0.580796 0.633392
vt 0.580298 0.634557
vt 0.579718 0.635492
vt 0.579066 0.636177
vt 0.578353 0.636589
vt 0.577545 0.636730
vt 0.576616 0.636623
vt 0.575587 0.636279
vt 0.574478 0.635709
vt 0.573310 0.634922
vt 0.572103 0.633929
vt 0.570878 0.632740
vt 0.569655 0.631367
vt 0.568454 0.629819
vt 0.567297 0.628106
vt 0.566203 0.626240
vt 0.565194 0.624230
vt 0.564509 0.622687
vt 0.563863 0.621114
vt 0.563255 0.619520
vt 0.562680 0.617913
vt 0.562138 0.616302
vt 0.561625 0.614694
vt 0.561138 0.613098
vt 0.560676 0.611523
vt 0.560235 0.609976
vt 0.559814 0.608467
vt 0.559409 0.607002
vn 0.9903 -0.1330 0.0402
usemtl Material.2439
s 1
f 1/1/1 49/2/1 48/3/1 47/4/1 46/5/1 45/6/1 44/7/1 43/8/1 42/9/1 41/10/1 40/11/1 39/12/1 38/13/1 37/14/1 36/15/1 35/16/1 34/17/1 33/18/1 32/19/1 31/20/1 30/21/1 29/22/1 28/23/1 27/24/1 26/25/1 25/26/1 24/27/1 23/28/1 22/29/1 21/30/1 20/31/1 19/32/1 18/33/1 17/34/1 16/35/1 15/36/1 14/37/1 13/38/1 12/39/1 11/40/1 10/41/1 9/42/1 8/43/1 7/44/1 6/45/1 5/46/1 4/47/1 3/48/1 2/49/1
