# Blender v2.79 (sub 0) OBJ File: 'Gate_TexturingRemodel.blend'
# www.blender.org
mtllib 7.mtl
o symbolsFrontNEWTILT.152_CUBezierCurve.217
v 10.161300 2.015096 -2.559099
v 10.179434 2.105617 -2.663891
v 10.182147 2.118087 -2.678125
v 10.184946 2.130916 -2.692845
v 10.187819 2.143998 -2.708018
v 10.190752 2.157231 -2.723614
v 10.193733 2.170510 -2.739601
v 10.196748 2.183731 -2.755950
v 10.199784 2.196790 -2.772629
v 10.202830 2.209584 -2.789608
v 10.205871 2.222009 -2.806855
v 10.208895 2.233959 -2.824340
v 10.211888 2.245333 -2.842031
v 10.215848 2.259339 -2.866297
v 10.219604 2.271276 -2.890455
v 10.223133 2.281178 -2.914224
v 10.226401 2.289073 -2.937317
v 10.229384 2.294997 -2.959451
v 10.232051 2.298978 -2.980339
v 10.234375 2.301051 -2.999699
v 10.236325 2.301245 -3.017245
v 10.237876 2.299595 -3.032692
v 10.238997 2.296130 -3.045757
v 10.239661 2.290884 -3.056154
v 10.239839 2.283887 -3.063599
v 10.239504 2.274717 -3.068202
v 10.238670 2.263128 -3.070296
v 10.237371 2.249418 -3.069927
v 10.235639 2.233887 -3.067144
v 10.233505 2.216834 -3.061994
v 10.231005 2.198559 -3.054526
v 10.228169 2.179360 -3.044786
v 10.225031 2.159536 -3.032822
v 10.221623 2.139387 -3.018682
v 10.217978 2.119211 -3.002413
v 10.214129 2.099308 -2.984064
v 10.210109 2.079977 -2.963681
v 10.207116 2.066373 -2.947854
v 10.204137 2.053281 -2.931728
v 10.201174 2.040655 -2.915354
v 10.198228 2.028453 -2.898784
v 10.195302 2.016632 -2.882069
v 10.192395 2.005147 -2.865263
v 10.189511 1.993954 -2.848414
v 10.186651 1.983011 -2.831577
v 10.183818 1.972271 -2.814801
v 10.181010 1.961694 -2.798140
v 10.178233 1.951233 -2.781644
v 10.159978 1.878250 -2.661182
vt 0.679212 0.510163
vt 0.687413 0.499170
vt 0.696918 0.504912
vt 0.698242 0.505752
vt 0.699579 0.506601
vt 0.700926 0.507463
vt 0.702277 0.508342
vt 0.703630 0.509240
vt 0.704979 0.510162
vt 0.706321 0.511111
vt 0.707651 0.512090
vt 0.708965 0.513104
vt 0.710260 0.514155
vt 0.711530 0.515247
vt 0.713166 0.516799
vt 0.714639 0.518396
vt 0.715945 0.520016
vt 0.717080 0.521633
vt 0.718040 0.523224
vt 0.718822 0.524765
vt 0.719422 0.526232
vt 0.719835 0.527601
vt 0.720059 0.528848
vt 0.720088 0.529949
vt 0.719920 0.530879
vt 0.719551 0.531615
vt 0.718953 0.532177
vt 0.718118 0.532598
vt 0.717070 0.532876
vt 0.715830 0.533008
vt 0.714421 0.532993
vt 0.712867 0.532826
vt 0.711190 0.532507
vt 0.709414 0.532031
vt 0.707560 0.531397
vt 0.705652 0.530603
vt 0.703713 0.529644
vt 0.701765 0.528520
vt 0.700345 0.527607
vt 0.698941 0.526648
vt 0.697557 0.525651
vt 0.696194 0.524624
vt 0.694855 0.523575
vt 0.693543 0.522514
vt 0.692260 0.521448
vt 0.691008 0.520386
vt 0.689790 0.519336
vt 0.688608 0.518306
vt 0.687466 0.517305
vn 0.9903 -0.0891 0.1067
usemtl Material.2439
s 1
f 1/1/1 49/2/1 48/3/1 47/4/1 46/5/1 45/6/1 44/7/1 43/8/1 42/9/1 41/10/1 40/11/1 39/12/1 38/13/1 37/14/1 36/15/1 35/16/1 34/17/1 33/18/1 32/19/1 31/20/1 30/21/1 29/22/1 28/23/1 27/24/1 26/25/1 25/26/1 24/27/1 23/28/1 22/29/1 21/30/1 20/31/1 19/32/1 18/33/1 17/34/1 16/35/1 15/36/1 14/37/1 13/38/1 12/39/1 11/40/1 10/41/1 9/42/1 8/43/1 7/44/1 6/45/1 5/46/1 4/47/1 3/48/1 2/49/1
