# Blender v2.79 (sub 0) OBJ File: 'Gate_TexturingRemodel.blend'
# www.blender.org
mtllib 8.mtl
o symbolsFrontNEWTILT.153_CUBezierCurve.218
v 10.161300 1.704377 -2.775733
v 10.179434 1.782121 -2.890325
v 10.182146 1.792854 -2.905911
v 10.184946 1.803887 -2.922021
v 10.187819 1.815120 -2.938610
v 10.190752 1.826452 -2.955637
v 10.193732 1.837785 -2.973058
v 10.196748 1.849019 -2.990831
v 10.199784 1.860053 -3.008913
v 10.202829 1.870790 -3.027262
v 10.205871 1.881128 -3.045835
v 10.208895 1.890968 -3.064589
v 10.211887 1.900212 -3.083481
v 10.215847 1.911306 -3.109209
v 10.219604 1.920358 -3.134590
v 10.223132 1.927433 -3.159347
v 10.226401 1.932594 -3.183201
v 10.229384 1.935907 -3.205872
v 10.232051 1.937437 -3.227082
v 10.234374 1.937248 -3.246552
v 10.236325 1.935405 -3.264001
v 10.237875 1.931972 -3.279153
v 10.238997 1.927014 -3.291727
v 10.239660 1.920596 -3.301444
v 10.239839 1.912782 -3.308027
v 10.239503 1.903139 -3.311533
v 10.238670 1.891385 -3.312268
v 10.237370 1.877811 -3.310310
v 10.235639 1.862708 -3.305743
v 10.233505 1.846369 -3.298648
v 10.231005 1.829084 -3.289109
v 10.228168 1.811146 -3.277206
v 10.225031 1.792845 -3.263022
v 10.221622 1.774473 -3.246639
v 10.217978 1.756323 -3.228137
v 10.214129 1.738684 -3.207601
v 10.210109 1.721851 -3.185112
v 10.207115 1.710176 -3.167813
v 10.204137 1.699045 -3.150275
v 10.201174 1.688405 -3.132547
v 10.198228 1.678210 -3.114672
v 10.195301 1.668409 -3.096698
v 10.192395 1.658952 -3.078672
v 10.189511 1.649791 -3.060638
v 10.186651 1.640876 -3.042644
v 10.183818 1.632156 -3.024735
v 10.181010 1.623585 -3.006958
v 10.178233 1.615110 -2.989360
v 10.159977 1.556606 -2.861240
vt 0.696615 0.485203
vt 0.703484 0.473332
vt 0.713591 0.477932
vt 0.715004 0.478612
vt 0.716431 0.479300
vt 0.717868 0.480000
vt 0.719313 0.480715
vt 0.720760 0.481451
vt 0.722207 0.482210
vt 0.723650 0.482997
vt 0.725085 0.483815
vt 0.726508 0.484669
vt 0.727916 0.485563
vt 0.729304 0.486500
vt 0.731110 0.487851
vt 0.732758 0.489267
vt 0.734243 0.490724
vt 0.735558 0.492198
vt 0.736697 0.493667
vt 0.737652 0.495107
vt 0.738418 0.496495
vt 0.738988 0.497806
vt 0.739354 0.499019
vt 0.739511 0.500108
vt 0.739452 0.501052
vt 0.739171 0.501826
vt 0.738643 0.502453
vt 0.737863 0.502968
vt 0.736853 0.503366
vt 0.735637 0.503642
vt 0.734236 0.503790
vt 0.732673 0.503805
vt 0.730971 0.503682
vt 0.729151 0.503416
vt 0.727236 0.503002
vt 0.725249 0.502434
vt 0.723212 0.501707
vt 0.721146 0.500817
vt 0.719630 0.500075
vt 0.718125 0.499285
vt 0.716634 0.498455
vt 0.715161 0.497593
vt 0.713709 0.496708
vt 0.712283 0.495806
vt 0.710884 0.494896
vt 0.709518 0.493986
vt 0.708186 0.493085
vt 0.706893 0.492199
vt 0.705642 0.491338
vn 0.9903 -0.0761 0.1163
usemtl Material.2439
s 1
f 1/1/1 49/2/1 48/3/1 47/4/1 46/5/1 45/6/1 44/7/1 43/8/1 42/9/1 41/10/1 40/11/1 39/12/1 38/13/1 37/14/1 36/15/1 35/16/1 34/17/1 33/18/1 32/19/1 31/20/1 30/21/1 29/22/1 28/23/1 27/24/1 26/25/1 25/26/1 24/27/1 23/28/1 22/29/1 21/30/1 20/31/1 19/32/1 18/33/1 17/34/1 16/35/1 15/36/1 14/37/1 13/38/1 12/39/1 11/40/1 10/41/1 9/42/1 8/43/1 7/44/1 6/45/1 5/46/1 4/47/1 3/48/1 2/49/1
