# Blender v2.79 (sub 0) OBJ File: ''
# www.blender.org
mtllib untitled.mtl
o BalconyHanrailLong_21_BalconyHanrailLong
v 0.031274 0.033087 -0.101393
v 0.030742 -0.031406 -1.465406
v 0.030742 0.033087 -1.465407
v 0.031274 -0.031406 -0.101393
v -0.031098 0.033087 -0.101393
v -0.031629 0.033087 -1.465406
v -0.031629 -0.031406 -1.465406
v -0.031098 -0.031406 -0.101393
v -0.031097 -0.050098 -0.022697
v 0.031274 -0.050098 -0.022697
v -0.031098 -0.058509 -0.008821
v 0.031274 -0.058509 -0.008821
v -0.031186 -0.066921 0.000000
v 0.031186 -0.066921 -0.000000
v -0.031098 -0.038882 -0.052082
v 0.031274 -0.038882 -0.052082
v -0.031274 0.033087 0.101393
v -0.030742 -0.031406 1.205021
v -0.030742 0.033087 1.205021
v -0.031274 -0.031406 0.101393
v 0.031098 0.033087 0.101393
v 0.031629 0.033087 1.205021
v 0.031629 -0.031406 1.205021
v 0.031098 -0.031406 0.101393
v -0.031274 -0.058509 0.008821
v 0.031097 -0.058509 0.008821
v -0.031274 -0.050098 0.022697
v 0.031097 -0.050098 0.022696
v -0.031274 -0.038882 0.052082
v 0.031098 -0.038882 0.052082
v 0.031274 0.033087 -0.008821
v 0.031274 0.033087 -0.022697
v 0.031274 0.033087 -0.052082
v -0.031274 0.033087 0.008821
v -0.031274 0.033087 0.022697
v -0.031274 0.033087 0.052082
v -0.031098 0.033087 -0.008821
v -0.031097 0.033087 -0.022697
v -0.031098 0.033087 -0.052082
v -0.031186 0.033087 0.000000
v 0.031186 0.033087 -0.000000
v 0.031097 0.033087 0.008821
v 0.031097 0.033087 0.022696
v 0.031098 0.033087 0.052082
vn 1.0000 -0.0039 -0.0039
vn 1.0000 -0.0039 -0.0040
vn -1.0000 -0.0039 -0.0039
vn 0.0038 -0.8547 -0.5191
vn 0.0039 -0.8547 -0.5191
vn 0.0039 -0.0039 -1.0000
vn 0.0039 -0.7225 -0.6913
vn 0.0039 -0.7226 -0.6913
vn 0.0039 -0.9883 -0.1523
vn 0.0039 -0.9883 -0.1524
vn 0.0039 -1.0000 -0.0039
vn 0.0038 -0.9345 -0.3559
vn 0.0039 -0.9345 -0.3558
vn 0.0038 -0.9345 -0.3558
vn -1.0000 -0.0039 -0.0038
vn 1.0000 -0.0039 -0.0041
vn 0.0039 -0.8582 0.5133
vn 0.0039 -0.0039 1.0000
vn 0.0039 -0.7265 0.6872
vn 0.0039 -0.9895 0.1447
vn 0.0039 -0.9371 0.3490
vn 1.0000 -0.0044 -0.0021
vn 1.0000 -0.0044 0.0006
vn -1.0000 -0.0052 -0.0071
vn -0.9999 -0.0050 -0.0098
vn -0.9999 -0.0051 -0.0099
vn 0.0039 1.0000 -0.0039
vn 1.0000 -0.0044 -0.0020
vn 1.0000 -0.0045 0.0005
vn 1.0000 -0.0039 0.0039
vn -0.9999 -0.0039 -0.0119
usemtl WorldGridMaterial
s 1
f 1//1 2//2 3//2
f 2//2 1//1 4//1
f 5//3 6//3 7//3
f 5//3 7//3 8//3
f 9//4 10//5 11//5
f 12//5 11//5 10//5
f 2//6 7//6 3//6
f 6//6 3//6 7//6
f 11//7 12//7 13//7
f 14//8 13//7 12//7
f 8//9 4//9 15//9
f 16//10 15//9 4//9
f 8//11 2//11 4//11
f 8//11 7//11 2//11
f 15//12 16//13 9//14
f 10//13 9//14 16//13
f 17//15 18//15 19//15
f 18//15 17//15 20//15
f 21//2 22//16 23//16
f 21//2 23//16 24//2
f 25//17 26//17 27//17
f 28//17 27//17 26//17
f 18//18 23//18 19//18
f 22//18 19//18 23//18
f 13//19 14//19 25//19
f 26//19 25//19 14//19
f 29//20 30//20 20//20
f 24//20 20//20 30//20
f 24//11 23//11 18//11
f 18//11 20//11 24//11
f 27//21 28//21 29//21
f 30//21 29//21 28//21
f 31//22 12//23 10//1
f 31//22 10//1 32//1
f 16//1 32//1 10//1
f 32//1 16//1 33//1
f 4//1 33//1 16//1
f 33//1 4//1 1//1
f 34//24 25//25 27//3
f 34//24 27//3 35//3
f 29//3 35//3 27//3
f 35//3 29//3 36//3
f 20//15 36//3 29//3
f 36//3 20//15 17//15
f 37//24 9//3 11//26
f 38//3 9//3 37//24
f 38//3 15//3 9//3
f 38//3 39//3 15//3
f 39//3 8//3 15//3
f 8//3 39//3 5//3
f 5//27 3//27 6//27
f 3//27 5//27 1//27
f 39//27 1//27 5//27
f 1//27 39//27 33//27
f 38//27 33//27 39//27
f 33//27 38//27 32//27
f 37//27 32//27 38//27
f 32//27 37//27 31//27
f 40//27 31//27 37//27
f 31//27 40//27 41//27
f 34//27 41//27 40//27
f 41//27 34//27 42//27
f 35//27 42//27 34//27
f 42//27 35//27 43//27
f 36//27 43//27 35//27
f 43//27 36//27 44//27
f 17//27 44//27 36//27
f 44//27 17//27 21//27
f 19//27 21//27 17//27
f 21//27 19//27 22//27
f 42//28 28//1 26//29
f 43//1 28//1 42//28
f 43//1 30//1 28//1
f 43//1 44//1 30//1
f 44//1 24//2 30//1
f 24//2 44//1 21//2
f 41//30 12//23 31//22
f 41//30 14//30 12//23
f 41//30 26//29 14//30
f 42//28 26//29 41//30
f 37//24 11//26 40//31
f 40//31 11//26 13//31
f 40//31 13//31 25//25
f 40//31 25//25 34//24
